<?xml version="1.0" encoding="UTF-8" standalone="no"?>
<svg
   xmlns:dc="http://purl.org/dc/elements/1.1/"
   xmlns:cc="http://creativecommons.org/ns#"
   xmlns:rdf="http://www.w3.org/1999/02/22-rdf-syntax-ns#"
   xmlns:svg="http://www.w3.org/2000/svg"
   xmlns="http://www.w3.org/2000/svg"
   xmlns:sodipodi="http://sodipodi.sourceforge.net/DTD/sodipodi-0.dtd"
   xmlns:inkscape="http://www.inkscape.org/namespaces/inkscape"
   inkscape:version="1.0 (4035a4fb49, 2020-05-01)"
   width="606mm"
   height="803mm"
   viewBox="0 0 606 803"
   version="1.1"
   preserveAspectRatio="xMidYMid meet"
   id="svg15"
   sodipodi:docname="fish_bowl.svg">
  <g
     aria-label="shelf"
     transform="translate(27.257831,9.7349397)"
     id="text966"
     style="font-style:normal;font-variant:normal;font-weight:normal;font-stretch:normal;font-size:36px;line-height:150%;font-family:sans-serif;-inkscape-font-specification:'sans-serif, Normal';text-align:start;letter-spacing:0px;word-spacing:0px;writing-mode:lr-tb;text-anchor:start;white-space:pre;shape-inside:url(#rect968);fill:#000000;fill-opacity:1;stroke:none;stroke-width:0.264583px;stroke-linecap:butt;stroke-linejoin:miter;stroke-opacity:1">
    <path
       d="m 128.25781,337.36147 q 0,2.68945 -2.23242,4.41211 -2.21484,1.72266 -6.06445,1.72266 -2.17969,0 -4.00781,-0.50977 -1.81055,-0.52734 -3.04102,-1.14258 v -3.70898 h 0.17578 q 1.56445,1.17773 3.48047,1.88086 1.91602,0.68554 3.67383,0.68554 2.17969,0 3.41015,-0.70312 1.23047,-0.70313 1.23047,-2.21485 0,-1.16015 -0.66797,-1.75781 -0.66796,-0.59765 -2.5664,-1.01953 -0.70313,-0.1582 -1.84571,-0.36914 -1.125,-0.21094 -2.05664,-0.45703 -2.58398,-0.68555 -3.67382,-2.00391 Q 113,330.83999 113,328.90639 q 0,-1.21289 0.49219,-2.28515 0.50976,-1.07227 1.52929,-1.91602 0.98438,-0.82617 2.4961,-1.30078 1.5293,-0.49219 3.41015,-0.49219 1.75782,0 3.55079,0.43945 1.81054,0.42188 3.00586,1.03711 v 3.53321 h -0.17579 q -1.26562,-0.93164 -3.07617,-1.56446 -1.81054,-0.65039 -3.55078,-0.65039 -1.81055,0 -3.05859,0.70313 -1.24805,0.68554 -1.24805,2.05664 0,1.21289 0.75586,1.82812 0.73828,0.61524 2.39062,1.00196 0.91407,0.21093 2.03907,0.42187 1.14258,0.21094 1.89843,0.38672 2.30274,0.52734 3.55079,1.81055 1.24804,1.30078 1.24804,3.44531 z"
       style="font-size:36px"
       id="path972" />
    <path
       d="m 149.42187,343.02163 h -3.30468 v -11.17969 q 0,-1.35352 -0.15821,-2.53125 -0.1582,-1.19531 -0.58007,-1.86328 -0.43946,-0.73828 -1.26563,-1.08985 -0.82617,-0.36914 -2.14453,-0.36914 -1.35352,0 -2.83008,0.66797 -1.47656,0.66797 -2.83008,1.70508 v 14.66016 h -3.30468 v -27.35157 h 3.30468 v 9.89649 q 1.54688,-1.28321 3.19922,-2.00391 1.65235,-0.7207 3.39258,-0.7207 3.18164,0 4.85156,1.91601 1.66992,1.91602 1.66992,5.51954 z"
       style="font-size:36px"
       id="path974" />
    <path
       d="m 172.2207,333.54702 h -14.46679 q 0,1.81054 0.54492,3.16406 0.54492,1.33594 1.49414,2.19726 0.91406,0.84375 2.16211,1.26563 1.26562,0.42187 2.77734,0.42187 2.00391,0 4.02539,-0.79101 2.03906,-0.80859 2.90039,-1.58203 h 0.17578 v 3.60351 q -1.66992,0.70313 -3.41015,1.17774 -1.74024,0.47461 -3.65625,0.47461 -4.88672,0 -7.62891,-2.63672 -2.74219,-2.6543 -2.74219,-7.52344 0,-4.81641 2.61914,-7.64648 2.63672,-2.83008 6.92579,-2.83008 3.97265,0 6.11718,2.32031 2.16211,2.32031 2.16211,6.5918 z m -3.21679,-2.53125 q -0.0176,-2.60157 -1.31836,-4.02539 -1.28321,-1.42383 -3.91993,-1.42383 -2.65429,0 -4.23632,1.56445 -1.56446,1.56445 -1.77539,3.88477 z"
       style="font-size:36px"
       id="path976" />
    <path
       d="m 180.57031,343.02163 h -3.30469 v -27.35157 h 3.30469 z"
       style="font-size:36px"
       id="path978" />
    <path
       d="m 197.70898,318.86928 h -0.17578 q -0.54492,-0.1582 -1.42383,-0.3164 -0.8789,-0.17579 -1.54687,-0.17579 -2.12695,0 -3.09375,0.94922 -0.94922,0.93164 -0.94922,3.39258 v 0.66797 h 5.95899 v 2.77734 H 190.625 v 16.85743 h -3.30469 V 326.1642 h -2.23242 v -2.77734 h 2.23242 v -0.65039 q 0,-3.49805 1.74024,-5.36133 1.74023,-1.88086 5.02734,-1.88086 1.10742,0 1.98633,0.10547 0.89648,0.10547 1.63476,0.24609 z"
       style="font-size:36px"
       id="path980" />
  </g>
  <path
     id="path865"
     style="fill:#ff0000;fill-opacity:1;fill-rule:evenodd;stroke:none;stroke-width:0.264583px;stroke-linecap:butt;stroke-linejoin:miter;stroke-opacity:1"
     d="m 357.95644,226.59634 h 3.00001 v -11.24998 m 0,0 v -16.5 h -3 v -16.5 h 3 v -16.5 h -3 v -16.5 h 3 v -16.5 h -3 v -16.5 h 3 V 99.846356 h -3 V 83.346355 h 3 v -16.5 h -3 v -16.5 h 3 v -26.75 h 6.25 16.5 148.5 22.75 v 10.25 16.5 h 3 v 16.5 h -3 v 16.5 h 3 v 16.500001 h -3 v 16.500004 h 3 v 16.5 h -3 v 16.5 h 3 v 16.5 h -3 v 16.5 h 3 v 16.5 h -3 v 16.5 h 3 v 16.5 h -3 v 16.5 h 3 v 16.5 h -3 v 16.5 h 3 v 16.5 h -3 v 16.5 h 3 v 16.5 h -3 v 16.5 h 3 v 16.5 h -3 v 16.5 h 3 v 16.5 h -3 v 26.75 h -6.25 -16.5 -148.5 -25.75 V 226.59635 h 3" />
  <metadata
     id="metadata21">
    <rdf:RDF>
      <cc:Work
         rdf:about="">
        <dc:format>image/svg+xml</dc:format>
        <dc:type
           rdf:resource="http://purl.org/dc/dcmitype/StillImage" />
        <dc:title></dc:title>
      </cc:Work>
    </rdf:RDF>
  </metadata>
  <defs
     id="defs19">
    <rect
       x="110.97831"
       y="305.67711"
       width="147.97108"
       height="87.614458"
       id="rect968" />
  </defs>
  <sodipodi:namedview
     inkscape:guide-bbox="true"
     showguides="false"
     inkscape:document-rotation="0"
     inkscape:current-layer="svg15"
     inkscape:window-maximized="1"
     inkscape:window-y="-8"
     inkscape:window-x="-8"
     inkscape:cy="738.27785"
     inkscape:cx="2407.8912"
     inkscape:zoom="0.3651882"
     showborder="false"
     inkscape:document-units="mm"
     showgrid="false"
     id="namedview17"
     inkscape:window-height="1057"
     inkscape:window-width="1920"
     inkscape:pageshadow="2"
     inkscape:pageopacity="0"
     guidetolerance="10"
     gridtolerance="10"
     objecttolerance="10"
     borderopacity="1"
     bordercolor="#666666"
     pagecolor="#ffffff"
     inkscape:snap-bbox="true"
     inkscape:bbox-nodes="true"
     inkscape:bbox-paths="true" />
  <path
     sodipodi:nodetypes="ccccccccccccccccccccccccccccccccccccccccccccccccccccccccccccccccccccccc"
     id="path888"
     d="m 332.97438,198.84636 h -3 v -16.5 h 3 v -16.5 h -3 v -16.5 h 3 v -16.5 h -3 v -16.5 h 3 V 99.846355 h -3 v -16.5 h 3 v -16.5 h -3 v -16.5 h 3 v -16.5 -10.25 h -25.75 -148.5 -16.50001 -9.25 v 26.75 h 3 v 16.5 h -3 v 16.5 h 3 v 16.5 h -3 v 16.500005 h 3 v 16.5 h -3 v 16.5 h 3 v 16.5 h -3 v 16.5 h 3 v 16.5 h -3 l 1e-5,17.5 v 10.25 h 25.75 v -3 h 16.5 v 3 h 16.5 v -3 h 16.5 v 3 h 16.5 v -3 h 16.5 v 3 h 16.5 v -3 h 16.5 v 3 h 16.5 v -3 h 16.5 v 3 h 16.50001 9.25 z"
     style="fill:#ff0000;fill-opacity:1;stroke:none;stroke-width:0.1" />
  <path
     vector-effect="non-scaling-stroke"
     style="fill:#ff0000;fill-opacity:1;stroke:none;stroke-width:0.25mm"
     id="front_labelLayer"
     d="m 263.50881,82.262875 h -3.242 v -13.848 a 9.165,9.165 0 0 0 -0.105,-1.437 q -0.12,-0.757 -0.379,-1.36 a 3.857,3.857 0 0 0 -0.707,-1.109 3.655,3.655 0 0 0 -1.499,-0.957 q -0.589,-0.207 -1.314,-0.285 a 8.595,8.595 0 0 0 -0.918,-0.047 9.813,9.813 0 0 0 -1.836,0.16 q -1.023,0.195 -1.81,0.628 a 4.571,4.571 0 0 0 -1.276,1.028 5.3,5.3 0 0 0 -0.921,1.611 q -0.641,1.708 -0.641,4.386 v 11.23 h -3.242 v -21.406 h 2.636 l 0.528,2.929 h 0.156 a 6.565,6.565 0 0 1 2.572,-2.339 7.894,7.894 0 0 1 0.221,-0.112 8.78,8.78 0 0 1 3.124,-0.833 10.616,10.616 0 0 1 0.88,-0.036 12.801,12.801 0 0 1 2.179,0.173 q 2.283,0.395 3.641,1.692 a 5.619,5.619 0 0 1 1.369,2.15 q 0.329,0.885 0.473,1.983 a 14.149,14.149 0 0 1 0.111,1.834 z m -62.285,-21.406 v 2.519 h -5.449 v 18.887 h -3.242 v -18.887 h -3.828 v -1.465 l 3.828,-1.171 v -1.192 q 0,-7.89 6.894,-7.89 a 10.441,10.441 0 0 1 1.478,0.112 q 0.719,0.103 1.518,0.301 a 20.988,20.988 0 0 1 0.989,0.27 l -0.84,2.598 q -1.332,-0.43 -2.388,-0.555 a 6.973,6.973 0 0 0 -0.815,-0.051 4.372,4.372 0 0 0 -1.054,0.12 2.808,2.808 0 0 0 -1.661,1.101 3.751,3.751 0 0 0 -0.496,1 q -0.329,0.977 -0.375,2.428 a 15.307,15.307 0 0 0 -0.008,0.488 v 1.387 z m 78.789,18.73 v 2.481 a 3.189,3.189 0 0 1 -0.378,0.15 q -0.469,0.155 -1.174,0.27 -0.958,0.155 -1.736,0.165 a 8.312,8.312 0 0 1 -0.11,0.001 8.468,8.468 0 0 1 -2.496,-0.336 q -2.743,-0.847 -3.461,-3.827 a 10.191,10.191 0 0 1 -0.254,-2.38 v -12.735 h -3.066 v -1.562 l 3.066,-1.348 1.367,-4.57 h 1.875 v 4.961 h 6.211 v 2.519 h -6.211 v 12.598 a 6.529,6.529 0 0 0 0.094,1.146 q 0.113,0.63 0.359,1.128 a 3.145,3.145 0 0 0 0.465,0.695 q 0.918,1.035 2.52,1.035 a 10.648,10.648 0 0 0 1.559,-0.112 9.812,9.812 0 0 0 0.101,-0.015 q 0.764,-0.121 1.226,-0.251 a 4.868,4.868 0 0 0 0.043,-0.013 z m -62.558,-18.887 -0.45,3.008 a 14.289,14.289 0 0 0 -1.027,-0.189 q -0.513,-0.075 -0.968,-0.095 a 7.604,7.604 0 0 0 -0.348,-0.009 5.618,5.618 0 0 0 -4.151,1.793 7.686,7.686 0 0 0 -0.293,0.317 7.404,7.404 0 0 0 -1.786,4.157 9.841,9.841 0 0 0 -0.059,1.097 v 11.484 h -3.243 v -21.406 h 2.676 l 0.371,3.965 h 0.157 q 1.191,-2.09 2.871,-3.223 1.679,-1.133 3.691,-1.133 1.426,0 2.559,0.234 z m 22.183,14.098 a 16.747,16.747 0 0 0 0.297,-3.258 19.028,19.028 0 0 0 -0.007,-0.514 q -0.048,-1.783 -0.434,-3.296 a 10.096,10.096 0 0 0 -2.205,-4.276 q -2.647,-2.988 -7.139,-2.988 -4.648,0 -7.266,2.92 -1.738,1.939 -2.321,4.899 a 16.834,16.834 0 0 0 -0.296,3.255 16.219,16.219 0 0 0 0.204,2.628 11.994,11.994 0 0 0 1.007,3.271 10.656,10.656 0 0 0 0.236,0.462 8.777,8.777 0 0 0 3.202,3.405 9.028,9.028 0 0 0 2.072,0.921 10.412,10.412 0 0 0 3.025,0.427 12.59,12.59 0 0 0 2.199,-0.184 8.644,8.644 0 0 0 5.086,-2.756 9.044,9.044 0 0 0 1.077,-1.479 q 0.879,-1.503 1.263,-3.437 z m -16.011,-3.258 a 16.418,16.418 0 0 0 0.156,2.346 q 0.172,1.19 0.534,2.155 a 6.802,6.802 0 0 0 0.95,1.749 5.314,5.314 0 0 0 3.461,2.038 8.052,8.052 0 0 0 1.363,0.111 7.531,7.531 0 0 0 1.987,-0.247 5.241,5.241 0 0 0 2.847,-1.892 6.96,6.96 0 0 0 1.084,-2.111 q 0.319,-0.975 0.458,-2.166 a 17.078,17.078 0 0 0 0.109,-1.983 16.177,16.177 0 0 0 -0.153,-2.305 q -0.35,-2.422 -1.498,-3.896 -1.65,-2.119 -4.873,-2.119 a 7.716,7.716 0 0 0 -1.921,0.225 5.164,5.164 0 0 0 -2.883,1.865 q -1.621,2.09 -1.621,6.23 z" />
  <path
     vector-effect="non-scaling-stroke"
     style="fill:#ff0000;fill-opacity:1;stroke:none;stroke-width:0.25mm"
     id="left_labelLayer"
     d="m 468.35945,275.69288 v 2.519 h -5.45 v 18.887 h -3.242 v -18.887 h -3.828 v -1.465 l 3.828,-1.171 v -1.192 q 0,-7.89 6.895,-7.89 a 10.441,10.441 0 0 1 1.477,0.112 q 0.719,0.103 1.518,0.301 a 20.988,20.988 0 0 1 0.989,0.27 l -0.84,2.598 q -1.332,-0.43 -2.388,-0.555 a 6.973,6.973 0 0 0 -0.815,-0.051 4.372,4.372 0 0 0 -1.054,0.12 2.808,2.808 0 0 0 -1.661,1.101 3.751,3.751 0 0 0 -0.496,1 q -0.329,0.977 -0.375,2.428 a 15.307,15.307 0 0 0 -0.008,0.488 v 1.387 z m -15.176,9.238 v 2.051 h -14.746 q 0.066,2.575 0.931,4.302 a 6.087,6.087 0 0 0 0.973,1.42 5.891,5.891 0 0 0 3.093,1.743 8.926,8.926 0 0 0 1.995,0.211 q 3.457,0 6.836,-1.446 v 2.891 a 19.464,19.464 0 0 1 -1.774,0.67 14.885,14.885 0 0 1 -1.478,0.394 q -1.533,0.323 -3.701,0.323 a 12.599,12.599 0 0 1 -3.153,-0.374 8.921,8.921 0 0 1 -4.338,-2.517 9.542,9.542 0 0 1 -2.282,-4.191 q -0.397,-1.486 -0.453,-3.251 a 18.519,18.519 0 0 1 -0.009,-0.585 q 0,-4.219 1.694,-7.023 a 9.601,9.601 0 0 1 0.855,-1.2 q 2.549,-3.047 6.846,-3.047 4.023,0 6.367,2.647 2.344,2.646 2.344,6.982 z m 28.926,9.492 v 2.481 a 3.189,3.189 0 0 1 -0.379,0.15 q -0.469,0.155 -1.174,0.27 -0.958,0.155 -1.736,0.165 a 8.312,8.312 0 0 1 -0.11,0.001 8.468,8.468 0 0 1 -2.495,-0.336 q -2.743,-0.847 -3.461,-3.827 a 10.191,10.191 0 0 1 -0.255,-2.38 v -12.735 h -3.066 v -1.562 l 3.066,-1.348 1.367,-4.57 h 1.875 v 4.961 h 6.211 v 2.519 h -6.211 v 12.598 a 6.529,6.529 0 0 0 0.095,1.146 q 0.112,0.63 0.359,1.128 a 3.145,3.145 0 0 0 0.464,0.695 q 0.918,1.035 2.52,1.035 a 10.648,10.648 0 0 0 1.56,-0.112 9.812,9.812 0 0 0 0.1,-0.015 q 0.764,-0.121 1.226,-0.251 a 4.868,4.868 0 0 0 0.044,-0.013 z m -52.715,-27.715 v 30.391 h -3.243 v -30.391 z m 9.121,17.637 h 11.191 q 0,-2.074 -0.625,-3.491 a 5.016,5.016 0 0 0 -0.742,-1.206 4.442,4.442 0 0 0 -2.675,-1.523 6.663,6.663 0 0 0 -1.231,-0.108 q -2.578,0 -4.112,1.68 a 6.405,6.405 0 0 0 -1.273,2.148 q -0.323,0.883 -0.47,1.946 a 12.249,12.249 0 0 0 -0.063,0.554 z" />
  <path
     vector-effect="non-scaling-stroke"
     style="fill:#ff0000;fill-opacity:1;stroke:none;stroke-width:0.1"
     stroke-width="0.1"
     id="top_outsideCutPath"
     d="m 89.940901,253.39993 v 22.75 h -3 v 16.5 h 3 v 16.5 h -3 v 16.5 h 3 v 16.5 h -3 v 16.5 h 3 v 16.5 h -3 v 16.5 h 3 v 16.5 h -3 v 16.5 h 3 v 16.5 6.25 H 112.6909 v 3 h 16.5 v -3 h 16.5 v 3 h 16.5 v -3 h 16.5 v 3 h 16.5 v -3 h 16.5 v 3 h 16.5 v -3 h 16.5 v 3 h 16.5 v -3 h 16.5 6.25 v -22.75 h 3 v -16.5 h -3 v -16.5 h 3 v -16.5 h -3 v -16.5 h 3 v -16.5 h -3 v -16.5 h 3 v -16.5 h -3 v -16.5 h 3 v -16.5 h -3 v -16.5 -6.25 h -22.75 v -3 h -16.5 v 3 h -16.5 v -3 h -16.5 v 3 h -16.5 v -3 h -16.5 v 3 h -16.5 v -3 h -16.5 v 3 h -16.5 v -3 h -16.5 v 3 H 96.190901 Z" />
  <path
     vector-effect="non-scaling-stroke"
     style="fill:#ff0000;fill-opacity:1;stroke:none;stroke-width:0.25mm"
     id="back_labelLayer"
     d="m 724.01838,293.26943 h 0.156 q 0.84,-1.192 2.559,-3.125 l 6.914,-7.324 h 3.847 l -8.671,9.121 9.277,12.285 h -3.926 l -7.559,-10.117 -2.441,2.109 v 8.008 h -3.203 v -30.391 h 3.203 v 16.113 q 0,1.055 -0.151,3.24 a 134.757,134.757 0 0 1 -0.005,0.081 z m -65.606,8.203 h -0.234 l -0.684,2.754 h -2.324 v -30.391 h 3.242 v 7.383 q 0,2.4 -0.146,4.325 a 40.448,40.448 0 0 1 -0.01,0.128 h 0.156 a 7.371,7.371 0 0 1 5.381,-3.125 11.073,11.073 0 0 1 1.338,-0.078 9.909,9.909 0 0 1 2.789,0.372 7.418,7.418 0 0 1 3.764,2.509 q 1.869,2.307 2.241,6.148 a 20.811,20.811 0 0 1 0.093,2.006 19.01,19.01 0 0 1 -0.252,3.199 q -0.518,3.03 -2.102,4.994 a 7.675,7.675 0 0 1 -5.455,2.869 10.996,10.996 0 0 1 -1.078,0.051 q -2.09,0 -3.818,-0.771 a 7.181,7.181 0 0 1 -2.901,-2.373 z m 36.836,2.754 h -2.402 l -0.645,-3.047 h -0.156 q -1.131,1.42 -2.256,2.193 a 5.974,5.974 0 0 1 -0.937,0.532 q -1.312,0.587 -3.162,0.69 a 14.591,14.591 0 0 1 -0.813,0.022 9.95,9.95 0 0 1 -2.025,-0.193 q -1.237,-0.257 -2.187,-0.857 a 5.583,5.583 0 0 1 -0.778,-0.59 q -1.807,-1.641 -1.807,-4.668 a 5.61,5.61 0 0 1 3.191,-5.295 q 2.376,-1.264 6.521,-1.475 a 31.671,31.671 0 0 1 0.659,-0.027 l 3.633,-0.117 v -1.328 q 0,-2.52 -1.084,-3.721 -0.865,-0.958 -2.556,-1.152 a 8.011,8.011 0 0 0 -0.911,-0.049 10.556,10.556 0 0 0 -2.429,0.303 q -1.698,0.402 -3.625,1.337 l -0.996,-2.48 a 14.949,14.949 0 0 1 2.885,-1.186 17.016,17.016 0 0 1 0.581,-0.162 15.015,15.015 0 0 1 3.78,-0.488 13.693,13.693 0 0 1 2.085,0.148 q 1.072,0.165 1.928,0.517 a 5.518,5.518 0 0 1 1.661,1.034 5.134,5.134 0 0 1 1.324,2.044 q 0.31,0.839 0.435,1.882 a 12.757,12.757 0 0 1 0.086,1.523 z m 20.957,-20.684 -0.996,2.754 a 14.423,14.423 0 0 0 -1.564,-0.52 17.226,17.226 0 0 0 -0.78,-0.193 13.393,13.393 0 0 0 -1.019,-0.188 q -0.496,-0.071 -0.938,-0.089 a 7.187,7.187 0 0 0 -0.289,-0.006 q -5.794,0 -6.442,6.564 a 17.915,17.915 0 0 0 -0.081,1.756 15.702,15.702 0 0 0 0.155,2.287 q 0.171,1.159 0.53,2.101 a 6.725,6.725 0 0 0 0.907,1.667 q 1.592,2.109 4.717,2.109 a 13.572,13.572 0 0 0 3.743,-0.544 16.757,16.757 0 0 0 1.745,-0.608 v 2.871 a 9.222,9.222 0 0 1 -2.256,0.799 q -1.043,0.231 -2.255,0.292 a 17.78,17.78 0 0 1 -0.899,0.022 12.117,12.117 0 0 1 -2.948,-0.338 8.217,8.217 0 0 1 -4.25,-2.523 q -2.548,-2.861 -2.548,-8.096 0,-5.371 2.587,-8.3 a 8.395,8.395 0 0 1 4.597,-2.644 12.727,12.727 0 0 1 2.777,-0.286 14.631,14.631 0 0 1 3.085,0.332 q 1.543,0.332 2.422,0.781 z m -51.543,1.641 a 9.111,9.111 0 0 0 -1.764,0.159 q -1.005,0.199 -1.768,0.646 a 4.312,4.312 0 0 0 -1.253,1.099 5.55,5.55 0 0 0 -0.803,1.531 q -0.662,1.854 -0.662,4.885 0,3.832 1.085,5.812 a 4.89,4.89 0 0 0 0.419,0.643 4.704,4.704 0 0 0 2.386,1.61 q 1.064,0.334 2.438,0.334 a 6.463,6.463 0 0 0 1.836,-0.246 4.663,4.663 0 0 0 2.618,-1.932 q 1.046,-1.556 1.345,-4.083 a 18.577,18.577 0 0 0 0.119,-2.177 19.155,19.155 0 0 0 -0.115,-2.183 q -0.297,-2.573 -1.349,-4.047 a 4.728,4.728 0 0 0 -3.01,-1.905 7.499,7.499 0 0 0 -1.522,-0.146 z m 27.344,10.449 v -1.934 l -3.242,0.137 a 23.806,23.806 0 0 0 -1.902,0.138 q -1.876,0.218 -3.052,0.737 a 4.979,4.979 0 0 0 -0.622,0.326 3.46,3.46 0 0 0 -1.649,2.51 5.121,5.121 0 0 0 -0.06,0.801 q 0,1.545 0.823,2.442 a 2.888,2.888 0 0 0 0.241,0.234 q 0.919,0.792 2.472,0.901 a 7.292,7.292 0 0 0 0.507,0.017 8.927,8.927 0 0 0 1.928,-0.197 q 1.343,-0.297 2.334,-1.043 a 5.413,5.413 0 0 0 0.494,-0.421 q 1.728,-1.66 1.728,-4.648 z" />
  <path
     vector-effect="non-scaling-stroke"
     style="fill:#ff0000;fill-opacity:1;stroke:none;stroke-width:0.25mm"
     id="right_labelLayer"
     d="m 955.16465,321.22682 h -3.242 v -13.848 a 9.165,9.165 0 0 0 -0.105,-1.437 q -0.121,-0.757 -0.379,-1.36 a 3.857,3.857 0 0 0 -0.708,-1.109 3.655,3.655 0 0 0 -1.499,-0.957 q -0.588,-0.208 -1.313,-0.286 a 8.595,8.595 0 0 0 -0.918,-0.046 9.811,9.811 0 0 0 -1.834,0.159 q -1.017,0.194 -1.8,0.623 a 4.539,4.539 0 0 0 -1.298,1.053 5.395,5.395 0 0 0 -0.915,1.623 q -0.552,1.486 -0.626,3.694 a 20.925,20.925 0 0 0 -0.011,0.699 v 11.192 h -3.243 v -30.391 h 3.243 v 9.199 a 29.166,29.166 0 0 1 -0.021,1.12 q -0.02,0.525 -0.06,0.976 a 12.682,12.682 0 0 1 -0.076,0.658 h 0.196 a 6.478,6.478 0 0 1 2.269,-2.184 7.913,7.913 0 0 1 0.455,-0.248 8.323,8.323 0 0 1 2.732,-0.81 10.522,10.522 0 0 1 1.301,-0.078 13.154,13.154 0 0 1 2.211,0.173 q 1.175,0.201 2.105,0.634 a 5.844,5.844 0 0 1 1.573,1.058 5.645,5.645 0 0 1 1.393,2.186 q 0.334,0.909 0.472,2.038 a 14.02,14.02 0 0 1 0.098,1.704 z m -29.687,-21.407 h 7.402 v 2.051 l -3.965,0.469 q 0.46,0.575 0.838,1.448 a 9.995,9.995 0 0 1 0.139,0.339 6.238,6.238 0 0 1 0.369,1.49 8.01,8.01 0 0 1 0.06,1 q 0,3.145 -2.148,5.02 a 7.191,7.191 0 0 1 -2.829,1.49 q -1.071,0.3 -2.342,0.366 a 14.082,14.082 0 0 1 -0.728,0.019 10.42,10.42 0 0 1 -1.205,-0.068 8.799,8.799 0 0 1 -0.591,-0.089 5.769,5.769 0 0 0 -0.93,0.602 q -0.481,0.388 -0.76,0.832 a 2.439,2.439 0 0 0 -0.381,1.32 q 0,0.852 0.679,1.273 a 1.8,1.8 0 0 0 0.044,0.026 q 0.582,0.338 1.836,0.404 a 12.334,12.334 0 0 0 0.644,0.016 h 3.789 q 2.319,0 3.921,0.652 a 5.859,5.859 0 0 1 1.421,0.813 4.743,4.743 0 0 1 1.763,3.021 7.124,7.124 0 0 1 0.102,1.237 7.02,7.02 0 0 1 -0.401,2.428 q -0.668,1.826 -2.45,2.992 -1.988,1.3 -5.249,1.694 a 25.698,25.698 0 0 1 -3.071,0.171 18.165,18.165 0 0 1 -2.437,-0.153 q -2.474,-0.335 -4.038,-1.41 -2.275,-1.562 -2.275,-4.414 0,-1.953 1.25,-3.379 1.25,-1.425 3.515,-1.933 a 3.365,3.365 0 0 1 -1.306,-1.056 3.995,3.995 0 0 1 -0.071,-0.097 3.006,3.006 0 0 1 -0.551,-1.624 3.723,3.723 0 0 1 -0.005,-0.192 3.708,3.708 0 0 1 0.187,-1.194 3.286,3.286 0 0 1 0.438,-0.857 4.641,4.641 0 0 1 0.612,-0.691 q 0.55,-0.514 1.36,-1.008 a 5.684,5.684 0 0 1 -2.469,-1.977 7.045,7.045 0 0 1 -0.236,-0.347 6.702,6.702 0 0 1 -1.028,-3.23 8.18,8.18 0 0 1 -0.017,-0.52 9.367,9.367 0 0 1 0.247,-2.215 6.163,6.163 0 0 1 1.863,-3.205 q 2.109,-1.904 5.976,-1.904 a 12.427,12.427 0 0 1 1.644,0.103 9.465,9.465 0 0 1 1.384,0.287 z m 46.191,18.731 v 2.48 a 3.189,3.189 0 0 1 -0.378,0.15 q -0.47,0.156 -1.175,0.27 -0.957,0.155 -1.736,0.165 a 8.312,8.312 0 0 1 -0.109,0.001 8.468,8.468 0 0 1 -2.496,-0.336 q -2.743,-0.846 -3.461,-3.826 a 10.191,10.191 0 0 1 -0.254,-2.381 v -12.734 h -3.067 v -1.563 l 3.067,-1.347 1.367,-4.571 h 1.875 v 4.961 h 6.211 v 2.52 h -6.211 v 12.597 a 6.529,6.529 0 0 0 0.094,1.147 q 0.112,0.629 0.359,1.127 a 3.145,3.145 0 0 0 0.465,0.695 q 0.918,1.035 2.519,1.035 a 10.648,10.648 0 0 0 1.56,-0.111 9.812,9.812 0 0 0 0.1,-0.016 q 0.765,-0.121 1.226,-0.251 a 4.868,4.868 0 0 0 0.044,-0.012 z m -70.43,-18.887 -0.449,3.008 a 14.289,14.289 0 0 0 -1.027,-0.19 q -0.513,-0.074 -0.969,-0.095 a 7.604,7.604 0 0 0 -0.348,-0.008 5.618,5.618 0 0 0 -4.15,1.793 7.686,7.686 0 0 0 -0.293,0.316 7.404,7.404 0 0 0 -1.786,4.157 9.841,9.841 0 0 0 -0.06,1.097 v 11.485 h -3.242 v -21.407 h 2.676 l 0.371,3.965 h 0.156 q 1.192,-2.09 2.871,-3.223 1.68,-1.132 3.692,-1.132 1.425,0 2.558,0.234 z m 7.246,0.156 v 21.407 h -3.242 v -21.407 z m 15.879,20.918 h -3.886 a 7.453,7.453 0 0 0 -1.344,0.114 q -1.267,0.232 -2.094,0.941 a 3.416,3.416 0 0 0 -1.122,1.937 5.188,5.188 0 0 0 -0.108,1.09 q 0,1.621 1.273,2.512 a 3.804,3.804 0 0 0 0.191,0.125 5.192,5.192 0 0 0 1.278,0.547 q 1.213,0.351 2.922,0.351 a 21.796,21.796 0 0 0 2.128,-0.096 q 2.506,-0.247 3.917,-1.124 a 4.729,4.729 0 0 0 1.097,-0.919 3.544,3.544 0 0 0 0.865,-2.392 4.387,4.387 0 0 0 -0.08,-0.871 q -0.213,-1.051 -0.994,-1.541 a 3.076,3.076 0 0 0 -0.729,-0.318 q -1.157,-0.356 -3.314,-0.356 z m -6.797,-14.062 a 6.329,6.329 0 0 0 0.131,1.326 q 0.176,0.823 0.592,1.44 a 3.469,3.469 0 0 0 0.547,0.632 4.191,4.191 0 0 0 1.686,0.916 q 0.643,0.185 1.41,0.225 a 8.348,8.348 0 0 0 0.439,0.012 q 3.747,0 4.536,-2.873 a 6.567,6.567 0 0 0 0.21,-1.737 q 0,-3.828 -3.025,-4.618 a 7.051,7.051 0 0 0 -1.78,-0.206 6.803,6.803 0 0 0 -1.386,0.132 q -0.849,0.177 -1.497,0.591 a 3.732,3.732 0 0 0 -0.632,0.507 q -1.231,1.231 -1.231,3.653 z m -12.552,-13.25 a 3.593,3.593 0 0 0 -0.045,0.593 3.828,3.828 0 0 0 0.017,0.367 q 0.031,0.327 0.122,0.594 a 1.674,1.674 0 0 0 0.408,0.67 1.819,1.819 0 0 0 0.658,0.419 2.059,2.059 0 0 0 0.709,0.118 q 0.781,0 1.347,-0.537 0.394,-0.373 0.514,-1.016 a 3.355,3.355 0 0 0 0.053,-0.615 3.709,3.709 0 0 0 -0.016,-0.351 q -0.031,-0.32 -0.119,-0.582 a 1.637,1.637 0 0 0 -0.432,-0.688 1.91,1.91 0 0 0 -1.347,-0.527 2.475,2.475 0 0 0 -0.164,0.005 1.875,1.875 0 0 0 -1.203,0.513 1.516,1.516 0 0 0 -0.335,0.476 q -0.114,0.247 -0.167,0.561 z" />
  <path
     id="path899"
     d="m 765.8853,423.59632 h 16.5 9.25 v -26.75 h -3 v -16.5 h 3 v -16.5 h -3 v -16.5 h 3 v -16.5 h -3 v -16.5 h 3 v -16.5 h -3 v -16.5 h 3 v -16.5 h -3 v -16.5 h 3 v -16.5 h -3 v -16.5 h 3 v -16.5 h -3 v -16.5 h 3 v -16.5 h -3 v -16.5 h 3 v -16.5 h -3 v -16.5 h 3 V 99.846316 h -3 V 83.346355 h 3 v -16.5 h -3 v -16.5 h 3 v -16.5 -10.25 h -25.75 -148.5 -16.5 -9.25 v 26.75 h 3 v 16.5 h -3 v 16.5 h 3 v 16.499961 h -3 v 16.500004 h 3 v 16.5 h -3 v 16.5 h 3 v 16.5 h -3 v 16.5 h 3 v 16.5 h -3 v 16.5 h 3 v 16.5 h -3 v 16.5 h 3 v 16.5 h -3 v 16.5 h 3 v 16.5 h -3 v 16.5 h 3 v 16.5 h -3 v 16.5 h 3 v 16.5 h -3 v 16.5 h 3 v 16.5 h -3 v 16.5 10.25 h 25.75 z"
     style="fill:#ff0000;fill-opacity:1;stroke:none;stroke-width:0.01;stroke-miterlimit:3.02158" />
  <path
     id="path897"
     d="m 617.38528,223.59635 h 16.5 v 3 h -16.5 z"
     style="fill:#ff0000;fill-opacity:1;stroke:none;stroke-width:0.01;stroke-miterlimit:3.02158" />
  <path
     id="path895"
     d="m 650.38528,223.59635 h 16.5 v 3 h -16.5 z"
     style="fill:#ff0000;fill-opacity:1;stroke:none;stroke-width:0.01;stroke-miterlimit:3.02158" />
  <path
     id="path893"
     d="m 683.38528,223.59635 h 16.5 v 3 h -16.5 z"
     style="fill:#ff0000;fill-opacity:1;stroke:none;stroke-width:0.01;stroke-miterlimit:3.02158" />
  <path
     id="path891"
     d="m 716.38528,223.59635 h 16.50001 v 3 h -16.50001 z"
     style="fill:#ff0000;fill-opacity:1;stroke:none;stroke-width:0.01;stroke-miterlimit:3.02158" />
  <path
     id="rect904"
     d="m 749.38528,223.59635 h 16.5 v 3 h -16.5 z"
     style="fill:#ff0000;fill-opacity:1;stroke:none;stroke-width:0.01;stroke-miterlimit:3.02158" />
  <rect
     style="fill:#ff0000;fill-opacity:1;stroke:none;stroke-width:0.01;stroke-miterlimit:3.02158"
     id="rect936"
     width="16.5"
     height="3"
     x="383.70645"
     y="223.59634" />
  <rect
     style="fill:#ff0000;fill-opacity:1;stroke:none;stroke-width:0.01;stroke-miterlimit:3.02158"
     id="rect938"
     width="16.5"
     height="3"
     x="416.70645"
     y="223.59634" />
  <rect
     style="fill:#ff0000;fill-opacity:1;stroke:none;stroke-width:0.01;stroke-miterlimit:3.02158"
     id="rect940"
     width="16.5"
     height="3"
     x="449.70645"
     y="223.59634" />
  <rect
     style="fill:#ff0000;fill-opacity:1;stroke:none;stroke-width:0.01;stroke-miterlimit:3.02158"
     id="rect942"
     width="16.5"
     height="3"
     x="482.70642"
     y="223.59634" />
  <rect
     style="fill:#ff0000;fill-opacity:1;stroke:none;stroke-width:0.01;stroke-miterlimit:3.02158"
     id="rect944"
     width="16.5"
     height="3"
     x="515.70642"
     y="223.59634" />
  <path
     d="m 1038.7466,226.59634 h -3 v -11.24998 m 0,0 v -16.5 h 3 v -16.5 h -3 v -16.5 h 3 v -16.5 h -3 v -16.5 h 3 v -16.5 h -3 V 99.846356 h 3 V 83.346355 h -3 v -16.5 h 3 v -16.5 h -3 v -26.75 h -6.25 -16.5 -148.5 -22.75 v 10.25 16.5 h -3 v 16.5 h 3 v 16.5 h -3 v 16.500001 h 3 v 16.500004 h -3 v 16.5 h 3 v 16.5 h -3 v 16.5 h 3 v 16.5 h -3 v 16.5 h 3 v 16.5 h -3 v 16.5 h 3 v 16.5 h -3 v 16.5 h 3 v 16.5 h -3 v 16.5 h 3 v 16.5 h -3 v 16.5 h 3 v 16.5 h -3 v 16.5 h 3 v 16.5 h -3 v 16.5 h 3 v 26.75 h 6.25 16.5 148.5 25.75 V 226.59635 h -3"
     style="fill:#ff0000;fill-opacity:1;fill-rule:evenodd;stroke:none;stroke-width:0.264583px;stroke-linecap:butt;stroke-linejoin:miter;stroke-opacity:1"
     id="path952" />
  <rect
     y="223.59634"
     x="-1012.9962"
     height="3"
     width="16.5"
     id="rect956"
     style="fill:#ff0000;fill-opacity:1;stroke:none;stroke-width:0.01;stroke-miterlimit:3.02158"
     transform="scale(-1,1)" />
  <rect
     y="223.59634"
     x="-979.99597"
     height="3"
     width="16.5"
     id="rect958"
     style="fill:#ff0000;fill-opacity:1;stroke:none;stroke-width:0.01;stroke-miterlimit:3.02158"
     transform="scale(-1,1)" />
  <rect
     y="223.59634"
     x="-946.99579"
     height="3"
     width="16.5"
     id="rect960"
     style="fill:#ff0000;fill-opacity:1;stroke:none;stroke-width:0.01;stroke-miterlimit:3.02158"
     transform="scale(-1,1)" />
  <rect
     y="223.59634"
     x="-913.99567"
     height="3"
     width="16.5"
     id="rect962"
     style="fill:#ff0000;fill-opacity:1;stroke:none;stroke-width:0.01;stroke-miterlimit:3.02158"
     transform="scale(-1,1)" />
  <rect
     y="223.59634"
     x="-880.99542"
     height="3"
     width="16.5"
     id="rect964"
     style="fill:#ff0000;fill-opacity:1;stroke:none;stroke-width:0.01;stroke-miterlimit:3.02158"
     transform="scale(-1,1)" />
</svg>
