<?xml version="1.0" encoding="UTF-8" standalone="no"?>
<svg
   xmlns:dc="http://purl.org/dc/elements/1.1/"
   xmlns:cc="http://creativecommons.org/ns#"
   xmlns:rdf="http://www.w3.org/1999/02/22-rdf-syntax-ns#"
   xmlns:svg="http://www.w3.org/2000/svg"
   xmlns="http://www.w3.org/2000/svg"
   xmlns:sodipodi="http://sodipodi.sourceforge.net/DTD/sodipodi-0.dtd"
   xmlns:inkscape="http://www.inkscape.org/namespaces/inkscape"
   inkscape:version="1.0 (4035a4fb49, 2020-05-01)"
   width="156mm"
   height="103mm"
   viewBox="0 0 156 103"
   version="1.1"
   preserveAspectRatio="xMidYMid meet"
   id="svg15"
   sodipodi:docname="Pi_Wars_cube.svg">
  <metadata
     id="metadata21">
    <rdf:RDF>
      <cc:Work
         rdf:about="">
        <dc:format>image/svg+xml</dc:format>
        <dc:type
           rdf:resource="http://purl.org/dc/dcmitype/StillImage" />
        <dc:title></dc:title>
      </cc:Work>
    </rdf:RDF>
  </metadata>
  <defs
     id="defs19" />
  <sodipodi:namedview
     inkscape:document-rotation="0"
     inkscape:current-layer="svg15"
     inkscape:window-maximized="1"
     inkscape:window-y="-8"
     inkscape:window-x="-8"
     inkscape:cy="194.64567"
     inkscape:cx="294.80315"
     inkscape:zoom="1.3614482"
     showborder="false"
     inkscape:document-units="mm"
     showgrid="false"
     id="namedview17"
     inkscape:window-height="697"
     inkscape:window-width="1280"
     inkscape:pageshadow="2"
     inkscape:pageopacity="0"
     guidetolerance="10"
     gridtolerance="10"
     objecttolerance="10"
     borderopacity="1"
     bordercolor="#666666"
     pagecolor="#ffffff" />
  <path
     vector-effect="non-scaling-stroke"
     style="stroke:#000000;stroke-width:0.1;fill:none"
     stroke-width="0.1"
     id="front_outsideCutPath"
     d="M 0 53 L 0 62.25 L 3 62.25 L 3 72.75 L 0 72.75 L 0 83.25 L 3 83.25 L 3 93.75 L 0 93.75 L 0 103 L 9.25 103 L 9.25 100 L 19.75 100 L 19.75 103 L 30.25 103 L 30.25 100 L 40.75 100 L 40.75 103 L 50 103 L 50 93.75 L 47 93.75 L 47 83.25 L 50 83.25 L 50 72.75 L 47 72.75 L 47 62.25 L 50 62.25 L 50 53 L 40.75 53 L 40.75 56 L 30.25 56 L 30.25 53 L 19.75 53 L 19.75 56 L 9.25 56 L 9.25 53 L 0 53 Z" />
  <path
     vector-effect="non-scaling-stroke"
     style="stroke:#FF0000;stroke-width:0.25mm;fill:#FF0000"
     id="front_labelLayer"
     d="M 32.288 81.777 L 31.477 81.777 L 31.477 78.315 A 2.291 2.291 0 0 0 31.451 77.956 Q 31.389 77.565 31.179 77.338 A 0.914 0.914 0 0 0 30.804 77.099 Q 30.569 77.016 30.247 77.016 A 2.453 2.453 0 0 0 29.788 77.056 Q 29.291 77.151 29.016 77.47 Q 28.659 77.885 28.628 78.793 A 5.193 5.193 0 0 0 28.625 78.969 L 28.625 81.777 L 27.815 81.777 L 27.815 76.425 L 28.474 76.425 L 28.606 77.158 L 28.645 77.158 A 1.641 1.641 0 0 1 29.288 76.573 A 1.974 1.974 0 0 1 29.343 76.545 A 2.195 2.195 0 0 1 30.124 76.336 A 2.654 2.654 0 0 1 30.344 76.328 A 3.2 3.2 0 0 1 30.889 76.371 Q 31.46 76.47 31.799 76.794 A 1.405 1.405 0 0 1 32.142 77.331 Q 32.224 77.553 32.26 77.827 A 3.537 3.537 0 0 1 32.288 78.286 L 32.288 81.777 Z M 16.716 76.425 L 16.716 77.055 L 15.354 77.055 L 15.354 81.777 L 14.543 81.777 L 14.543 77.055 L 13.586 77.055 L 13.586 76.689 L 14.543 76.396 L 14.543 76.098 A 3.285 3.285 0 0 1 14.62 75.354 Q 14.907 74.125 16.267 74.125 A 2.61 2.61 0 0 1 16.636 74.154 Q 16.816 74.179 17.016 74.229 A 5.247 5.247 0 0 1 17.263 74.296 L 17.053 74.946 Q 16.72 74.838 16.456 74.807 A 1.743 1.743 0 0 0 16.252 74.794 A 1.093 1.093 0 0 0 15.989 74.824 A 0.702 0.702 0 0 0 15.574 75.1 Q 15.354 75.405 15.354 76.079 L 15.354 76.425 L 16.716 76.425 Z M 36.414 81.108 L 36.414 81.728 A 0.797 0.797 0 0 1 36.319 81.765 Q 36.218 81.799 36.074 81.825 A 3.033 3.033 0 0 1 36.025 81.833 Q 35.769 81.874 35.564 81.874 A 2.117 2.117 0 0 1 34.94 81.79 Q 34.011 81.504 34.011 80.239 L 34.011 77.055 L 33.245 77.055 L 33.245 76.664 L 34.011 76.328 L 34.353 75.185 L 34.822 75.185 L 34.822 76.425 L 36.375 76.425 L 36.375 77.055 L 34.822 77.055 L 34.822 80.204 A 1.632 1.632 0 0 0 34.845 80.491 Q 34.873 80.648 34.935 80.773 A 0.786 0.786 0 0 0 35.051 80.947 Q 35.281 81.205 35.681 81.205 A 2.662 2.662 0 0 0 36.071 81.178 A 2.453 2.453 0 0 0 36.096 81.174 Q 36.296 81.142 36.414 81.108 Z M 20.774 76.386 L 20.662 77.138 Q 20.385 77.077 20.163 77.067 A 1.901 1.901 0 0 0 20.076 77.065 Q 19.426 77.065 18.965 77.592 A 1.851 1.851 0 0 0 18.518 78.631 A 2.46 2.46 0 0 0 18.503 78.906 L 18.503 81.777 L 17.693 81.777 L 17.693 76.425 L 18.362 76.425 L 18.455 77.416 L 18.494 77.416 A 2.737 2.737 0 0 1 18.8 76.979 A 2.091 2.091 0 0 1 19.211 76.611 Q 19.631 76.328 20.134 76.328 A 3.721 3.721 0 0 1 20.467 76.342 A 2.716 2.716 0 0 1 20.774 76.386 Z M 26.32 79.911 A 4.187 4.187 0 0 0 26.394 79.096 Q 26.394 78.576 26.284 78.144 A 2.524 2.524 0 0 0 25.732 77.075 A 2.122 2.122 0 0 0 24.747 76.439 A 2.724 2.724 0 0 0 23.948 76.328 A 3.148 3.148 0 0 0 23.382 76.376 A 2.144 2.144 0 0 0 22.131 77.058 A 2.239 2.239 0 0 0 21.856 77.439 Q 21.477 78.1 21.477 79.096 A 4.055 4.055 0 0 0 21.528 79.753 A 2.998 2.998 0 0 0 21.78 80.571 A 2.664 2.664 0 0 0 21.839 80.686 A 2.194 2.194 0 0 0 22.639 81.537 Q 23.196 81.874 23.914 81.874 A 3.147 3.147 0 0 0 24.463 81.828 A 2.161 2.161 0 0 0 25.735 81.14 A 2.261 2.261 0 0 0 26.004 80.77 Q 26.224 80.394 26.32 79.911 Z M 22.317 79.096 Q 22.317 80.121 22.727 80.659 A 1.328 1.328 0 0 0 23.592 81.168 A 2.013 2.013 0 0 0 23.933 81.196 A 1.883 1.883 0 0 0 24.43 81.134 A 1.31 1.31 0 0 0 25.142 80.661 A 1.74 1.74 0 0 0 25.413 80.133 Q 25.492 79.889 25.527 79.592 A 4.27 4.27 0 0 0 25.554 79.096 A 4.044 4.044 0 0 0 25.516 78.52 Q 25.474 78.226 25.384 77.989 A 1.669 1.669 0 0 0 25.142 77.546 A 1.333 1.333 0 0 0 24.313 77.051 A 2.044 2.044 0 0 0 23.923 77.016 A 1.929 1.929 0 0 0 23.443 77.072 A 1.291 1.291 0 0 0 22.722 77.538 Q 22.317 78.061 22.317 79.096 Z" />
  <path
     vector-effect="non-scaling-stroke"
     style="stroke:#000000;stroke-width:0.1;fill:none"
     stroke-width="0.1"
     id="left_outsideCutPath"
     d="M 56 53 L 56 62.25 L 53 62.25 L 53 72.75 L 56 72.75 L 56 83.25 L 53 83.25 L 53 93.75 L 56 93.75 L 56 103 L 62.25 103 L 62.25 100 L 72.75 100 L 72.75 103 L 83.25 103 L 83.25 100 L 93.75 100 L 93.75 103 L 100 103 L 100 93.75 L 103 93.75 L 103 83.25 L 100 83.25 L 100 72.75 L 103 72.75 L 103 62.25 L 100 62.25 L 100 53 L 93.75 53 L 93.75 56 L 83.25 56 L 83.25 53 L 72.75 53 L 72.75 56 L 62.25 56 L 62.25 53 L 56 53 Z" />
  <path
     vector-effect="non-scaling-stroke"
     style="stroke:#FF0000;stroke-width:0.25mm;fill:#FF0000"
     id="left_labelLayer"
     d="M 81.557 76.425 L 81.557 77.055 L 80.195 77.055 L 80.195 81.777 L 79.384 81.777 L 79.384 77.055 L 78.427 77.055 L 78.427 76.689 L 79.384 76.396 L 79.384 76.098 A 3.285 3.285 0 0 1 79.461 75.354 Q 79.748 74.125 81.108 74.125 A 2.61 2.61 0 0 1 81.477 74.154 Q 81.657 74.179 81.857 74.229 A 5.247 5.247 0 0 1 82.104 74.296 L 81.894 74.946 Q 81.561 74.838 81.297 74.807 A 1.743 1.743 0 0 0 81.093 74.794 A 1.093 1.093 0 0 0 80.83 74.824 A 0.702 0.702 0 0 0 80.415 75.1 Q 80.195 75.405 80.195 76.079 L 80.195 76.425 L 81.557 76.425 Z M 77.763 78.735 L 77.763 79.247 L 74.077 79.247 Q 74.093 79.891 74.309 80.323 A 1.522 1.522 0 0 0 74.553 80.678 A 1.473 1.473 0 0 0 75.326 81.114 A 2.232 2.232 0 0 0 75.825 81.166 A 4.281 4.281 0 0 0 77.428 80.849 A 4.905 4.905 0 0 0 77.534 80.805 L 77.534 81.528 A 4.866 4.866 0 0 1 77.09 81.695 A 3.721 3.721 0 0 1 76.721 81.794 Q 76.337 81.874 75.795 81.874 A 3.15 3.15 0 0 1 75.007 81.781 A 2.23 2.23 0 0 1 73.923 81.152 Q 73.276 80.471 73.239 79.291 A 4.63 4.63 0 0 1 73.237 79.145 A 4.256 4.256 0 0 1 73.316 78.301 Q 73.419 77.788 73.66 77.389 A 2.4 2.4 0 0 1 73.874 77.089 A 2.077 2.077 0 0 1 75.388 76.334 A 2.865 2.865 0 0 1 75.585 76.328 A 2.469 2.469 0 0 1 76.281 76.421 A 1.879 1.879 0 0 1 77.177 76.989 A 2.266 2.266 0 0 1 77.691 78.025 A 3.299 3.299 0 0 1 77.763 78.735 Z M 84.995 81.108 L 84.995 81.728 A 0.797 0.797 0 0 1 84.9 81.765 Q 84.799 81.799 84.655 81.825 A 3.033 3.033 0 0 1 84.606 81.833 Q 84.35 81.874 84.145 81.874 A 2.117 2.117 0 0 1 83.521 81.79 Q 82.592 81.504 82.592 80.239 L 82.592 77.055 L 81.826 77.055 L 81.826 76.664 L 82.592 76.328 L 82.934 75.185 L 83.403 75.185 L 83.403 76.425 L 84.956 76.425 L 84.956 77.055 L 83.403 77.055 L 83.403 80.204 A 1.632 1.632 0 0 0 83.426 80.491 Q 83.454 80.648 83.516 80.773 A 0.786 0.786 0 0 0 83.632 80.947 Q 83.862 81.205 84.262 81.205 A 2.662 2.662 0 0 0 84.652 81.178 A 2.453 2.453 0 0 0 84.677 81.174 Q 84.877 81.142 84.995 81.108 Z M 71.816 74.179 L 71.816 81.777 L 71.005 81.777 L 71.005 74.179 L 71.816 74.179 Z M 74.096 78.588 L 76.894 78.588 Q 76.894 78.07 76.738 77.715 A 1.254 1.254 0 0 0 76.552 77.414 A 1.11 1.11 0 0 0 75.884 77.033 A 1.666 1.666 0 0 0 75.576 77.006 Q 74.931 77.006 74.548 77.426 A 1.601 1.601 0 0 0 74.229 77.963 Q 74.128 78.24 74.096 78.588 Z" />
  <path
     vector-effect="non-scaling-stroke"
     style="stroke:#000000;stroke-width:0.1;fill:none"
     stroke-width="0.1"
     id="top_outsideCutPath"
     d="M 109 56 L 109 62.25 L 106 62.25 L 106 72.75 L 109 72.75 L 109 83.25 L 106 83.25 L 106 93.75 L 109 93.75 L 109 100 L 115.25 100 L 115.25 103 L 125.75 103 L 125.75 100 L 136.25 100 L 136.25 103 L 146.75 103 L 146.75 100 L 153 100 L 153 93.75 L 156 93.75 L 156 83.25 L 153 83.25 L 153 72.75 L 156 72.75 L 156 62.25 L 153 62.25 L 153 56 L 146.75 56 L 146.75 53 L 136.25 53 L 136.25 56 L 125.75 56 L 125.75 53 L 115.25 53 L 115.25 56 L 109 56 Z" />
  <path
     vector-effect="non-scaling-stroke"
     style="stroke:#FF0000;stroke-width:0.25mm;fill:#FF0000"
     id="top_labelLayer"
     d="M 134.594 79.406 L 134.535 79.406 A 7.671 7.671 0 0 1 134.585 79.973 A 6.428 6.428 0 0 1 134.594 80.295 L 134.594 82.497 L 133.783 82.497 L 133.783 74.743 L 134.442 74.743 L 134.555 75.476 L 134.594 75.476 A 2.182 2.182 0 0 1 134.909 75.117 A 1.687 1.687 0 0 1 135.321 74.841 A 2.03 2.03 0 0 1 135.903 74.671 A 2.627 2.627 0 0 1 136.273 74.646 A 2.485 2.485 0 0 1 136.975 74.739 A 1.836 1.836 0 0 1 137.916 75.373 Q 138.495 76.101 138.495 77.414 A 4.752 4.752 0 0 1 138.432 78.214 Q 138.359 78.64 138.202 78.982 A 2.278 2.278 0 0 1 137.907 79.462 A 1.919 1.919 0 0 1 136.543 80.18 A 2.749 2.749 0 0 1 136.273 80.192 Q 135.751 80.192 135.319 80 A 1.795 1.795 0 0 1 134.594 79.406 Z M 126.674 79.426 L 126.674 80.046 A 0.797 0.797 0 0 1 126.579 80.083 Q 126.478 80.117 126.334 80.143 A 3.033 3.033 0 0 1 126.286 80.151 Q 126.029 80.192 125.824 80.192 A 2.117 2.117 0 0 1 125.2 80.108 Q 124.271 79.822 124.271 78.557 L 124.271 75.373 L 123.505 75.373 L 123.505 74.982 L 124.271 74.646 L 124.613 73.503 L 125.082 73.503 L 125.082 74.743 L 126.635 74.743 L 126.635 75.373 L 125.082 75.373 L 125.082 78.522 A 1.632 1.632 0 0 0 125.106 78.809 Q 125.134 78.966 125.195 79.091 A 0.786 0.786 0 0 0 125.311 79.265 Q 125.541 79.523 125.941 79.523 A 2.662 2.662 0 0 0 126.331 79.496 A 2.453 2.453 0 0 0 126.356 79.492 Q 126.557 79.46 126.674 79.426 Z M 132.288 78.229 A 4.187 4.187 0 0 0 132.362 77.414 Q 132.362 76.894 132.252 76.461 A 2.524 2.524 0 0 0 131.701 75.393 A 2.122 2.122 0 0 0 130.716 74.757 A 2.724 2.724 0 0 0 129.916 74.646 A 3.148 3.148 0 0 0 129.351 74.694 A 2.144 2.144 0 0 0 128.1 75.375 A 2.239 2.239 0 0 0 127.825 75.757 Q 127.445 76.418 127.445 77.414 A 4.055 4.055 0 0 0 127.496 78.071 A 2.998 2.998 0 0 0 127.748 78.889 A 2.664 2.664 0 0 0 127.807 79.004 A 2.194 2.194 0 0 0 128.607 79.855 Q 129.164 80.192 129.882 80.192 A 3.147 3.147 0 0 0 130.431 80.146 A 2.161 2.161 0 0 0 131.703 79.458 A 2.261 2.261 0 0 0 131.972 79.088 Q 132.192 78.712 132.288 78.229 Z M 128.285 77.414 Q 128.285 78.439 128.695 78.977 A 1.328 1.328 0 0 0 129.56 79.486 A 2.013 2.013 0 0 0 129.901 79.514 A 1.883 1.883 0 0 0 130.398 79.452 A 1.31 1.31 0 0 0 131.11 78.979 A 1.74 1.74 0 0 0 131.381 78.451 Q 131.46 78.207 131.495 77.91 A 4.27 4.27 0 0 0 131.522 77.414 A 4.044 4.044 0 0 0 131.484 76.838 Q 131.442 76.544 131.353 76.307 A 1.669 1.669 0 0 0 131.11 75.864 A 1.333 1.333 0 0 0 130.281 75.369 A 2.044 2.044 0 0 0 129.892 75.334 A 1.929 1.929 0 0 0 129.411 75.39 A 1.291 1.291 0 0 0 128.69 75.856 Q 128.285 76.379 128.285 77.414 Z M 134.594 77.233 L 134.594 77.414 A 5.359 5.359 0 0 0 134.62 77.968 Q 134.679 78.527 134.865 78.867 A 1.222 1.222 0 0 0 134.97 79.028 A 1.176 1.176 0 0 0 135.566 79.43 Q 135.766 79.493 136.009 79.508 A 2.606 2.606 0 0 0 136.176 79.514 A 1.366 1.366 0 0 0 136.707 79.414 Q 137.035 79.277 137.262 78.952 A 1.96 1.96 0 0 0 137.531 78.38 Q 137.609 78.117 137.638 77.802 A 4.318 4.318 0 0 0 137.655 77.404 Q 137.655 76.747 137.486 76.291 A 1.718 1.718 0 0 0 137.262 75.869 A 1.261 1.261 0 0 0 136.34 75.343 A 1.744 1.744 0 0 0 136.156 75.334 Q 135.336 75.334 134.97 75.788 Q 134.627 76.213 134.596 77.109 A 5.158 5.158 0 0 0 134.594 77.233 Z" />
  <path
     vector-effect="non-scaling-stroke"
     style="stroke:#000000;stroke-width:0.1;fill:none"
     stroke-width="0.1"
     id="back_outsideCutPath"
     d="M 0 0 L 0 9.25 L 3 9.25 L 3 19.75 L 0 19.75 L 0 30.25 L 3 30.25 L 3 40.75 L 0 40.75 L 0 50 L 9.25 50 L 9.25 47 L 19.75 47 L 19.75 50 L 30.25 50 L 30.25 47 L 40.75 47 L 40.75 50 L 50 50 L 50 40.75 L 47 40.75 L 47 30.25 L 50 30.25 L 50 19.75 L 47 19.75 L 47 9.25 L 50 9.25 L 50 0 L 40.75 0 L 40.75 3 L 30.25 3 L 30.25 0 L 19.75 0 L 19.75 3 L 9.25 3 L 9.25 0 L 0 0 Z" />
  <path
     vector-effect="non-scaling-stroke"
     style="stroke:#FF0000;stroke-width:0.25mm;fill:#FF0000"
     id="back_labelLayer"
     d="M 31.846 26.011 L 31.885 26.011 A 4.798 4.798 0 0 1 32.003 25.85 Q 32.14 25.673 32.335 25.446 A 17.416 17.416 0 0 1 32.524 25.229 L 34.253 23.398 L 35.215 23.398 L 33.047 25.679 L 35.366 28.75 L 34.385 28.75 L 32.495 26.221 L 31.885 26.748 L 31.885 28.75 L 31.084 28.75 L 31.084 21.152 L 31.885 21.152 L 31.885 25.181 A 5.402 5.402 0 0 1 31.882 25.333 Q 31.875 25.583 31.847 25.99 A 33.76 33.76 0 0 1 31.846 26.011 Z M 15.444 28.061 L 15.386 28.061 L 15.215 28.75 L 14.634 28.75 L 14.634 21.152 L 15.444 21.152 L 15.444 22.998 Q 15.444 23.598 15.408 24.079 A 10.075 10.075 0 0 1 15.405 24.111 L 15.444 24.111 A 1.843 1.843 0 0 1 16.789 23.33 A 2.768 2.768 0 0 1 17.124 23.31 A 2.477 2.477 0 0 1 17.821 23.404 A 1.854 1.854 0 0 1 18.762 24.031 Q 19.229 24.607 19.323 25.568 A 5.203 5.203 0 0 1 19.346 26.069 A 4.752 4.752 0 0 1 19.283 26.869 Q 19.21 27.295 19.053 27.637 A 2.278 2.278 0 0 1 18.757 28.118 A 1.919 1.919 0 0 1 17.394 28.835 A 2.749 2.749 0 0 1 17.124 28.848 Q 16.602 28.848 16.169 28.655 A 1.795 1.795 0 0 1 15.444 28.061 Z M 24.653 28.75 L 24.053 28.75 L 23.892 27.988 L 23.853 27.988 A 3.36 3.36 0 0 1 23.581 28.293 Q 23.317 28.552 23.054 28.669 A 1.869 1.869 0 0 1 22.668 28.791 Q 22.396 28.848 22.061 28.848 A 2.487 2.487 0 0 1 21.554 28.799 Q 21.245 28.735 21.007 28.585 A 1.396 1.396 0 0 1 20.813 28.437 A 1.332 1.332 0 0 1 20.411 27.735 A 2.039 2.039 0 0 1 20.361 27.27 A 1.403 1.403 0 0 1 21.159 25.947 Q 21.8 25.606 22.954 25.571 L 23.862 25.542 L 23.862 25.21 A 2.328 2.328 0 0 0 23.84 24.873 Q 23.814 24.701 23.761 24.563 A 0.905 0.905 0 0 0 23.591 24.28 Q 23.375 24.04 22.952 23.992 A 2.003 2.003 0 0 0 22.725 23.979 A 2.639 2.639 0 0 0 22.117 24.055 Q 21.839 24.121 21.535 24.245 A 5.428 5.428 0 0 0 21.211 24.39 L 20.962 23.769 A 3.737 3.737 0 0 1 21.683 23.473 A 4.254 4.254 0 0 1 21.829 23.433 A 3.754 3.754 0 0 1 22.773 23.31 A 3.423 3.423 0 0 1 23.295 23.347 Q 23.867 23.436 24.192 23.735 A 1.284 1.284 0 0 1 24.523 24.246 Q 24.6 24.456 24.632 24.717 A 3.189 3.189 0 0 1 24.653 25.098 L 24.653 28.75 Z M 29.893 23.579 L 29.644 24.268 A 3.606 3.606 0 0 0 29.252 24.137 A 4.306 4.306 0 0 0 29.058 24.089 Q 28.786 24.029 28.568 24.02 A 1.797 1.797 0 0 0 28.496 24.018 A 1.798 1.798 0 0 0 27.766 24.156 Q 26.865 24.553 26.865 26.099 A 3.925 3.925 0 0 0 26.904 26.67 Q 26.947 26.96 27.037 27.195 A 1.681 1.681 0 0 0 27.263 27.612 A 1.287 1.287 0 0 0 28.097 28.111 A 1.961 1.961 0 0 0 28.442 28.14 A 3.393 3.393 0 0 0 29.378 28.003 A 4.189 4.189 0 0 0 29.814 27.852 L 29.814 28.569 A 2.306 2.306 0 0 1 29.25 28.769 Q 28.99 28.827 28.687 28.842 A 4.445 4.445 0 0 1 28.462 28.848 A 3.029 3.029 0 0 1 27.725 28.763 A 2.054 2.054 0 0 1 26.663 28.132 A 2.345 2.345 0 0 1 26.175 27.237 Q 26.067 26.881 26.037 26.454 A 4.901 4.901 0 0 1 26.025 26.108 A 4.472 4.472 0 0 1 26.095 25.295 Q 26.179 24.841 26.365 24.484 A 2.235 2.235 0 0 1 26.672 24.033 A 2.099 2.099 0 0 1 27.822 23.372 A 3.182 3.182 0 0 1 28.516 23.301 Q 28.901 23.301 29.287 23.384 A 4.046 4.046 0 0 1 29.512 23.438 Q 29.742 23.502 29.893 23.579 Z M 16.124 24.19 A 1.078 1.078 0 0 0 15.811 24.465 Q 15.444 24.941 15.444 26.069 A 5.359 5.359 0 0 0 15.471 26.623 Q 15.529 27.182 15.716 27.522 A 1.222 1.222 0 0 0 15.82 27.683 A 1.176 1.176 0 0 0 16.417 28.086 Q 16.616 28.148 16.859 28.164 A 2.606 2.606 0 0 0 17.026 28.169 A 1.616 1.616 0 0 0 17.485 28.107 A 1.166 1.166 0 0 0 18.14 27.624 Q 18.506 27.08 18.506 26.06 A 4.789 4.789 0 0 0 18.477 25.514 Q 18.403 24.87 18.14 24.502 Q 17.773 23.989 17.007 23.989 Q 16.467 23.989 16.124 24.19 Z M 23.843 26.602 L 23.843 26.118 L 23.032 26.152 Q 22.065 26.186 21.638 26.453 A 0.865 0.865 0 0 0 21.226 27.08 A 1.28 1.28 0 0 0 21.211 27.28 A 1.158 1.158 0 0 0 21.24 27.546 Q 21.288 27.75 21.417 27.891 A 0.722 0.722 0 0 0 21.477 27.949 A 0.882 0.882 0 0 0 21.808 28.125 Q 21.938 28.163 22.095 28.174 A 1.823 1.823 0 0 0 22.222 28.179 A 2.232 2.232 0 0 0 22.704 28.13 Q 23.039 28.055 23.287 27.869 A 1.353 1.353 0 0 0 23.411 27.764 Q 23.843 27.349 23.843 26.602 Z" />
  <path
     vector-effect="non-scaling-stroke"
     style="stroke:#000000;stroke-width:0.1;fill:none"
     stroke-width="0.1"
     id="right_outsideCutPath"
     d="M 56 0 L 56 9.25 L 53 9.25 L 53 19.75 L 56 19.75 L 56 30.25 L 53 30.25 L 53 40.75 L 56 40.75 L 56 50 L 62.25 50 L 62.25 47 L 72.75 47 L 72.75 50 L 83.25 50 L 83.25 47 L 93.75 47 L 93.75 50 L 100 50 L 100 40.75 L 103 40.75 L 103 30.25 L 100 30.25 L 100 19.75 L 103 19.75 L 103 9.25 L 100 9.25 L 100 0 L 93.75 0 L 93.75 3 L 83.25 3 L 83.25 0 L 72.75 0 L 72.75 3 L 62.25 3 L 62.25 0 L 56 0 Z" />
  <path
     vector-effect="non-scaling-stroke"
     style="stroke:#FF0000;stroke-width:0.25mm;fill:#FF0000"
     id="right_labelLayer"
     d="M 84.218 27.598 L 83.408 27.598 L 83.408 24.136 A 2.291 2.291 0 0 0 83.381 23.776 Q 83.319 23.386 83.11 23.159 A 0.914 0.914 0 0 0 82.735 22.92 Q 82.5 22.837 82.177 22.837 A 2.453 2.453 0 0 0 81.719 22.877 Q 81.464 22.925 81.269 23.033 A 1.135 1.135 0 0 0 80.944 23.296 A 1.349 1.349 0 0 0 80.715 23.701 Q 80.577 24.073 80.559 24.625 A 5.231 5.231 0 0 0 80.556 24.8 L 80.556 27.598 L 79.746 27.598 L 79.746 20 L 80.556 20 L 80.556 22.3 A 7.291 7.291 0 0 1 80.551 22.58 Q 80.546 22.711 80.536 22.824 A 3.171 3.171 0 0 1 80.517 22.988 L 80.566 22.988 A 1.619 1.619 0 0 1 81.133 22.442 A 1.978 1.978 0 0 1 81.247 22.38 A 2.081 2.081 0 0 1 81.93 22.178 A 2.631 2.631 0 0 1 82.255 22.158 A 3.288 3.288 0 0 1 82.808 22.201 Q 83.102 22.252 83.334 22.36 A 1.461 1.461 0 0 1 83.728 22.624 A 1.411 1.411 0 0 1 84.076 23.171 Q 84.218 23.559 84.218 24.106 L 84.218 27.598 Z M 76.796 22.246 L 78.647 22.246 L 78.647 22.759 L 77.656 22.876 Q 77.792 23.047 77.9 23.323 Q 78.007 23.599 78.007 23.945 A 1.858 1.858 0 0 1 77.922 24.521 A 1.503 1.503 0 0 1 77.47 25.2 Q 76.986 25.622 76.178 25.664 A 3.521 3.521 0 0 1 75.996 25.669 A 2.605 2.605 0 0 1 75.694 25.652 A 2.2 2.2 0 0 1 75.546 25.63 A 1.442 1.442 0 0 0 75.314 25.78 Q 75.194 25.877 75.124 25.988 A 0.61 0.61 0 0 0 75.029 26.318 Q 75.029 26.538 75.209 26.643 Q 75.39 26.748 75.83 26.748 L 76.777 26.748 A 3.318 3.318 0 0 1 77.281 26.784 Q 77.544 26.824 77.757 26.911 A 1.465 1.465 0 0 1 78.112 27.114 A 1.186 1.186 0 0 1 78.553 27.87 A 1.781 1.781 0 0 1 78.579 28.179 Q 78.579 29.067 77.866 29.534 Q 77.369 29.859 76.553 29.957 A 6.424 6.424 0 0 1 75.786 30 A 4.541 4.541 0 0 1 75.176 29.962 Q 74.558 29.878 74.167 29.609 A 1.292 1.292 0 0 1 73.751 29.157 Q 73.617 28.91 73.601 28.597 A 1.711 1.711 0 0 1 73.598 28.506 A 1.239 1.239 0 0 1 73.911 27.661 Q 74.223 27.305 74.79 27.178 A 0.841 0.841 0 0 1 74.463 26.914 A 0.999 0.999 0 0 1 74.445 26.89 A 0.751 0.751 0 0 1 74.307 26.483 A 0.931 0.931 0 0 1 74.306 26.436 A 0.927 0.927 0 0 1 74.353 26.137 A 0.821 0.821 0 0 1 74.462 25.923 A 1.16 1.16 0 0 1 74.616 25.75 Q 74.697 25.674 74.802 25.599 A 2.546 2.546 0 0 1 74.956 25.498 A 1.421 1.421 0 0 1 74.338 25.004 A 1.761 1.761 0 0 1 74.279 24.917 A 1.676 1.676 0 0 1 74.022 24.109 A 2.045 2.045 0 0 1 74.018 23.979 Q 74.018 23.101 74.545 22.624 A 1.721 1.721 0 0 1 75.206 22.26 Q 75.469 22.18 75.784 22.157 A 3.58 3.58 0 0 1 76.04 22.148 A 3.107 3.107 0 0 1 76.451 22.174 A 2.366 2.366 0 0 1 76.796 22.246 Z M 88.344 26.929 L 88.344 27.549 A 0.797 0.797 0 0 1 88.25 27.586 Q 88.149 27.62 88.004 27.646 A 3.033 3.033 0 0 1 87.956 27.654 Q 87.7 27.695 87.495 27.695 A 2.117 2.117 0 0 1 86.871 27.611 Q 85.942 27.325 85.942 26.06 L 85.942 22.876 L 85.175 22.876 L 85.175 22.485 L 85.942 22.148 L 86.284 21.006 L 86.752 21.006 L 86.752 22.246 L 88.305 22.246 L 88.305 22.876 L 86.752 22.876 L 86.752 26.025 A 1.632 1.632 0 0 0 86.776 26.312 Q 86.804 26.469 86.866 26.594 A 0.786 0.786 0 0 0 86.982 26.768 Q 87.211 27.026 87.612 27.026 A 2.662 2.662 0 0 0 88.002 26.998 A 2.453 2.453 0 0 0 88.027 26.995 Q 88.227 26.963 88.344 26.929 Z M 70.737 22.207 L 70.625 22.959 Q 70.348 22.898 70.126 22.888 A 1.901 1.901 0 0 0 70.039 22.886 Q 69.389 22.886 68.928 23.413 A 1.851 1.851 0 0 0 68.481 24.452 A 2.46 2.46 0 0 0 68.466 24.727 L 68.466 27.598 L 67.656 27.598 L 67.656 22.246 L 68.325 22.246 L 68.417 23.237 L 68.457 23.237 A 2.737 2.737 0 0 1 68.763 22.8 A 2.091 2.091 0 0 1 69.174 22.432 Q 69.594 22.148 70.097 22.148 A 3.721 3.721 0 0 1 70.43 22.163 A 2.716 2.716 0 0 1 70.737 22.207 Z M 72.548 22.246 L 72.548 27.598 L 71.738 27.598 L 71.738 22.246 L 72.548 22.246 Z M 76.518 27.476 L 75.546 27.476 A 1.863 1.863 0 0 0 75.211 27.504 Q 74.894 27.562 74.687 27.739 Q 74.379 28.003 74.379 28.496 A 0.814 0.814 0 0 0 74.433 28.798 Q 74.52 29.017 74.746 29.155 Q 75.112 29.38 75.795 29.38 A 5.449 5.449 0 0 0 76.328 29.356 Q 76.861 29.303 77.196 29.136 A 1.346 1.346 0 0 0 77.307 29.075 Q 77.797 28.77 77.797 28.247 A 1.097 1.097 0 0 0 77.777 28.029 Q 77.724 27.766 77.529 27.644 A 0.769 0.769 0 0 0 77.347 27.564 Q 77.057 27.476 76.518 27.476 Z M 74.819 23.96 A 1.582 1.582 0 0 0 74.851 24.292 Q 74.921 24.614 75.136 24.81 Q 75.454 25.098 76.02 25.098 Q 76.957 25.098 77.154 24.379 A 1.642 1.642 0 0 0 77.207 23.945 Q 77.207 22.988 76.45 22.791 A 1.763 1.763 0 0 0 76.005 22.739 Q 75.568 22.739 75.285 22.92 A 0.933 0.933 0 0 0 75.126 23.047 Q 74.865 23.308 74.826 23.783 A 2.132 2.132 0 0 0 74.819 23.96 Z M 71.806 20.388 A 0.379 0.379 0 0 0 71.722 20.507 Q 71.669 20.623 71.669 20.796 Q 71.669 20.934 71.704 21.036 A 0.418 0.418 0 0 0 71.806 21.204 Q 71.943 21.338 72.148 21.338 A 0.473 0.473 0 0 0 72.485 21.204 A 0.396 0.396 0 0 0 72.562 21.101 Q 72.597 21.035 72.613 20.95 A 0.839 0.839 0 0 0 72.626 20.796 A 0.927 0.927 0 0 0 72.622 20.708 Q 72.603 20.5 72.485 20.391 A 0.478 0.478 0 0 0 72.148 20.259 A 0.619 0.619 0 0 0 72.107 20.26 A 0.469 0.469 0 0 0 71.806 20.388 Z" />
  <path
     vector-effect="non-scaling-stroke"
     style="stroke:#000000;stroke-width:0.1;fill:none"
     stroke-width="0.1"
     id="bottom_outsideCutPath"
     d="M 109 3 L 109 9.25 L 106 9.25 L 106 19.75 L 109 19.75 L 109 30.25 L 106 30.25 L 106 40.75 L 109 40.75 L 109 47 L 115.25 47 L 115.25 50 L 125.75 50 L 125.75 47 L 136.25 47 L 136.25 50 L 146.75 50 L 146.75 47 L 153 47 L 153 40.75 L 156 40.75 L 156 30.25 L 153 30.25 L 153 19.75 L 156 19.75 L 156 9.25 L 153 9.25 L 153 3 L 146.75 3 L 146.75 0 L 136.25 0 L 136.25 3 L 125.75 3 L 125.75 0 L 115.25 0 L 115.25 3 L 109 3 Z" />
  <path
     vector-effect="non-scaling-stroke"
     style="stroke:#FF0000;stroke-width:0.25mm;fill:#FF0000"
     id="bottom_labelLayer"
     d="M 147.45 28.75 L 146.64 28.75 L 146.64 25.268 Q 146.64 24.868 146.532 24.593 A 0.98 0.98 0 0 0 146.366 24.309 A 0.853 0.853 0 0 0 145.97 24.053 Q 145.773 23.989 145.517 23.989 A 2.086 2.086 0 0 0 145.092 24.029 Q 144.65 24.122 144.398 24.424 Q 144.039 24.856 144.037 25.753 A 4.551 4.551 0 0 0 144.037 25.762 L 144.037 28.75 L 143.227 28.75 L 143.227 25.268 Q 143.227 24.868 143.119 24.593 A 0.98 0.98 0 0 0 142.953 24.309 A 0.85 0.85 0 0 0 142.562 24.055 Q 142.421 24.009 142.249 23.995 A 1.898 1.898 0 0 0 142.099 23.989 A 2.013 2.013 0 0 0 141.682 24.029 Q 141.232 24.125 140.983 24.446 Q 140.662 24.859 140.632 25.752 A 5.643 5.643 0 0 0 140.629 25.942 L 140.629 28.75 L 139.818 28.75 L 139.818 23.398 L 140.478 23.398 L 140.609 24.131 L 140.648 24.131 A 1.593 1.593 0 0 1 141.295 23.52 A 1.924 1.924 0 0 1 142.055 23.307 A 2.324 2.324 0 0 1 142.23 23.301 A 2.654 2.654 0 0 1 142.828 23.363 Q 143.586 23.538 143.871 24.209 L 143.91 24.209 A 1.692 1.692 0 0 1 144.548 23.576 A 2.033 2.033 0 0 1 144.603 23.545 A 2.051 2.051 0 0 1 145.356 23.316 A 2.558 2.558 0 0 1 145.639 23.301 Q 146.251 23.301 146.656 23.513 A 1.336 1.336 0 0 1 146.999 23.767 Q 147.327 24.106 147.417 24.742 A 3.718 3.718 0 0 1 147.45 25.259 L 147.45 28.75 Z M 115.36 28.061 L 115.302 28.061 L 115.131 28.75 L 114.55 28.75 L 114.55 21.152 L 115.36 21.152 L 115.36 22.998 Q 115.36 23.598 115.324 24.079 A 10.075 10.075 0 0 1 115.321 24.111 L 115.36 24.111 A 1.843 1.843 0 0 1 116.705 23.33 A 2.768 2.768 0 0 1 117.04 23.31 A 2.477 2.477 0 0 1 117.737 23.403 A 1.854 1.854 0 0 1 118.678 24.031 Q 119.145 24.607 119.239 25.568 A 5.203 5.203 0 0 1 119.262 26.069 A 4.752 4.752 0 0 1 119.199 26.869 Q 119.126 27.295 118.969 27.637 A 2.278 2.278 0 0 1 118.673 28.118 A 1.919 1.919 0 0 1 117.31 28.835 A 2.749 2.749 0 0 1 117.04 28.848 Q 116.518 28.848 116.085 28.655 A 1.795 1.795 0 0 1 115.36 28.061 Z M 129.179 28.081 L 129.179 28.701 A 0.797 0.797 0 0 1 129.084 28.739 Q 128.983 28.772 128.839 28.798 A 3.033 3.033 0 0 1 128.791 28.806 Q 128.534 28.848 128.329 28.848 A 2.117 2.117 0 0 1 127.705 28.764 Q 126.776 28.477 126.776 27.212 L 126.776 24.028 L 126.01 24.028 L 126.01 23.638 L 126.776 23.301 L 127.118 22.158 L 127.587 22.158 L 127.587 23.398 L 129.14 23.398 L 129.14 24.028 L 127.587 24.028 L 127.587 27.178 A 1.632 1.632 0 0 0 127.61 27.464 Q 127.639 27.622 127.7 27.746 A 0.786 0.786 0 0 0 127.816 27.92 Q 128.046 28.179 128.446 28.179 A 2.662 2.662 0 0 0 128.836 28.151 A 2.453 2.453 0 0 0 128.861 28.147 Q 129.061 28.115 129.179 28.081 Z M 132.709 28.081 L 132.709 28.701 A 0.797 0.797 0 0 1 132.614 28.739 Q 132.514 28.772 132.369 28.798 A 3.033 3.033 0 0 1 132.321 28.806 Q 132.064 28.848 131.859 28.848 A 2.117 2.117 0 0 1 131.235 28.764 Q 130.307 28.477 130.307 27.212 L 130.307 24.028 L 129.54 24.028 L 129.54 23.638 L 130.307 23.301 L 130.648 22.158 L 131.117 22.158 L 131.117 23.398 L 132.67 23.398 L 132.67 24.028 L 131.117 24.028 L 131.117 27.178 A 1.632 1.632 0 0 0 131.141 27.464 Q 131.169 27.622 131.23 27.746 A 0.786 0.786 0 0 0 131.347 27.92 Q 131.576 28.179 131.977 28.179 A 2.662 2.662 0 0 0 132.366 28.151 A 2.453 2.453 0 0 0 132.392 28.147 Q 132.592 28.115 132.709 28.081 Z M 125.222 26.884 A 4.187 4.187 0 0 0 125.297 26.069 Q 125.297 25.549 125.187 25.117 A 2.524 2.524 0 0 0 124.635 24.048 A 2.122 2.122 0 0 0 123.65 23.412 A 2.724 2.724 0 0 0 122.851 23.301 A 3.148 3.148 0 0 0 122.285 23.349 A 2.144 2.144 0 0 0 121.034 24.031 A 2.239 2.239 0 0 0 120.759 24.412 Q 120.38 25.073 120.38 26.069 A 4.055 4.055 0 0 0 120.431 26.726 A 2.998 2.998 0 0 0 120.683 27.544 A 2.664 2.664 0 0 0 120.742 27.659 A 2.194 2.194 0 0 0 121.542 28.511 Q 122.099 28.848 122.816 28.848 A 3.147 3.147 0 0 0 123.366 28.802 A 2.161 2.161 0 0 0 124.638 28.113 A 2.261 2.261 0 0 0 124.907 27.743 Q 125.127 27.367 125.222 26.884 Z M 138.323 26.884 A 4.187 4.187 0 0 0 138.397 26.069 Q 138.397 25.549 138.287 25.117 A 2.524 2.524 0 0 0 137.736 24.048 A 2.122 2.122 0 0 0 136.751 23.412 A 2.724 2.724 0 0 0 135.951 23.301 A 3.148 3.148 0 0 0 135.386 23.349 A 2.144 2.144 0 0 0 134.135 24.031 A 2.239 2.239 0 0 0 133.86 24.412 Q 133.48 25.073 133.48 26.069 A 4.055 4.055 0 0 0 133.531 26.726 A 2.998 2.998 0 0 0 133.783 27.544 A 2.664 2.664 0 0 0 133.842 27.659 A 2.194 2.194 0 0 0 134.643 28.511 Q 135.199 28.848 135.917 28.848 A 3.147 3.147 0 0 0 136.467 28.802 A 2.161 2.161 0 0 0 137.738 28.113 A 2.261 2.261 0 0 0 138.007 27.743 Q 138.227 27.367 138.323 26.884 Z M 121.22 26.069 Q 121.22 27.095 121.63 27.632 A 1.328 1.328 0 0 0 122.495 28.141 A 2.013 2.013 0 0 0 122.836 28.169 A 1.883 1.883 0 0 0 123.333 28.107 A 1.31 1.31 0 0 0 124.044 27.634 A 1.74 1.74 0 0 0 124.315 27.106 Q 124.395 26.863 124.43 26.565 A 4.27 4.27 0 0 0 124.457 26.069 A 4.044 4.044 0 0 0 124.419 25.493 Q 124.376 25.2 124.287 24.962 A 1.669 1.669 0 0 0 124.044 24.519 A 1.333 1.333 0 0 0 123.215 24.024 A 2.044 2.044 0 0 0 122.826 23.989 A 1.929 1.929 0 0 0 122.346 24.045 A 1.291 1.291 0 0 0 121.625 24.512 Q 121.22 25.034 121.22 26.069 Z M 134.32 26.069 Q 134.32 27.095 134.73 27.632 A 1.328 1.328 0 0 0 135.596 28.141 A 2.013 2.013 0 0 0 135.936 28.169 A 1.883 1.883 0 0 0 136.433 28.107 A 1.31 1.31 0 0 0 137.145 27.634 A 1.74 1.74 0 0 0 137.416 27.106 Q 137.496 26.863 137.53 26.565 A 4.27 4.27 0 0 0 137.558 26.069 A 4.044 4.044 0 0 0 137.519 25.493 Q 137.477 25.2 137.388 24.962 A 1.669 1.669 0 0 0 137.145 24.519 A 1.333 1.333 0 0 0 136.316 24.024 A 2.044 2.044 0 0 0 135.927 23.989 A 1.929 1.929 0 0 0 135.446 24.045 A 1.291 1.291 0 0 0 134.726 24.512 Q 134.32 25.034 134.32 26.069 Z M 116.04 24.19 A 1.078 1.078 0 0 0 115.727 24.465 Q 115.36 24.941 115.36 26.069 A 5.359 5.359 0 0 0 115.387 26.623 Q 115.445 27.182 115.632 27.522 A 1.222 1.222 0 0 0 115.736 27.683 A 1.176 1.176 0 0 0 116.333 28.086 Q 116.532 28.148 116.775 28.164 A 2.606 2.606 0 0 0 116.942 28.169 A 1.616 1.616 0 0 0 117.401 28.107 A 1.166 1.166 0 0 0 118.056 27.624 Q 118.422 27.08 118.422 26.059 A 4.789 4.789 0 0 0 118.393 25.514 Q 118.319 24.87 118.056 24.502 Q 117.689 23.989 116.923 23.989 Q 116.383 23.989 116.04 24.19 Z" />
</svg>
