0
SECTION
2
HEADER
9
$INSUNITS
70
1
0
ENDSEC
0
SECTION
2
TABLES
0
TABLE
2
LAYER
0
ENDTAB
0
ENDSEC
0
SECTION
2
ENTITIES
0
LINE
8
front_outsideCutPath
10
0
20
53
11
0
21
43.75
0
LINE
8
front_outsideCutPath
10
0
20
43.75
11
3
21
43.75
0
LINE
8
front_outsideCutPath
10
3
20
43.75
11
3
21
33.25
0
LINE
8
front_outsideCutPath
10
3
20
33.25
11
0
21
33.25
0
LINE
8
front_outsideCutPath
10
0
20
33.25
11
0
21
22.75
0
LINE
8
front_outsideCutPath
10
0
20
22.75
11
3
21
22.75
0
LINE
8
front_outsideCutPath
10
3
20
22.75
11
3
21
12.25
0
LINE
8
front_outsideCutPath
10
3
20
12.25
11
0
21
12.25
0
LINE
8
front_outsideCutPath
10
0
20
12.25
11
0
21
3
0
LINE
8
front_outsideCutPath
10
0
20
3
11
9.25
21
3
0
LINE
8
front_outsideCutPath
10
9.25
20
3
11
9.25
21
6
0
LINE
8
front_outsideCutPath
10
9.25
20
6
11
19.75
21
6
0
LINE
8
front_outsideCutPath
10
19.75
20
6
11
19.75
21
3
0
LINE
8
front_outsideCutPath
10
19.75
20
3
11
30.25
21
3
0
LINE
8
front_outsideCutPath
10
30.25
20
3
11
30.25
21
6
0
LINE
8
front_outsideCutPath
10
30.25
20
6
11
40.75
21
6
0
LINE
8
front_outsideCutPath
10
40.75
20
6
11
40.75
21
3
0
LINE
8
front_outsideCutPath
10
40.75
20
3
11
50
21
3
0
LINE
8
front_outsideCutPath
10
50
20
3
11
50
21
12.25
0
LINE
8
front_outsideCutPath
10
50
20
12.25
11
47
21
12.25
0
LINE
8
front_outsideCutPath
10
47
20
12.25
11
47
21
22.75
0
LINE
8
front_outsideCutPath
10
47
20
22.75
11
50
21
22.75
0
LINE
8
front_outsideCutPath
10
50
20
22.75
11
50
21
33.25
0
LINE
8
front_outsideCutPath
10
50
20
33.25
11
47
21
33.25
0
LINE
8
front_outsideCutPath
10
47
20
33.25
11
47
21
43.75
0
LINE
8
front_outsideCutPath
10
47
20
43.75
11
50
21
43.75
0
LINE
8
front_outsideCutPath
10
50
20
43.75
11
50
21
53
0
LINE
8
front_outsideCutPath
10
50
20
53
11
40.75
21
53
0
LINE
8
front_outsideCutPath
10
40.75
20
53
11
40.75
21
50
0
LINE
8
front_outsideCutPath
10
40.75
20
50
11
30.25
21
50
0
LINE
8
front_outsideCutPath
10
30.25
20
50
11
30.25
21
53
0
LINE
8
front_outsideCutPath
10
30.25
20
53
11
19.75
21
53
0
LINE
8
front_outsideCutPath
10
19.75
20
53
11
19.75
21
50
0
LINE
8
front_outsideCutPath
10
19.75
20
50
11
9.25
21
50
0
LINE
8
front_outsideCutPath
10
9.25
20
50
11
9.25
21
53
0
LINE
8
front_outsideCutPath
10
9.25
20
53
11
0
21
53
0
LINE
8
front_labelLayer
10
16.7163086
20
29.5748129
11
16.7163086
21
28.9449301
0
LINE
8
front_labelLayer
10
16.7163086
20
28.9449301
11
15.3540039
21
28.9449301
0
LINE
8
front_labelLayer
10
15.3540039
20
28.9449301
11
15.3540039
21
24.2232504
0
LINE
8
front_labelLayer
10
15.3540039
20
24.2232504
11
14.543457
21
24.2232504
0
LINE
8
front_labelLayer
10
14.543457
20
24.2232504
11
14.543457
21
28.9449301
0
LINE
8
front_labelLayer
10
14.543457
20
28.9449301
11
13.5864258
21
28.9449301
0
LINE
8
front_labelLayer
10
13.5864258
20
28.9449301
11
13.5864258
21
29.311141
0
LINE
8
front_labelLayer
10
13.5864258
20
29.311141
11
14.543457
21
29.6041098
0
LINE
8
front_labelLayer
10
14.543457
20
29.6041098
11
14.543457
21
29.9019614
0
LINE
8
front_labelLayer
10
17.2631836
20
31.7037192
11
17.0532226
21
31.0543051
0
LINE
8
front_labelLayer
10
15.3540039
20
29.9214926
11
15.3540039
21
29.5748129
0
LINE
8
front_labelLayer
10
15.3540039
20
29.5748129
11
16.7163086
21
29.5748129
0
ARC
8
front_labelLayer
10
17.828322
20
29.939725
40
3.285082
50
167.5775892
51
180.6586577
0
ARC
8
front_labelLayer
10
16.2835691
20
30.2998718
40
1.6991319
50
141.7433917
51
168.232189
0
ARC
8
front_labelLayer
10
16.0320503
20
30.4311461
40
1.4213206
50
98.255136
51
139.6203348
0
ARC
8
front_labelLayer
10
16.2528857
20
29.4109783
40
2.4636802
50
89.6696635
51
99.9314504
0
ARC
8
front_labelLayer
10
16.2535027
20
29.264495
40
2.610158
50
81.5641231
51
89.701747
0
ARC
8
front_labelLayer
10
16.0699983
20
27.9842919
40
3.9034356
50
75.9739991
51
81.6564478
0
ARC
8
front_labelLayer
10
15.7551103
20
26.6781916
40
5.2469243
50
73.2964152
51
76.0946585
0
ARC
8
front_labelLayer
10
15.8344284
20
27.3118484
40
3.9359169
50
71.961285
51
76.5918679
0
ARC
8
front_labelLayer
10
16.1397745
20
28.6071788
40
2.6050899
50
76.5182849
51
83.0217313
0
ARC
8
front_labelLayer
10
16.2461323
20
29.4625096
40
1.7431743
50
83.0760752
51
89.7926296
0
ARC
8
front_labelLayer
10
16.2426335
20
30.1126096
40
1.0931067
50
89.4859089
51
103.4197839
0
ARC
8
front_labelLayer
10
16.1440821
20
30.4912314
40
0.7019962
50
102.7677549
51
144.3380548
0
ARC
8
front_labelLayer
10
16.3426298
20
30.3634847
40
0.9378635
50
145.0689248
51
162.1800984
0
ARC
8
front_labelLayer
10
17.0233462
20
30.1344587
40
1.6560377
50
161.8437649
51
171.7847361
0
ARC
8
front_labelLayer
10
18.1335895
20
29.9677
40
2.7787239
50
171.6527324
51
178.4384106
0
ARC
8
front_labelLayer
10
19.180987
20
29.9230402
40
3.8269834
50
178.1973669
51
180.0231697
0
LINE
8
front_labelLayer
10
20.7739258
20
29.6138754
11
20.6616211
21
28.8619223
0
LINE
8
front_labelLayer
10
18.503418
20
27.0943442
11
18.503418
21
24.2232504
0
LINE
8
front_labelLayer
10
18.503418
20
24.2232504
11
17.6928711
21
24.2232504
0
LINE
8
front_labelLayer
10
17.6928711
20
24.2232504
11
17.6928711
21
29.5748129
0
LINE
8
front_labelLayer
10
17.6928711
20
29.5748129
11
18.3618164
21
29.5748129
0
LINE
8
front_labelLayer
10
18.3618164
20
29.5748129
11
18.4545898
21
28.583602
0
LINE
8
front_labelLayer
10
18.4545898
20
28.583602
11
18.4936523
21
28.583602
0
ARC
8
front_labelLayer
10
20.1425948
20
25.9513219
40
3.7211565
50
84.9923433
51
90.1280672
0
ARC
8
front_labelLayer
10
20.2319563
20
26.9525797
40
2.7159207
50
78.4891938
51
85.0265557
0
ARC
8
front_labelLayer
10
19.885096
20
25.3749623
40
3.5723775
50
77.4454351
51
81.6359953
0
ARC
8
front_labelLayer
10
20.0407473
20
26.447817
40
2.4882934
50
81.5884875
51
87.1916305
0
ARC
8
front_labelLayer
10
20.0745548
20
27.033981
40
1.9011837
50
87.3437419
51
89.965981
0
ARC
8
front_labelLayer
10
20.0667008
20
27.5307558
40
1.4044375
50
89.633532
51
137.0880858
0
ARC
8
front_labelLayer
10
20.4115111
20
27.143033
40
1.9215969
50
135.6210457
51
138.8375526
0
ARC
8
front_labelLayer
10
20.3608699
20
27.1924573
40
1.850945
50
138.957565
51
174.5422151
0
ARC
8
front_labelLayer
10
20.9636682
20
27.0981348
40
2.4602532
50
173.6907228
51
180.0882791
0
ARC
8
front_labelLayer
10
20.8784497
20
27.240019
40
2.7372383
50
139.4139286
51
150.6033063
0
ARC
8
front_labelLayer
10
20.3876584
20
27.6605776
40
2.0909058
50
124.2321186
51
139.4161439
0
ARC
8
front_labelLayer
10
20.1252435
20
28.0566943
40
1.6158002
50
89.6796607
51
124.4405755
0
ARC
8
front_labelLayer
10
22.2073402
20
26.875689
40
4.1867979
50
349.1761703
51
0.3862653
0
ARC
8
front_labelLayer
10
23.6169327
20
26.5946818
40
2.7495362
50
330.2507007
51
349.4116588
0
ARC
8
front_labelLayer
10
24.0507347
20
26.3692073
40
2.2611094
50
318.1439898
51
329.7566466
0
ARC
8
front_labelLayer
10
24.1290293
20
26.3064622
40
2.1609332
50
278.8959126
51
317.9979246
0
ARC
8
front_labelLayer
10
23.9272927
20
27.27299
40
3.1474257
50
269.7502681
51
279.8033505
0
ARC
8
front_labelLayer
10
23.8945732
20
26.7284154
40
2.6028906
50
253.5436891
51
270.4182599
0
ARC
8
front_labelLayer
10
23.8079263
20
26.3932481
40
2.2569384
50
238.8115406
51
253.2428565
0
ARC
8
front_labelLayer
10
23.7799656
20
26.3370192
40
2.1943629
50
207.7947077
51
238.6757957
0
ARC
8
front_labelLayer
10
24.1812792
20
26.5827956
40
2.6641534
50
205.6559998
51
208.4460407
0
ARC
8
front_labelLayer
10
24.490288
20
26.7115453
40
2.998494
50
188.9102447
51
205.3171267
0
ARC
8
front_labelLayer
10
25.5318599
20
26.8879548
40
4.0548407
50
179.7744861
51
189.0932968
0
ARC
8
front_labelLayer
10
25.6855052
20
26.9324197
40
4.2085509
50
169.244298
51
180.388077
0
ARC
8
front_labelLayer
10
24.2563151
20
27.2149185
40
2.7517699
50
150.7111548
51
169.4695403
0
ARC
8
front_labelLayer
10
23.8000686
20
27.4492179
40
2.2393051
50
138.1759271
51
150.2287439
0
ARC
8
front_labelLayer
10
23.724179
20
27.5074548
40
2.1439295
50
99.1759269
51
137.9832757
0
ARC
8
front_labelLayer
10
23.9330648
20
26.5244078
40
3.1480957
50
89.7326552
51
100.075957
0
ARC
8
front_labelLayer
10
23.9748118
20
26.9489552
40
2.7236484
50
73.5222921
51
90.5692101
0
ARC
8
front_labelLayer
10
24.1345376
20
27.5292855
40
2.121878
50
41.1445648
51
73.213376
0
ARC
8
front_labelLayer
10
23.8296335
20
27.2672252
40
2.5239143
50
13.5014371
51
41.0703286
0
ARC
8
front_labelLayer
10
22.6516558
20
26.9589628
40
3.7413892
50
1.1277007
51
13.8800198
0
ARC
8
front_labelLayer
10
21.637546
20
26.9045942
40
4.756497
50
359.9918119
51
1.5420744
0
ARC
8
front_labelLayer
10
26.4214349
20
26.8828501
40
4.1045945
50
179.7059623
51
187.9160759
0
ARC
8
front_labelLayer
10
24.9159878
20
26.6665932
40
2.5837186
50
187.7639004
51
200.0977067
0
ARC
8
front_labelLayer
10
24.0866532
20
26.3627221
40
1.700467
50
200.0845636
51
216.9131841
0
ARC
8
front_labelLayer
10
23.7838126
20
26.1464798
40
1.3284862
50
217.3009787
51
261.7098938
0
ARC
8
front_labelLayer
10
23.9244044
20
26.8173734
40
2.0130872
50
260.5033228
51
270.2476468
0
ARC
8
front_labelLayer
10
23.9512374
20
26.6869096
40
1.8826918
50
269.4481854
51
284.725594
0
ARC
8
front_labelLayer
10
24.1002797
20
26.1341633
40
1.310221
50
284.5662271
51
322.6333666
0
ARC
8
front_labelLayer
10
23.75181
20
26.3859157
40
1.7400027
50
323.0089514
51
342.639042
0
ARC
8
front_labelLayer
10
22.7551269
20
26.7116603
40
2.7885127
50
342.3615691
51
353.7537767
0
ARC
8
front_labelLayer
10
21.2846887
20
26.8889052
40
4.269537
50
353.5362835
51
0.2014196
0
ARC
8
front_labelLayer
10
21.509957
20
26.9245563
40
4.0442949
50
359.7075649
51
7.8972524
0
ARC
8
front_labelLayer
10
22.9910919
20
27.1368888
40
2.5480422
50
7.7440038
51
20.069008
0
ARC
8
front_labelLayer
10
23.8164407
20
27.4397601
40
1.6688782
50
20.0257107
51
37.4350558
0
ARC
8
front_labelLayer
10
24.0902839
20
27.6340759
40
1.3333734
50
37.9577466
51
80.400635
0
ARC
8
front_labelLayer
10
23.9346664
20
26.939721
40
2.0443029
50
79.345373
51
90.3174511
0
ARC
8
front_labelLayer
10
23.905853
20
27.0550614
40
1.9290105
50
89.4805959
51
103.8804818
0
ARC
8
front_labelLayer
10
23.7437666
20
27.6722893
40
1.2909559
50
103.4685247
51
142.3118945
0
ARC
8
front_labelLayer
10
24.0588749
20
27.4506825
40
1.6758882
50
142.902573
51
162.374969
0
ARC
8
front_labelLayer
10
25.0517729
20
27.1198003
40
2.7224045
50
162.0652912
51
173.1675107
0
ARC
8
front_labelLayer
10
26.6000169
20
26.9223314
40
4.283162
50
173.0086384
51
180.2463635
0
LINE
8
front_labelLayer
10
32.2875976
20
24.2232504
11
31.4770508
21
24.2232504
0
LINE
8
front_labelLayer
10
31.4770508
20
24.2232504
11
31.4770508
21
27.6851645
0
LINE
8
front_labelLayer
10
28.6254883
20
27.0308676
11
28.6254883
21
24.2232504
0
LINE
8
front_labelLayer
10
28.6254883
20
24.2232504
11
27.8149414
21
24.2232504
0
LINE
8
front_labelLayer
10
27.8149414
20
24.2232504
11
27.8149414
21
29.5748129
0
LINE
8
front_labelLayer
10
27.8149414
20
29.5748129
11
28.4741211
21
29.5748129
0
LINE
8
front_labelLayer
10
28.4741211
20
29.5748129
11
28.605957
21
28.842391
0
LINE
8
front_labelLayer
10
28.605957
20
28.842391
11
28.6450195
21
28.842391
0
LINE
8
front_labelLayer
10
32.2875976
20
27.7144614
11
32.2875976
21
24.2232504
0
ARC
8
front_labelLayer
10
29.1858881
20
27.6983044
40
2.2912003
50
359.6714086
51
8.6877673
0
ARC
8
front_labelLayer
10
30.0350604
20
27.8329793
40
1.4314371
50
8.4931437
51
22.6579514
0
ARC
8
front_labelLayer
10
30.4665068
20
28.0122731
40
0.9642203
50
22.7024886
51
42.3419129
0
ARC
8
front_labelLayer
10
30.5150083
20
28.0340922
40
0.9138243
50
43.3790738
51
71.5386345
0
ARC
8
front_labelLayer
10
30.3336549
20
27.5273436
40
1.4519687
50
71.0828229
51
84.3691283
0
ARC
8
front_labelLayer
10
30.2522474
20
26.8351803
40
2.1488197
50
84.0198256
51
90.1510621
0
ARC
8
front_labelLayer
10
30.2291705
20
26.5308938
40
2.4531606
50
89.5933355
51
100.3717785
0
ARC
8
front_labelLayer
10
30.0558073
20
27.440476
40
1.5272445
50
100.1176387
51
118.1602405
0
ARC
8
front_labelLayer
10
29.8811003
20
27.783062
40
1.1427844
50
118.5439234
51
139.1927042
0
ARC
8
front_labelLayer
10
30.0334349
20
27.6808429
40
1.3250759
50
140.1519078
51
160.3146426
0
ARC
8
front_labelLayer
10
30.9533115
20
27.3362948
40
2.3073003
50
159.9534071
51
171.380153
0
ARC
8
front_labelLayer
10
32.4559917
20
27.0947419
40
3.8292346
50
171.1765697
51
178.3217353
0
ARC
8
front_labelLayer
10
33.8180472
20
27.0330173
40
5.1925592
50
178.0811052
51
180.0237197
0
ARC
8
front_labelLayer
10
30.0315834
20
27.9642341
40
1.6412553
50
116.944286
51
147.6525618
0
ARC
8
front_labelLayer
10
30.2026086
20
27.6781262
40
1.9739331
50
115.8074113
51
117.6066126
0
ARC
8
front_labelLayer
10
30.289752
20
27.4748696
40
2.1948779
50
94.3226558
51
115.5454447
0
ARC
8
front_labelLayer
10
30.3422849
20
27.0184579
40
2.6540119
50
89.9578303
51
94.7108686
0
ARC
8
front_labelLayer
10
30.3640007
20
26.4723607
40
3.2001695
50
80.5585147
51
90.3538292
0
ARC
8
front_labelLayer
10
30.5639928
20
27.6307798
40
2.0246491
50
65.1094227
51
80.7638395
0
ARC
8
front_labelLayer
10
30.7977724
20
28.1485949
40
1.4565492
50
46.5584459
51
64.8782446
0
ARC
8
front_labelLayer
10
30.8164812
20
28.2025329
40
1.4047183
50
19.3848961
51
45.5996984
0
ARC
8
front_labelLayer
10
30.0038103
20
27.8976041
40
2.2725993
50
6.9633804
51
19.83636
0
ARC
8
front_labelLayer
10
28.7503937
20
27.7290835
40
3.537234
50
359.7631516
51
7.211528
0
LINE
8
front_labelLayer
10
36.4135742
20
24.8921957
11
36.4135742
21
24.2720785
0
LINE
8
front_labelLayer
10
34.0112305
20
25.7613364
11
34.0112305
21
28.9449301
0
LINE
8
front_labelLayer
10
34.0112305
20
28.9449301
11
33.2446289
21
28.9449301
0
LINE
8
front_labelLayer
10
33.2446289
20
28.9449301
11
33.2446289
21
29.3355551
0
LINE
8
front_labelLayer
10
33.2446289
20
29.3355551
11
34.0112305
21
29.6724692
0
LINE
8
front_labelLayer
10
34.0112305
20
29.6724692
11
34.3530273
21
30.8150473
0
LINE
8
front_labelLayer
10
34.3530273
20
30.8150473
11
34.8217773
21
30.8150473
0
LINE
8
front_labelLayer
10
34.8217773
20
30.8150473
11
34.8217773
21
29.5748129
0
LINE
8
front_labelLayer
10
34.8217773
20
29.5748129
11
36.3745117
21
29.5748129
0
LINE
8
front_labelLayer
10
36.3745117
20
29.5748129
11
36.3745117
21
28.9449301
0
LINE
8
front_labelLayer
10
36.3745117
20
28.9449301
11
34.8217773
21
28.9449301
0
LINE
8
front_labelLayer
10
34.8217773
20
28.9449301
11
34.8217773
21
25.795516
0
ARC
8
front_labelLayer
10
35.6867097
20
27.456497
40
2.6619633
50
269.8803835
51
278.3028088
0
ARC
8
front_labelLayer
10
35.7121046
20
27.2491691
40
2.4531461
50
278.4151604
51
279.0078082
0
ARC
8
front_labelLayer
10
35.4133448
20
29.1576634
40
4.3848809
50
278.9589926
51
280.5103845
0
ARC
8
front_labelLayer
10
35.698027
20
27.6301557
40
2.8310723
50
280.4847341
51
282.6268196
0
ARC
8
front_labelLayer
10
35.9476286
20
26.5212287
40
1.6944027
50
282.5878181
51
285.5794248
0
ARC
8
front_labelLayer
10
36.0731544
20
26.0596279
40
1.2160524
50
285.723602
51
286.256529
0
ARC
8
front_labelLayer
10
36.0727887
20
24.992861
40
0.7972842
50
287.9889939
51
295.3047539
0
ARC
8
front_labelLayer
10
35.8804943
20
25.5746567
40
1.41003
50
283.3069857
51
288.1196685
0
ARC
8
front_labelLayer
10
35.6773638
20
26.4219845
40
2.2813636
50
280.0070297
51
283.3735028
0
ARC
8
front_labelLayer
10
35.5411715
20
27.1611895
40
3.0329939
50
279.1866132
51
280.1141291
0
ARC
8
front_labelLayer
10
35.4580056
20
27.6342363
40
3.5132568
50
275.5261107
51
279.2938742
0
ARC
8
front_labelLayer
10
35.5520369
20
26.652159
40
2.5266888
50
270.893275
51
275.5483136
0
ARC
8
front_labelLayer
10
35.5638354
20
26.2058131
40
2.080219
50
270.0035655
51
270.760006
0
ARC
8
front_labelLayer
10
35.5312563
20
26.2423721
40
2.1170306
50
253.7848147
51
270.8852671
0
ARC
8
front_labelLayer
10
35.2804449
20
25.3870076
40
1.2256562
50
190.3817547
51
253.8772429
0
ARC
8
front_labelLayer
10
36.5588228
20
25.7326593
40
2.5477537
50
179.355076
51
192.8477713
0
ARC
8
front_labelLayer
10
36.4539125
20
25.7853069
40
1.6321671
50
179.6416142
51
189.7505826
0
ARC
8
front_labelLayer
10
35.8777221
20
25.6825356
40
1.0469013
50
189.5478993
51
205.7874295
0
ARC
8
front_labelLayer
10
35.6409389
20
25.5733464
40
0.7862115
50
206.1294529
51
221.4084401
0
ARC
8
front_labelLayer
10
35.6143906
20
25.553202
40
0.75298
50
221.5949468
51
262.3504817
0
ARC
8
front_labelLayer
10
35.6775337
20
25.8779055
40
1.083372
50
261.3266007
51
270.1913759
0
LINE
8
left_outsideCutPath
10
56
20
53
11
56
21
43.75
0
LINE
8
left_outsideCutPath
10
56
20
43.75
11
53
21
43.75
0
LINE
8
left_outsideCutPath
10
53
20
43.75
11
53
21
33.25
0
LINE
8
left_outsideCutPath
10
53
20
33.25
11
56
21
33.25
0
LINE
8
left_outsideCutPath
10
56
20
33.25
11
56
21
22.75
0
LINE
8
left_outsideCutPath
10
56
20
22.75
11
53
21
22.75
0
LINE
8
left_outsideCutPath
10
53
20
22.75
11
53
21
12.25
0
LINE
8
left_outsideCutPath
10
53
20
12.25
11
56
21
12.25
0
LINE
8
left_outsideCutPath
10
56
20
12.25
11
56
21
3
0
LINE
8
left_outsideCutPath
10
56
20
3
11
62.25
21
3
0
LINE
8
left_outsideCutPath
10
62.25
20
3
11
62.25
21
6
0
LINE
8
left_outsideCutPath
10
62.25
20
6
11
72.75
21
6
0
LINE
8
left_outsideCutPath
10
72.75
20
6
11
72.75
21
3
0
LINE
8
left_outsideCutPath
10
72.75
20
3
11
83.25
21
3
0
LINE
8
left_outsideCutPath
10
83.25
20
3
11
83.25
21
6
0
LINE
8
left_outsideCutPath
10
83.25
20
6
11
93.75
21
6
0
LINE
8
left_outsideCutPath
10
93.75
20
6
11
93.75
21
3
0
LINE
8
left_outsideCutPath
10
93.75
20
3
11
100
21
3
0
LINE
8
left_outsideCutPath
10
100
20
3
11
100
21
12.25
0
LINE
8
left_outsideCutPath
10
100
20
12.25
11
103
21
12.25
0
LINE
8
left_outsideCutPath
10
103
20
12.25
11
103
21
22.75
0
LINE
8
left_outsideCutPath
10
103
20
22.75
11
100
21
22.75
0
LINE
8
left_outsideCutPath
10
100
20
22.75
11
100
21
33.25
0
LINE
8
left_outsideCutPath
10
100
20
33.25
11
103
21
33.25
0
LINE
8
left_outsideCutPath
10
103
20
33.25
11
103
21
43.75
0
LINE
8
left_outsideCutPath
10
103
20
43.75
11
100
21
43.75
0
LINE
8
left_outsideCutPath
10
100
20
43.75
11
100
21
53
0
LINE
8
left_outsideCutPath
10
100
20
53
11
93.75
21
53
0
LINE
8
left_outsideCutPath
10
93.75
20
53
11
93.75
21
50
0
LINE
8
left_outsideCutPath
10
93.75
20
50
11
83.25
21
50
0
LINE
8
left_outsideCutPath
10
83.25
20
50
11
83.25
21
53
0
LINE
8
left_outsideCutPath
10
83.25
20
53
11
72.75
21
53
0
LINE
8
left_outsideCutPath
10
72.75
20
53
11
72.75
21
50
0
LINE
8
left_outsideCutPath
10
72.75
20
50
11
62.25
21
50
0
LINE
8
left_outsideCutPath
10
62.25
20
50
11
62.25
21
53
0
LINE
8
left_outsideCutPath
10
62.25
20
53
11
56
21
53
0
LINE
8
left_labelLayer
10
71.815918
20
31.8209067
11
71.815918
21
24.2232504
0
LINE
8
left_labelLayer
10
71.815918
20
24.2232504
11
71.0053711
21
24.2232504
0
LINE
8
left_labelLayer
10
71.0053711
20
24.2232504
11
71.0053711
21
31.8209067
0
LINE
8
left_labelLayer
10
71.0053711
20
31.8209067
11
71.815918
21
31.8209067
0
LINE
8
left_labelLayer
10
77.7631836
20
27.2652426
11
77.7631836
21
26.7525473
0
LINE
8
left_labelLayer
10
77.7631836
20
26.7525473
11
74.0766601
21
26.7525473
0
LINE
8
left_labelLayer
10
77.5336914
20
25.1949301
11
77.5336914
21
24.4722739
0
LINE
8
left_labelLayer
10
74.0961914
20
27.411727
11
76.894043
21
27.411727
0
ARC
8
left_labelLayer
10
75.7687579
20
27.2752199
40
3.1497385
50
256.0087652
51
270.4848281
0
ARC
8
left_labelLayer
10
75.5393946
20
26.384792
40
2.2302852
50
223.5465791
51
256.195708
0
ARC
8
left_labelLayer
10
75.665924
20
26.4767555
40
2.3854413
50
194.0877272
51
223.0538182
0
ARC
8
left_labelLayer
10
76.8252762
20
26.7937951
40
3.587184
50
181.3574437
51
194.4919859
0
ARC
8
left_labelLayer
10
77.8664692
20
26.8541744
40
4.629653
50
179.9887134
51
181.7992254
0
ARC
8
left_labelLayer
10
77.4928822
20
26.8836378
40
4.2561616
50
168.9539344
51
180.3843577
0
ARC
8
left_labelLayer
10
76.1028429
20
27.166673
40
2.8376689
50
149.4071114
51
169.1853767
0
ARC
8
left_labelLayer
10
75.7155708
20
27.3712855
40
2.4002601
50
140.1056357
51
148.9066666
0
ARC
8
left_labelLayer
10
75.4776142
20
27.590667
40
2.0770468
50
92.4762714
51
140.5386308
0
ARC
8
left_labelLayer
10
75.5836369
20
26.8071289
40
2.8653406
50
89.96376
51
93.9175528
0
ARC
8
left_labelLayer
10
75.6089379
20
27.2031546
40
2.4694263
50
74.2125798
51
90.5449944
0
ARC
8
left_labelLayer
10
75.763607
20
27.7730189
40
1.8789883
50
41.2064633
51
74.0232864
0
ARC
8
left_labelLayer
10
75.4706965
20
27.5195259
40
2.2663524
50
11.599414
51
41.1496103
0
ARC
8
left_labelLayer
10
74.4642621
20
27.2874218
40
3.2989962
50
359.6147974
51
12.0336487
0
ARC
8
left_labelLayer
10
77.3292509
20
26.8175393
40
3.25324
50
181.1447089
51
190.800699
0
ARC
8
left_labelLayer
10
76.1815414
20
26.5911797
40
2.0834566
50
190.6005912
51
206.0275389
0
ARC
8
left_labelLayer
10
75.6737625
20
26.3511252
40
1.5218552
50
206.2950727
51
222.5557632
0
ARC
8
left_labelLayer
10
75.628762
20
26.3275627
40
1.4728295
50
223.0645106
51
258.1401451
0
ARC
8
left_labelLayer
10
75.807884
20
27.0651203
40
2.2315817
50
257.5312118
51
270.4319336
0
ARC
8
left_labelLayer
10
75.8098834
20
29.1145199
40
4.2809436
50
270.1983989
51
292.2090463
0
ARC
8
left_labelLayer
10
75.6045334
20
29.7043609
40
4.9047545
50
291.8254524
51
293.1614913
0
ARC
8
left_labelLayer
10
75.5944649
20
28.9351319
40
4.8659738
50
287.9023001
51
293.4861849
0
ARC
8
left_labelLayer
10
75.9474516
20
27.8460377
40
3.7211051
50
281.99355
51
287.8851486
0
ARC
8
left_labelLayer
10
76.0329959
20
27.5385679
40
3.4026284
50
275.9054221
51
281.6604084
0
ARC
8
left_labelLayer
10
75.8617346
20
29.137127
40
5.0103281
50
271.9119672
51
275.972686
0
ARC
8
left_labelLayer
10
75.7992173
20
30.7295538
40
6.6039607
50
269.966969
51
271.9931119
0
ARC
8
left_labelLayer
10
75.5601303
20
27.3960511
40
1.5977828
50
89.4422579
51
106.2089208
0
ARC
8
left_labelLayer
10
75.4640053
20
27.7465408
40
1.2344049
50
106.4656857
51
137.9176636
0
ARC
8
left_labelLayer
10
75.739596
20
27.5045248
40
1.6011503
50
138.0994559
51
160.5866126
0
ARC
8
left_labelLayer
10
76.4479867
20
27.2439186
40
2.3559085
50
160.3353019
51
172.531556
0
ARC
8
left_labelLayer
10
77.1455742
20
27.1321487
40
3.0621723
50
172.1545454
51
174.7615643
0
ARC
8
left_labelLayer
10
74.1320443
20
27.4274185
40
2.7620433
50
359.674493
51
8.9224697
0
ARC
8
left_labelLayer
10
75.1189732
20
27.5882237
40
1.762126
50
8.7342472
51
23.2771776
0
ARC
8
left_labelLayer
10
75.5875172
20
27.7849059
40
1.2540029
50
23.4821471
51
39.7071776
0
ARC
8
left_labelLayer
10
75.7026094
20
27.8710316
40
1.1104613
50
40.0822914
51
80.6243083
0
ARC
8
left_labelLayer
10
75.5841432
20
27.3279835
40
1.6657964
50
79.6468421
51
90.2909746
0
LINE
8
left_labelLayer
10
81.5571289
20
29.5748129
11
81.5571289
21
28.9449301
0
LINE
8
left_labelLayer
10
81.5571289
20
28.9449301
11
80.1948242
21
28.9449301
0
LINE
8
left_labelLayer
10
80.1948242
20
28.9449301
11
80.1948242
21
24.2232504
0
LINE
8
left_labelLayer
10
80.1948242
20
24.2232504
11
79.3842773
21
24.2232504
0
LINE
8
left_labelLayer
10
79.3842773
20
24.2232504
11
79.3842773
21
28.9449301
0
LINE
8
left_labelLayer
10
79.3842773
20
28.9449301
11
78.4272461
21
28.9449301
0
LINE
8
left_labelLayer
10
78.4272461
20
28.9449301
11
78.4272461
21
29.311141
0
LINE
8
left_labelLayer
10
78.4272461
20
29.311141
11
79.3842773
21
29.6041098
0
LINE
8
left_labelLayer
10
79.3842773
20
29.6041098
11
79.3842773
21
29.9019614
0
LINE
8
left_labelLayer
10
82.1040039
20
31.7037192
11
81.894043
21
31.0543051
0
LINE
8
left_labelLayer
10
80.1948242
20
29.9214926
11
80.1948242
21
29.5748129
0
LINE
8
left_labelLayer
10
80.1948242
20
29.5748129
11
81.5571289
21
29.5748129
0
ARC
8
left_labelLayer
10
82.6691423
20
29.939725
40
3.285082
50
167.5775892
51
180.6586577
0
ARC
8
left_labelLayer
10
81.1243895
20
30.2998718
40
1.6991319
50
141.7433917
51
168.232189
0
ARC
8
left_labelLayer
10
80.8728706
20
30.4311461
40
1.4213206
50
98.255136
51
139.6203348
0
ARC
8
left_labelLayer
10
81.093706
20
29.4109783
40
2.4636802
50
89.6696635
51
99.9314504
0
ARC
8
left_labelLayer
10
81.094323
20
29.264495
40
2.610158
50
81.5641231
51
89.701747
0
ARC
8
left_labelLayer
10
80.9108186
20
27.9842919
40
3.9034356
50
75.9739991
51
81.6564478
0
ARC
8
left_labelLayer
10
80.5959306
20
26.6781916
40
5.2469243
50
73.2964152
51
76.0946585
0
ARC
8
left_labelLayer
10
80.6752487
20
27.3118484
40
3.9359169
50
71.961285
51
76.5918679
0
ARC
8
left_labelLayer
10
80.9805948
20
28.6071788
40
2.6050899
50
76.5182849
51
83.0217313
0
ARC
8
left_labelLayer
10
81.0869527
20
29.4625096
40
1.7431743
50
83.0760752
51
89.7926296
0
ARC
8
left_labelLayer
10
81.0834539
20
30.1126096
40
1.0931067
50
89.4859089
51
103.4197839
0
ARC
8
left_labelLayer
10
80.9849024
20
30.4912314
40
0.7019962
50
102.7677549
51
144.3380548
0
ARC
8
left_labelLayer
10
81.1834501
20
30.3634847
40
0.9378635
50
145.0689248
51
162.1800984
0
ARC
8
left_labelLayer
10
81.8641665
20
30.1344587
40
1.6560377
50
161.8437649
51
171.7847361
0
ARC
8
left_labelLayer
10
82.9744098
20
29.9677
40
2.7787239
50
171.6527324
51
178.4384106
0
ARC
8
left_labelLayer
10
84.0218073
20
29.9230402
40
3.8269834
50
178.1973669
51
180.0231697
0
LINE
8
left_labelLayer
10
84.9946289
20
24.8921957
11
84.9946289
21
24.2720785
0
LINE
8
left_labelLayer
10
82.5922851
20
25.7613364
11
82.5922851
21
28.9449301
0
LINE
8
left_labelLayer
10
82.5922851
20
28.9449301
11
81.8256836
21
28.9449301
0
LINE
8
left_labelLayer
10
81.8256836
20
28.9449301
11
81.8256836
21
29.3355551
0
LINE
8
left_labelLayer
10
81.8256836
20
29.3355551
11
82.5922851
21
29.6724692
0
LINE
8
left_labelLayer
10
82.5922851
20
29.6724692
11
82.934082
21
30.8150473
0
LINE
8
left_labelLayer
10
82.934082
20
30.8150473
11
83.402832
21
30.8150473
0
LINE
8
left_labelLayer
10
83.402832
20
30.8150473
11
83.402832
21
29.5748129
0
LINE
8
left_labelLayer
10
83.402832
20
29.5748129
11
84.9555664
21
29.5748129
0
LINE
8
left_labelLayer
10
84.9555664
20
29.5748129
11
84.9555664
21
28.9449301
0
LINE
8
left_labelLayer
10
84.9555664
20
28.9449301
11
83.402832
21
28.9449301
0
LINE
8
left_labelLayer
10
83.402832
20
28.9449301
11
83.402832
21
25.795516
0
ARC
8
left_labelLayer
10
84.2677644
20
27.456497
40
2.6619633
50
269.8803835
51
278.3028088
0
ARC
8
left_labelLayer
10
84.2931593
20
27.2491691
40
2.4531461
50
278.4151604
51
279.0078082
0
ARC
8
left_labelLayer
10
83.9943994
20
29.1576634
40
4.3848809
50
278.9589926
51
280.5103845
0
ARC
8
left_labelLayer
10
84.2790817
20
27.6301557
40
2.8310723
50
280.4847341
51
282.6268196
0
ARC
8
left_labelLayer
10
84.5286833
20
26.5212287
40
1.6944027
50
282.5878181
51
285.5794248
0
ARC
8
left_labelLayer
10
84.6542091
20
26.0596279
40
1.2160524
50
285.723602
51
286.256529
0
ARC
8
left_labelLayer
10
84.6538434
20
24.992861
40
0.7972842
50
287.9889939
51
295.3047539
0
ARC
8
left_labelLayer
10
84.461549
20
25.5746567
40
1.41003
50
283.3069857
51
288.1196685
0
ARC
8
left_labelLayer
10
84.2584184
20
26.4219845
40
2.2813636
50
280.0070297
51
283.3735028
0
ARC
8
left_labelLayer
10
84.1222262
20
27.1611895
40
3.0329939
50
279.1866132
51
280.1141291
0
ARC
8
left_labelLayer
10
84.0390603
20
27.6342363
40
3.5132568
50
275.5261107
51
279.2938742
0
ARC
8
left_labelLayer
10
84.1330916
20
26.652159
40
2.5266888
50
270.893275
51
275.5483136
0
ARC
8
left_labelLayer
10
84.1448901
20
26.2058131
40
2.080219
50
270.0035655
51
270.760006
0
ARC
8
left_labelLayer
10
84.112311
20
26.2423721
40
2.1170306
50
253.7848147
51
270.8852671
0
ARC
8
left_labelLayer
10
83.8614996
20
25.3870076
40
1.2256562
50
190.3817547
51
253.8772429
0
ARC
8
left_labelLayer
10
85.1398775
20
25.7326593
40
2.5477537
50
179.355076
51
192.8477713
0
ARC
8
left_labelLayer
10
85.0349672
20
25.7853069
40
1.6321671
50
179.6416142
51
189.7505826
0
ARC
8
left_labelLayer
10
84.4587768
20
25.6825356
40
1.0469013
50
189.5478993
51
205.7874295
0
ARC
8
left_labelLayer
10
84.2219936
20
25.5733464
40
0.7862115
50
206.1294529
51
221.4084401
0
ARC
8
left_labelLayer
10
84.1954453
20
25.553202
40
0.75298
50
221.5949468
51
262.3504817
0
ARC
8
left_labelLayer
10
84.2585884
20
25.8779055
40
1.083372
50
261.3266007
51
270.1913759
0
LINE
8
top_outsideCutPath
10
109
20
50
11
109
21
43.75
0
LINE
8
top_outsideCutPath
10
109
20
43.75
11
106
21
43.75
0
LINE
8
top_outsideCutPath
10
106
20
43.75
11
106
21
33.25
0
LINE
8
top_outsideCutPath
10
106
20
33.25
11
109
21
33.25
0
LINE
8
top_outsideCutPath
10
109
20
33.25
11
109
21
22.75
0
LINE
8
top_outsideCutPath
10
109
20
22.75
11
106
21
22.75
0
LINE
8
top_outsideCutPath
10
106
20
22.75
11
106
21
12.25
0
LINE
8
top_outsideCutPath
10
106
20
12.25
11
109
21
12.25
0
LINE
8
top_outsideCutPath
10
109
20
12.25
11
109
21
6
0
LINE
8
top_outsideCutPath
10
109
20
6
11
115.25
21
6
0
LINE
8
top_outsideCutPath
10
115.25
20
6
11
115.25
21
3
0
LINE
8
top_outsideCutPath
10
115.25
20
3
11
125.75
21
3
0
LINE
8
top_outsideCutPath
10
125.75
20
3
11
125.75
21
6
0
LINE
8
top_outsideCutPath
10
125.75
20
6
11
136.25
21
6
0
LINE
8
top_outsideCutPath
10
136.25
20
6
11
136.25
21
3
0
LINE
8
top_outsideCutPath
10
136.25
20
3
11
146.75
21
3
0
LINE
8
top_outsideCutPath
10
146.75
20
3
11
146.75
21
6
0
LINE
8
top_outsideCutPath
10
146.75
20
6
11
153
21
6
0
LINE
8
top_outsideCutPath
10
153
20
6
11
153
21
12.25
0
LINE
8
top_outsideCutPath
10
153
20
12.25
11
156
21
12.25
0
LINE
8
top_outsideCutPath
10
156
20
12.25
11
156
21
22.75
0
LINE
8
top_outsideCutPath
10
156
20
22.75
11
153
21
22.75
0
LINE
8
top_outsideCutPath
10
153
20
22.75
11
153
21
33.25
0
LINE
8
top_outsideCutPath
10
153
20
33.25
11
156
21
33.25
0
LINE
8
top_outsideCutPath
10
156
20
33.25
11
156
21
43.75
0
LINE
8
top_outsideCutPath
10
156
20
43.75
11
153
21
43.75
0
LINE
8
top_outsideCutPath
10
153
20
43.75
11
153
21
50
0
LINE
8
top_outsideCutPath
10
153
20
50
11
146.75
21
50
0
LINE
8
top_outsideCutPath
10
146.75
20
50
11
146.75
21
53
0
LINE
8
top_outsideCutPath
10
146.75
20
53
11
136.25
21
53
0
LINE
8
top_outsideCutPath
10
136.25
20
53
11
136.25
21
50
0
LINE
8
top_outsideCutPath
10
136.25
20
50
11
125.75
21
50
0
LINE
8
top_outsideCutPath
10
125.75
20
50
11
125.75
21
53
0
LINE
8
top_outsideCutPath
10
125.75
20
53
11
115.25
21
53
0
LINE
8
top_outsideCutPath
10
115.25
20
53
11
115.25
21
50
0
LINE
8
top_outsideCutPath
10
115.25
20
50
11
109
21
50
0
LINE
8
top_labelLayer
10
126.6737868
20
26.5742188
11
126.6737868
21
25.9541016
0
LINE
8
top_labelLayer
10
124.271443
20
27.4433594
11
124.271443
21
30.6269531
0
LINE
8
top_labelLayer
10
124.271443
20
30.6269531
11
123.5048415
21
30.6269531
0
LINE
8
top_labelLayer
10
123.5048415
20
30.6269531
11
123.5048415
21
31.0175781
0
LINE
8
top_labelLayer
10
123.5048415
20
31.0175781
11
124.271443
21
31.3544922
0
LINE
8
top_labelLayer
10
124.271443
20
31.3544922
11
124.6132399
21
32.4970703
0
LINE
8
top_labelLayer
10
124.6132399
20
32.4970703
11
125.0819899
21
32.4970703
0
LINE
8
top_labelLayer
10
125.0819899
20
32.4970703
11
125.0819899
21
31.2568359
0
LINE
8
top_labelLayer
10
125.0819899
20
31.2568359
11
126.6347243
21
31.2568359
0
LINE
8
top_labelLayer
10
126.6347243
20
31.2568359
11
126.6347243
21
30.6269531
0
LINE
8
top_labelLayer
10
126.6347243
20
30.6269531
11
125.0819899
21
30.6269531
0
LINE
8
top_labelLayer
10
125.0819899
20
30.6269531
11
125.0819899
21
27.4775391
0
ARC
8
top_labelLayer
10
125.9469223
20
29.13852
40
2.6619633
50
269.8803835
51
278.3028088
0
ARC
8
top_labelLayer
10
125.9723172
20
28.9311921
40
2.4531461
50
278.4151604
51
279.0078082
0
ARC
8
top_labelLayer
10
125.6735573
20
30.8396864
40
4.3848809
50
278.9589926
51
280.5103845
0
ARC
8
top_labelLayer
10
125.9582395
20
29.3121787
40
2.8310723
50
280.4847341
51
282.6268196
0
ARC
8
top_labelLayer
10
126.2078411
20
28.2032518
40
1.6944027
50
282.5878181
51
285.5794248
0
ARC
8
top_labelLayer
10
126.333367
20
27.7416509
40
1.2160524
50
285.723602
51
286.256529
0
ARC
8
top_labelLayer
10
126.3330013
20
26.6748841
40
0.7972842
50
287.9889939
51
295.3047539
0
ARC
8
top_labelLayer
10
126.1407068
20
27.2566797
40
1.41003
50
283.3069857
51
288.1196685
0
ARC
8
top_labelLayer
10
125.9375763
20
28.1040075
40
2.2813636
50
280.0070297
51
283.3735028
0
ARC
8
top_labelLayer
10
125.8013841
20
28.8432125
40
3.0329939
50
279.1866132
51
280.1141291
0
ARC
8
top_labelLayer
10
125.7182181
20
29.3162593
40
3.5132568
50
275.5261107
51
279.2938742
0
ARC
8
top_labelLayer
10
125.8122494
20
28.334182
40
2.5266888
50
270.893275
51
275.5483136
0
ARC
8
top_labelLayer
10
125.8240479
20
27.8878362
40
2.080219
50
270.0035655
51
270.760006
0
ARC
8
top_labelLayer
10
125.7914688
20
27.9243951
40
2.1170306
50
253.7848147
51
270.8852671
0
ARC
8
top_labelLayer
10
125.5406575
20
27.0690306
40
1.2256562
50
190.3817547
51
253.8772429
0
ARC
8
top_labelLayer
10
126.8190354
20
27.4146823
40
2.5477537
50
179.355076
51
192.8477713
0
ARC
8
top_labelLayer
10
126.714125
20
27.4673299
40
1.6321671
50
179.6416142
51
189.7505826
0
ARC
8
top_labelLayer
10
126.1379347
20
27.3645586
40
1.0469013
50
189.5478993
51
205.7874295
0
ARC
8
top_labelLayer
10
125.9011515
20
27.2553695
40
0.7862115
50
206.1294529
51
221.4084401
0
ARC
8
top_labelLayer
10
125.8746032
20
27.2352251
40
0.75298
50
221.5949468
51
262.3504817
0
ARC
8
top_labelLayer
10
125.9377463
20
27.5599285
40
1.083372
50
261.3266007
51
270.1913759
0
ARC
8
top_labelLayer
10
128.1755605
20
28.557712
40
4.1867979
50
349.1761703
51
0.3862653
0
ARC
8
top_labelLayer
10
129.5851531
20
28.2767048
40
2.7495362
50
330.2507007
51
349.4116588
0
ARC
8
top_labelLayer
10
130.018955
20
28.0512303
40
2.2611094
50
318.1439898
51
329.7566466
0
ARC
8
top_labelLayer
10
130.0972497
20
27.9884852
40
2.1609332
50
278.8959126
51
317.9979246
0
ARC
8
top_labelLayer
10
129.895513
20
28.955013
40
3.1474257
50
269.7502681
51
279.8033505
0
ARC
8
top_labelLayer
10
129.8627936
20
28.4104384
40
2.6028906
50
253.5436891
51
270.4182599
0
ARC
8
top_labelLayer
10
129.7761467
20
28.0752711
40
2.2569384
50
238.8115406
51
253.2428565
0
ARC
8
top_labelLayer
10
129.748186
20
28.0190422
40
2.1943629
50
207.7947077
51
238.6757957
0
ARC
8
top_labelLayer
10
130.1494995
20
28.2648186
40
2.6641534
50
205.6559998
51
208.4460407
0
ARC
8
top_labelLayer
10
130.4585084
20
28.3935684
40
2.998494
50
188.9102447
51
205.3171267
0
ARC
8
top_labelLayer
10
131.5000803
20
28.5699779
40
4.0548407
50
179.7744861
51
189.0932968
0
ARC
8
top_labelLayer
10
131.6537255
20
28.6144427
40
4.2085509
50
169.244298
51
180.388077
0
ARC
8
top_labelLayer
10
130.2245355
20
28.8969415
40
2.7517699
50
150.7111548
51
169.4695403
0
ARC
8
top_labelLayer
10
129.768289
20
29.1312409
40
2.2393051
50
138.1759271
51
150.2287439
0
ARC
8
top_labelLayer
10
129.6923993
20
29.1894779
40
2.1439295
50
99.1759269
51
137.9832757
0
ARC
8
top_labelLayer
10
129.9012852
20
28.2064308
40
3.1480957
50
89.7326552
51
100.075957
0
ARC
8
top_labelLayer
10
129.9430322
20
28.6309782
40
2.7236484
50
73.5222921
51
90.5692101
0
ARC
8
top_labelLayer
10
130.102758
20
29.2113085
40
2.121878
50
41.1445648
51
73.213376
0
ARC
8
top_labelLayer
10
129.7978538
20
28.9492482
40
2.5239143
50
13.5014371
51
41.0703286
0
ARC
8
top_labelLayer
10
128.6198761
20
28.6409859
40
3.7413892
50
1.1277007
51
13.8800198
0
ARC
8
top_labelLayer
10
127.6057663
20
28.5866172
40
4.756497
50
359.9918119
51
1.5420744
0
ARC
8
top_labelLayer
10
132.3896553
20
28.5648731
40
4.1045945
50
179.7059623
51
187.9160759
0
ARC
8
top_labelLayer
10
130.8842081
20
28.3486162
40
2.5837186
50
187.7639004
51
200.0977067
0
ARC
8
top_labelLayer
10
130.0548735
20
28.0447452
40
1.700467
50
200.0845636
51
216.9131841
0
ARC
8
top_labelLayer
10
129.7520329
20
27.8285028
40
1.3284862
50
217.3009787
51
261.7098938
0
ARC
8
top_labelLayer
10
129.8926248
20
28.4993964
40
2.0130872
50
260.5033228
51
270.2476468
0
ARC
8
top_labelLayer
10
129.9194577
20
28.3689326
40
1.8826918
50
269.4481854
51
284.725594
0
ARC
8
top_labelLayer
10
130.0685
20
27.8161863
40
1.310221
50
284.5662271
51
322.6333666
0
ARC
8
top_labelLayer
10
129.7200304
20
28.0679387
40
1.7400027
50
323.0089514
51
342.639042
0
ARC
8
top_labelLayer
10
128.7233473
20
28.3936834
40
2.7885127
50
342.3615691
51
353.7537767
0
ARC
8
top_labelLayer
10
127.2529091
20
28.5709283
40
4.269537
50
353.5362835
51
0.2014196
0
ARC
8
top_labelLayer
10
127.4781774
20
28.6065793
40
4.0442949
50
359.7075649
51
7.8972524
0
ARC
8
top_labelLayer
10
128.9593122
20
28.8189118
40
2.5480422
50
7.7440038
51
20.069008
0
ARC
8
top_labelLayer
10
129.784661
20
29.1217831
40
1.6688782
50
20.0257107
51
37.4350558
0
ARC
8
top_labelLayer
10
130.0585042
20
29.3160989
40
1.3333734
50
37.9577466
51
80.400635
0
ARC
8
top_labelLayer
10
129.9028867
20
28.6217441
40
2.0443029
50
79.345373
51
90.3174511
0
ARC
8
top_labelLayer
10
129.8740734
20
28.7370844
40
1.9290105
50
89.4805959
51
103.8804818
0
ARC
8
top_labelLayer
10
129.7119869
20
29.3543123
40
1.2909559
50
103.4685247
51
142.3118945
0
ARC
8
top_labelLayer
10
130.0270952
20
29.1327055
40
1.6758882
50
142.902573
51
162.374969
0
ARC
8
top_labelLayer
10
131.0199933
20
28.8018233
40
2.7224045
50
162.0652912
51
173.1675107
0
ARC
8
top_labelLayer
10
132.5682373
20
28.6043544
40
4.283162
50
173.0086384
51
180.2463635
0
LINE
8
top_labelLayer
10
134.5937086
20
26.59375
11
134.5351149
21
26.59375
0
LINE
8
top_labelLayer
10
134.5937086
20
25.7050781
11
134.5937086
21
23.5029297
0
LINE
8
top_labelLayer
10
134.5937086
20
23.5029297
11
133.7831618
21
23.5029297
0
LINE
8
top_labelLayer
10
133.7831618
20
23.5029297
11
133.7831618
21
31.2568359
0
LINE
8
top_labelLayer
10
133.7831618
20
31.2568359
11
134.4423415
21
31.2568359
0
LINE
8
top_labelLayer
10
134.4423415
20
31.2568359
11
134.5546461
21
30.5244141
0
LINE
8
top_labelLayer
10
134.5546461
20
30.5244141
11
134.5937086
21
30.5244141
0
LINE
8
top_labelLayer
10
134.5937086
20
28.7666016
11
134.5937086
21
28.5859375
0
ARC
8
top_labelLayer
10
136.2597266
20
28.2661393
40
2.4585602
50
255.7755328
51
270.3185644
0
ARC
8
top_labelLayer
10
136.1895668
20
27.9544276
40
2.1391827
50
245.9801635
51
255.5455786
0
ARC
8
top_labelLayer
10
136.0536729
20
27.6384044
40
1.7952153
50
215.5850173
51
245.8361589
0
ARC
8
top_labelLayer
10
126.9248092
20
25.6320652
40
7.6708272
50
2.9503421
51
7.202072
0
ARC
8
top_labelLayer
10
128.165841
20
25.7015039
40
6.4278687
50
0.0318598
51
2.9015829
0
ARC
8
top_labelLayer
10
136.3791902
20
29.2704676
40
2.1818172
50
132.356552
51
144.919572
0
ARC
8
top_labelLayer
10
136.0449503
20
29.6351104
40
1.6871672
50
115.400654
51
132.3118342
0
ARC
8
top_labelLayer
10
136.1753209
20
29.3177349
40
2.029867
50
97.7066245
51
114.8821546
0
ARC
8
top_labelLayer
10
136.2663729
20
28.7272397
40
2.627262
50
89.8468354
51
97.9474683
0
ARC
8
top_labelLayer
10
136.2984823
20
28.8700868
40
2.484532
50
74.1923401
51
90.5785211
0
ARC
8
top_labelLayer
10
136.4703984
20
29.495035
40
1.8363933
50
38.0523428
51
74.0417395
0
ARC
8
top_labelLayer
10
135.9962253
20
29.1316012
40
2.4338013
50
16.3355933
51
37.9090649
0
ARC
8
top_labelLayer
10
134.7505632
20
28.7479286
40
3.7371323
50
4.5766409
51
16.6088861
0
ARC
8
top_labelLayer
10
133.2170396
20
28.5951204
40
5.2780443
50
359.9003153
51
4.9018431
0
ARC
8
top_labelLayer
10
133.7427428
20
28.5578994
40
4.7524157
50
350.6562637
51
0.3380338
0
ARC
8
top_labelLayer
10
135.3995089
20
28.2761002
40
3.0718929
50
335.8305818
51
350.8254823
0
ARC
8
top_labelLayer
10
136.128287
20
27.9615486
40
2.2782403
50
321.3161731
51
335.5436156
0
ARC
8
top_labelLayer
10
136.4069103
20
27.7345147
40
1.9188461
50
274.0640057
51
321.4080958
0
ARC
8
top_labelLayer
10
136.2771129
20
28.5566828
40
2.749068
50
269.9225351
51
275.5481821
0
ARC
8
top_labelLayer
10
136.1395127
20
28.3305853
40
2.33549
50
89.5904016
51
100.3501984
0
ARC
8
top_labelLayer
10
135.9729748
20
29.2054705
40
1.4449353
50
100.0868045
51
118.1918041
0
ARC
8
top_labelLayer
10
135.8023689
20
29.5382062
40
1.071095
50
118.5569162
51
141.0243638
0
ARC
8
top_labelLayer
10
136.062345
20
29.3548235
40
1.3887079
50
141.8890966
51
160.5972732
0
ARC
8
top_labelLayer
10
136.9759916
20
29.0195831
40
2.3618686
50
160.2896186
51
171.2452501
0
ARC
8
top_labelLayer
10
138.4781747
20
28.7773854
40
3.8834283
50
171.0868588
51
178.3247217
0
ARC
8
top_labelLayer
10
139.7515842
20
28.7168565
40
5.1581154
50
178.0661849
51
179.4474286
0
ARC
8
top_labelLayer
10
139.9529468
20
28.5650123
40
5.359279
50
179.7762894
51
185.707537
0
ARC
8
top_labelLayer
10
137.8399759
20
28.3473
40
3.2351383
50
185.5924778
51
194.2050433
0
ARC
8
top_labelLayer
10
136.4864207
20
27.9960066
40
1.8367838
50
193.9430285
51
208.0218386
0
ARC
8
top_labelLayer
10
135.9387599
20
27.7173955
40
1.222485
50
208.5536292
51
217.5606204
0
ARC
8
top_labelLayer
10
135.8941536
20
27.6988443
40
1.1758828
50
218.1690397
51
253.8047404
0
ARC
8
top_labelLayer
10
136.1122587
20
28.3712831
40
1.8825966
50
253.1382412
51
266.848293
0
ARC
8
top_labelLayer
10
136.1734207
20
29.0925436
40
2.6062167
50
266.3775019
51
270.0509848
0
ARC
8
top_labelLayer
10
136.1941964
20
27.8519418
40
1.3657384
50
269.2256854
51
292.0430669
0
ARC
8
top_labelLayer
10
136.2126237
20
27.7421254
40
1.2572653
50
293.1429697
51
324.1354019
0
ARC
8
top_labelLayer
10
135.9389612
20
27.973842
40
1.6150321
50
323.161422
51
325.0153252
0
ARC
8
top_labelLayer
10
135.64567
20
28.1557111
40
1.9596967
50
325.5753497
51
344.150479
0
ARC
8
top_labelLayer
10
134.6315713
20
28.4554896
40
3.0171362
50
343.9336248
51
355.1137685
0
ARC
8
top_labelLayer
10
133.3369942
20
28.586852
40
4.318247
50
354.8402253
51
0.1174389
0
ARC
8
top_labelLayer
10
133.5649982
20
28.6163445
40
4.090286
50
359.7108596
51
7.8610203
0
ARC
8
top_labelLayer
10
135.0522303
20
28.8283426
40
2.588043
50
7.7149895
51
19.885945
0
ARC
8
top_labelLayer
10
135.8701717
20
29.1237857
40
1.7183796
50
19.8991313
51
35.8980106
0
ARC
8
top_labelLayer
10
136.2350062
20
29.4000833
40
1.2608744
50
35.4481557
51
85.2266588
0
ARC
8
top_labelLayer
10
136.1587901
20
28.9221482
40
1.7438694
50
84.0378358
51
90.0848154
0
LINE
8
back_outsideCutPath
10
0
20
106
11
0
21
96.75
0
LINE
8
back_outsideCutPath
10
0
20
96.75
11
3
21
96.75
0
LINE
8
back_outsideCutPath
10
3
20
96.75
11
3
21
86.25
0
LINE
8
back_outsideCutPath
10
3
20
86.25
11
0
21
86.25
0
LINE
8
back_outsideCutPath
10
0
20
86.25
11
0
21
75.75
0
LINE
8
back_outsideCutPath
10
0
20
75.75
11
3
21
75.75
0
LINE
8
back_outsideCutPath
10
3
20
75.75
11
3
21
65.25
0
LINE
8
back_outsideCutPath
10
3
20
65.25
11
0
21
65.25
0
LINE
8
back_outsideCutPath
10
0
20
65.25
11
0
21
56
0
LINE
8
back_outsideCutPath
10
0
20
56
11
9.25
21
56
0
LINE
8
back_outsideCutPath
10
9.25
20
56
11
9.25
21
59
0
LINE
8
back_outsideCutPath
10
9.25
20
59
11
19.75
21
59
0
LINE
8
back_outsideCutPath
10
19.75
20
59
11
19.75
21
56
0
LINE
8
back_outsideCutPath
10
19.75
20
56
11
30.25
21
56
0
LINE
8
back_outsideCutPath
10
30.25
20
56
11
30.25
21
59
0
LINE
8
back_outsideCutPath
10
30.25
20
59
11
40.75
21
59
0
LINE
8
back_outsideCutPath
10
40.75
20
59
11
40.75
21
56
0
LINE
8
back_outsideCutPath
10
40.75
20
56
11
50
21
56
0
LINE
8
back_outsideCutPath
10
50
20
56
11
50
21
65.25
0
LINE
8
back_outsideCutPath
10
50
20
65.25
11
47
21
65.25
0
LINE
8
back_outsideCutPath
10
47
20
65.25
11
47
21
75.75
0
LINE
8
back_outsideCutPath
10
47
20
75.75
11
50
21
75.75
0
LINE
8
back_outsideCutPath
10
50
20
75.75
11
50
21
86.25
0
LINE
8
back_outsideCutPath
10
50
20
86.25
11
47
21
86.25
0
LINE
8
back_outsideCutPath
10
47
20
86.25
11
47
21
96.75
0
LINE
8
back_outsideCutPath
10
47
20
96.75
11
50
21
96.75
0
LINE
8
back_outsideCutPath
10
50
20
96.75
11
50
21
106
0
LINE
8
back_outsideCutPath
10
50
20
106
11
40.75
21
106
0
LINE
8
back_outsideCutPath
10
40.75
20
106
11
40.75
21
103
0
LINE
8
back_outsideCutPath
10
40.75
20
103
11
30.25
21
103
0
LINE
8
back_outsideCutPath
10
30.25
20
103
11
30.25
21
106
0
LINE
8
back_outsideCutPath
10
30.25
20
106
11
19.75
21
106
0
LINE
8
back_outsideCutPath
10
19.75
20
106
11
19.75
21
103
0
LINE
8
back_outsideCutPath
10
19.75
20
103
11
9.25
21
103
0
LINE
8
back_outsideCutPath
10
9.25
20
103
11
9.25
21
106
0
LINE
8
back_outsideCutPath
10
9.25
20
106
11
0
21
106
0
LINE
8
back_labelLayer
10
15.4443359
20
77.9385317
11
15.3857422
21
77.9385317
0
LINE
8
back_labelLayer
10
15.3857422
20
77.9385317
11
15.2148438
21
77.2500552
0
LINE
8
back_labelLayer
10
15.2148438
20
77.2500552
11
14.6337891
21
77.2500552
0
LINE
8
back_labelLayer
10
14.6337891
20
77.2500552
11
14.6337891
21
84.8477114
0
LINE
8
back_labelLayer
10
14.6337891
20
84.8477114
11
15.4443359
21
84.8477114
0
LINE
8
back_labelLayer
10
15.4443359
20
84.8477114
11
15.4443359
21
83.0020083
0
LINE
8
back_labelLayer
10
15.4052734
20
81.888727
11
15.4443359
21
81.888727
0
ARC
8
back_labelLayer
10
17.1483387
20
80.212314
40
2.4773136
50
74.2393369
51
90.5623769
0
ARC
8
back_labelLayer
10
17.3121481
20
80.8132544
40
1.8544803
50
38.5631099
51
74.0670539
0
ARC
8
back_labelLayer
10
16.8905935
20
80.4854707
40
2.3884445
50
16.4709351
51
38.4075227
0
ARC
8
back_labelLayer
10
15.6761757
20
80.104664
40
3.6610562
50
5.1338261
51
16.7973539
0
ARC
8
back_labelLayer
10
14.1430841
20
79.9418058
40
5.2026308
50
359.8779055
51
5.4093721
0
ARC
8
back_labelLayer
10
14.5933701
20
79.9026811
40
4.7524157
50
350.6562637
51
0.3380338
0
ARC
8
back_labelLayer
10
16.2501362
20
79.6208819
40
3.0718929
50
335.8305818
51
350.8254823
0
ARC
8
back_labelLayer
10
16.9789143
20
79.3063304
40
2.2782403
50
321.3161731
51
335.5436156
0
ARC
8
back_labelLayer
10
17.2575376
20
79.0792964
40
1.9188461
50
274.0640057
51
321.4080958
0
ARC
8
back_labelLayer
10
17.1277402
20
79.9014645
40
2.749068
50
269.9225351
51
275.5481821
0
ARC
8
back_labelLayer
10
17.1103539
20
79.6109211
40
2.4585602
50
255.7755328
51
270.3185644
0
ARC
8
back_labelLayer
10
17.0401941
20
79.2992093
40
2.1391827
50
245.9801635
51
255.5455786
0
ARC
8
back_labelLayer
10
16.9043002
20
78.9831861
40
1.7952153
50
215.5850173
51
245.8361589
0
ARC
8
back_labelLayer
10
-1.4549548
20
82.9877217
40
16.8992968
50
358.1123237
51
0.0484375
0
ARC
8
back_labelLayer
10
3.2480518
20
82.8298379
40
12.193642
50
355.7238931
51
358.1258568
0
ARC
8
back_labelLayer
10
5.3613915
20
82.6843065
40
10.0753416
50
355.4710374
51
355.6530914
0
ARC
8
back_labelLayer
10
16.9559704
20
80.834624
40
1.8428706
50
95.1835114
51
145.1109093
0
ARC
8
back_labelLayer
10
17.1179518
20
79.9212095
40
2.7683056
50
89.8743348
51
96.8145689
0
ARC
8
back_labelLayer
10
16.9898658
20
79.7331653
40
2.2776953
50
89.5731104
51
100.7324481
0
ARC
8
back_labelLayer
10
16.8212528
20
80.5850511
40
1.409329
50
100.4469364
51
119.6700776
0
ARC
8
back_labelLayer
10
16.6648987
20
80.8773742
40
1.0779725
50
120.1403067
51
142.4248671
0
ARC
8
back_labelLayer
10
16.9235789
20
80.7062504
40
1.3875184
50
143.3382683
51
161.2559699
0
ARC
8
back_labelLayer
10
18.005331
20
80.3221943
40
2.5353622
50
160.8926676
51
171.2333994
0
ARC
8
back_labelLayer
10
19.8111893
20
80.0308693
40
4.3645426
50
171.0667954
51
177.8456541
0
ARC
8
back_labelLayer
10
21.6893737
20
79.9353507
40
6.2450395
50
177.6176903
51
180.0424917
0
ARC
8
back_labelLayer
10
20.8035741
20
79.9097941
40
5.359279
50
179.7762894
51
185.707537
0
ARC
8
back_labelLayer
10
18.6906032
20
79.6920817
40
3.2351383
50
185.5924778
51
194.2050433
0
ARC
8
back_labelLayer
10
17.337048
20
79.3407883
40
1.8367838
50
193.9430285
51
208.0218386
0
ARC
8
back_labelLayer
10
16.7893872
20
79.0621772
40
1.222485
50
208.5536292
51
217.5606204
0
ARC
8
back_labelLayer
10
16.7447809
20
79.043626
40
1.1758828
50
218.1690397
51
253.8047404
0
ARC
8
back_labelLayer
10
16.962886
20
79.7160648
40
1.8825966
50
253.1382412
51
266.848293
0
ARC
8
back_labelLayer
10
17.024048
20
80.4373254
40
2.6062167
50
266.3775019
51
270.0509848
0
ARC
8
back_labelLayer
10
17.0436574
20
79.446832
40
1.6158147
50
269.3868884
51
285.8630892
0
ARC
8
back_labelLayer
10
17.1637031
20
79.0129744
40
1.1656704
50
286.0162669
51
326.8497557
0
ARC
8
back_labelLayer
10
16.5843075
20
79.3968044
40
1.860661
50
326.7104772
51
343.6661994
0
ARC
8
back_labelLayer
10
15.4997146
20
79.7282227
40
2.9947132
50
343.417116
51
353.6369418
0
ARC
8
back_labelLayer
10
13.8615481
20
79.922606
40
4.6443457
50
353.4934558
51
0.2205656
0
ARC
8
back_labelLayer
10
13.7170759
20
79.9598669
40
4.7888227
50
359.7681031
51
6.3094901
0
ARC
8
back_labelLayer
10
15.5209548
20
80.1668709
40
2.9731302
50
6.1648447
51
16.039627
0
ARC
8
back_labelLayer
10
16.6829547
20
80.5093113
40
1.7617672
50
15.7779417
51
32.0151137
0
ARC
8
back_labelLayer
10
17.0453942
20
80.7168756
40
1.3445099
50
32.7033248
51
35.52437
0
ARC
8
back_labelLayer
10
17.1778364
20
80.8110128
40
1.1820211
50
35.5408567
51
79.8010998
0
ARC
8
back_labelLayer
10
17.019103
20
80.1362019
40
1.8746357
50
78.6781387
51
90.374928
0
LINE
8
back_labelLayer
10
24.6533203
20
77.2500552
11
24.0527344
21
77.2500552
0
LINE
8
back_labelLayer
10
24.0527344
20
77.2500552
11
23.8916016
21
78.0117739
0
LINE
8
back_labelLayer
10
23.8916016
20
78.0117739
11
23.8525391
21
78.0117739
0
LINE
8
back_labelLayer
10
22.9541016
20
80.4287661
11
23.8623047
21
80.458063
0
LINE
8
back_labelLayer
10
23.8623047
20
80.458063
11
23.8623047
21
80.7900942
0
LINE
8
back_labelLayer
10
21.2109375
20
81.6104067
11
20.9619141
21
82.2305239
0
LINE
8
back_labelLayer
10
24.6533203
20
80.9023989
11
24.6533203
21
77.2500552
0
LINE
8
back_labelLayer
10
23.8427734
20
79.3984927
11
23.8427734
21
79.8818911
0
LINE
8
back_labelLayer
10
23.8427734
20
79.8818911
11
23.0322266
21
79.8477114
0
ARC
8
back_labelLayer
10
21.2153592
20
80.0939545
40
3.3600883
50
314.7444692
51
321.7072073
0
ARC
8
back_labelLayer
10
22.0408544
20
79.2551869
40
2.1832506
50
304.8485905
51
314.8530259
0
ARC
8
back_labelLayer
10
22.4374319
20
78.6907019
40
1.4933923
50
294.3932757
51
304.7371361
0
ARC
8
back_labelLayer
10
22.3019463
20
79.0417557
40
1.8691882
50
281.2979935
51
293.7313664
0
ARC
8
back_labelLayer
10
22.1228441
20
79.9097913
40
2.7554963
50
272.9335334
51
281.4138765
0
ARC
8
back_labelLayer
10
22.0634774
20
80.8001416
40
3.6477439
50
269.9539691
51
273.1490833
0
ARC
8
back_labelLayer
10
22.0429754
20
79.6398007
40
2.4874639
50
258.6719934
51
270.4047425
0
ARC
8
back_labelLayer
10
21.8701932
20
78.8132754
40
1.6431166
50
238.3273112
51
258.91837
0
ARC
8
back_labelLayer
10
21.7511248
20
78.5960477
40
1.3957816
50
227.7688999
51
237.8049792
0
ARC
8
back_labelLayer
10
21.7138817
20
78.5440582
40
1.3322752
50
192.0827591
51
227.4520731
0
ARC
8
back_labelLayer
10
22.4007458
20
78.7133766
40
2.0394816
50
179.5457054
51
192.694923
0
ARC
8
back_labelLayer
10
21.7626546
20
78.7872223
40
1.4025129
50
115.4904586
51
182.3568144
0
ARC
8
back_labelLayer
10
22.4650506
20
77.4988814
40
2.8688302
50
101.3568336
51
117.0798447
0
ARC
8
back_labelLayer
10
23.0291382
20
74.8628407
40
5.5644398
50
92.4696437
51
101.7064814
0
ARC
8
back_labelLayer
10
23.1912467
20
72.5151376
40
7.9171809
50
91.7164503
51
92.9096168
0
ARC
8
back_labelLayer
10
21.5342509
20
80.8025537
40
2.3280871
50
359.6933623
51
8.003599
0
ARC
8
back_labelLayer
10
22.4149281
20
80.9308511
40
1.4381317
50
7.8272536
51
20.604216
0
ARC
8
back_labelLayer
10
22.9132754
20
81.121495
40
0.9045776
50
20.4094154
51
41.4479086
0
ARC
8
back_labelLayer
10
22.9869085
20
81.1619676
40
0.8228008
50
42.7295818
51
71.0379845
0
ARC
8
back_labelLayer
10
22.8135567
20
80.6906243
40
1.3249392
50
70.5715573
51
83.9929016
0
ARC
8
back_labelLayer
10
22.7307353
20
80.0178796
40
2.0026929
50
83.6506517
51
90.1752588
0
ARC
8
back_labelLayer
10
22.7452654
20
79.3816777
40
2.6389661
50
90.4484775
51
103.7665549
0
ARC
8
back_labelLayer
10
23.0555914
20
78.0730166
40
3.9838937
50
103.6226473
51
112.4320058
0
ARC
8
back_labelLayer
10
23.5875048
20
76.7299707
40
5.4283263
50
112.2122142
51
115.9641361
0
ARC
8
back_labelLayer
10
22.7356736
20
78.9411091
40
3.7371745
50
106.3568649
51
118.334991
0
ARC
8
back_labelLayer
10
22.8949029
20
78.4492264
40
4.2540146
50
104.5162698
51
106.5489433
0
ARC
8
back_labelLayer
10
22.7781183
20
78.9357769
40
3.7537344
50
90.0714455
51
104.6521131
0
ARC
8
back_labelLayer
10
22.7928509
20
79.2662701
40
3.4232932
50
81.5679687
51
90.3249253
0
ARC
8
back_labelLayer
10
22.9907819
20
80.5557261
40
2.1187623
50
68.2273295
51
81.7494406
0
ARC
8
back_labelLayer
10
23.2664677
20
81.2416525
40
1.3795102
50
47.8682816
51
68.293447
0
ARC
8
back_labelLayer
10
23.3112075
20
81.3309873
40
1.2835248
50
19.2331228
51
46.6740973
0
ARC
8
back_labelLayer
10
22.5658434
20
81.0537108
40
2.0786891
50
6.3379147
51
19.6815393
0
ARC
8
back_labelLayer
10
21.4639964
20
80.913381
40
3.1893429
50
359.8027088
51
6.6583528
0
ARC
8
back_labelLayer
10
22.2380705
20
80.0529495
40
2.2316655
50
269.5791782
51
282.0413657
0
ARC
8
back_labelLayer
10
22.4008545
20
79.330909
40
1.4915767
50
281.7120981
51
306.4594203
0
ARC
8
back_labelLayer
10
22.4730223
20
79.2122211
40
1.3532905
50
306.9881321
51
313.8558413
0
ARC
8
back_labelLayer
10
22.46445
20
79.2097445
40
1.3574668
50
314.1891717
51
347.4270019
0
ARC
8
back_labelLayer
10
21.7844634
20
79.380147
40
2.058322
50
346.9177471
51
0.2824852
0
ARC
8
back_labelLayer
10
21.300419
20
79.3984257
40
2.5423544
50
359.8167644
51
0.0015087
0
ARC
8
back_labelLayer
10
23.2250241
20
73.8994197
40
5.9514154
50
91.8564352
51
96.4478741
0
ARC
8
back_labelLayer
10
22.9566416
20
76.2217928
40
3.6135982
50
96.3545788
51
102.9953028
0
ARC
8
back_labelLayer
10
22.5923096
20
77.7697369
40
2.0233834
50
102.7995495
51
113.2432676
0
ARC
8
back_labelLayer
10
22.2919634
20
78.4880537
40
1.2448621
50
113.5886592
51
121.68053
0
ARC
8
back_labelLayer
10
22.0832956
20
78.805848
40
0.8648997
50
120.9733979
51
172.4179742
0
ARC
8
back_labelLayer
10
22.4911557
20
78.7243817
40
1.2802263
50
171.2122595
51
180.2058707
0
ARC
8
back_labelLayer
10
22.3692547
20
78.71021
40
1.1583568
50
179.5265503
51
192.7787762
0
ARC
8
back_labelLayer
10
21.9774081
20
78.6152237
40
0.7552295
50
192.326445
51
222.0579919
0
ARC
8
back_labelLayer
10
21.948234
20
78.5977661
40
0.7219041
50
222.5803633
51
229.254904
0
ARC
8
back_labelLayer
10
22.0467552
20
78.7246019
40
0.8823396
50
229.7837096
51
254.2723959
0
ARC
8
back_labelLayer
10
22.1779342
20
79.1617453
40
1.3386973
50
253.9396744
51
266.4533722
0
ARC
8
back_labelLayer
10
22.2198048
20
79.6443775
40
1.8230343
50
266.0782862
51
270.0589254
0
LINE
8
back_labelLayer
10
29.8925781
20
82.4209536
11
29.6435547
21
81.732477
0
LINE
8
back_labelLayer
10
29.8144531
20
78.1484927
11
29.8144531
21
77.4307192
0
ARC
8
back_labelLayer
10
28.4360601
20
80.181618
40
3.0293294
50
256.4243478
51
270.4889993
0
ARC
8
back_labelLayer
10
28.1939883
20
79.2368384
40
2.0541696
50
221.7976346
51
256.8020516
0
ARC
8
back_labelLayer
10
28.4284088
20
79.410042
40
2.3445282
50
196.0166623
51
221.1349134
0
ARC
8
back_labelLayer
10
29.6065661
20
79.7701496
40
3.5763731
50
183.5913484
51
196.3539821
0
ARC
8
back_labelLayer
10
30.9263095
20
79.8864234
40
4.9009217
50
179.9388181
51
183.9815557
0
ARC
8
back_labelLayer
10
30.4975882
20
79.9204497
40
4.4722903
50
169.8978523
51
180.3688773
0
ARC
8
back_labelLayer
10
28.9406781
20
80.2084534
40
2.8890196
50
153.0875198
51
170.1051203
0
ARC
8
back_labelLayer
10
28.3499465
20
80.4907227
40
2.2345568
50
138.6549922
51
152.6853911
0
ARC
8
back_labelLayer
10
28.239701
20
80.5710613
40
2.0987566
50
101.4912998
51
138.3133758
0
ARC
8
back_labelLayer
10
28.4928122
20
79.5176393
40
3.1817164
50
89.5891871
51
102.1787778
0
ARC
8
back_labelLayer
10
28.5122749
20
79.0414994
40
3.657776
50
77.770258
51
89.9475229
0
ARC
8
back_labelLayer
10
28.4430825
20
78.6597306
40
4.0455599
50
74.6796032
51
77.9578957
0
ARC
8
back_labelLayer
10
28.8170059
20
80.0143621
40
2.6402722
50
70.0946306
51
74.73862
0
ARC
8
back_labelLayer
10
29.1727441
20
80.989266
40
1.6024973
50
63.5034062
51
70.1862266
0
ARC
8
back_labelLayer
10
29.3430462
20
81.345768
40
1.2074806
50
62.9282302
51
63.1884379
0
ARC
8
back_labelLayer
10
28.3120438
20
78.381529
40
3.6057973
50
68.3294284
51
74.8831657
0
ARC
8
back_labelLayer
10
28.1218383
20
77.7071156
40
4.3064836
50
74.7801279
51
77.4497748
0
ARC
8
back_labelLayer
10
28.3215139
20
78.6443718
40
3.3482452
50
77.2999253
51
81.7344623
0
ARC
8
back_labelLayer
10
28.4672002
20
79.6594866
40
2.3227315
50
81.6910236
51
87.5079183
0
ARC
8
back_labelLayer
10
28.4952996
20
80.184549
40
1.7969516
50
87.6750731
51
89.9746785
0
ARC
8
back_labelLayer
10
28.455913
20
80.1840359
40
1.7979136
50
88.7194161
51
112.5667584
0
ARC
8
back_labelLayer
10
28.3281585
20
80.606425
40
1.3595548
50
114.4265677
51
161.6632888
0
ARC
8
back_labelLayer
10
29.5972595
20
80.109684
40
2.7214507
50
160.1418249
51
175.1368334
0
ARC
8
back_labelLayer
10
31.3440452
20
79.9135328
40
4.4788273
50
174.5309798
51
180.1549241
0
ARC
8
back_labelLayer
10
30.7906549
20
79.8811532
40
3.9254728
50
179.704153
51
188.0743382
0
ARC
8
back_labelLayer
10
29.3767236
20
79.674281
40
2.4965092
50
187.9314992
51
200.3885623
0
ARC
8
back_labelLayer
10
28.6122254
20
79.3910728
40
1.6812404
50
200.41835
51
216.6392747
0
ARC
8
back_labelLayer
10
28.2917253
20
79.1619549
40
1.287358
50
216.969528
51
261.3102992
0
ARC
8
back_labelLayer
10
28.4331695
20
79.8214027
40
1.9610176
50
260.1359953
51
270.2691898
0
ARC
8
back_labelLayer
10
28.4266397
20
81.253418
40
3.3930478
50
270.2658435
51
286.2891391
0
ARC
8
back_labelLayer
10
28.2203828
20
82.0226276
40
4.1892698
50
286.0460442
51
292.365443
0
ARC
8
back_labelLayer
10
28.7697001
20
79.4859978
40
2.3055756
50
282.0344105
51
296.9454475
0
ARC
8
back_labelLayer
10
28.5325833
20
80.5545875
40
3.4001314
50
272.5980721
51
282.1878492
0
ARC
8
back_labelLayer
10
28.4645937
20
81.5973826
40
4.4449843
50
269.965459
51
272.8642568
0
LINE
8
back_labelLayer
10
31.8457031
20
79.989313
11
31.8847656
21
79.989313
0
LINE
8
back_labelLayer
10
32.5244141
20
80.770563
11
34.2529297
21
82.6016177
0
LINE
8
back_labelLayer
10
34.2529297
20
82.6016177
11
35.2148438
21
82.6016177
0
LINE
8
back_labelLayer
10
35.2148438
20
82.6016177
11
33.046875
21
80.3213442
0
LINE
8
back_labelLayer
10
33.046875
20
80.3213442
11
35.3662109
21
77.2500552
0
LINE
8
back_labelLayer
10
35.3662109
20
77.2500552
11
34.3847656
21
77.2500552
0
LINE
8
back_labelLayer
10
34.3847656
20
77.2500552
11
32.4951172
21
79.779352
0
LINE
8
back_labelLayer
10
32.4951172
20
79.779352
11
31.8847656
21
79.2520083
0
LINE
8
back_labelLayer
10
31.8847656
20
79.2520083
11
31.8847656
21
77.2500552
0
LINE
8
back_labelLayer
10
31.8847656
20
77.2500552
11
31.0839844
21
77.2500552
0
LINE
8
back_labelLayer
10
31.0839844
20
77.2500552
11
31.0839844
21
84.8477114
0
LINE
8
back_labelLayer
10
31.0839844
20
84.8477114
11
31.8847656
21
84.8477114
0
LINE
8
back_labelLayer
10
31.8847656
20
84.8477114
11
31.8847656
21
80.8193911
0
ARC
8
back_labelLayer
10
35.8010809
20
77.2171832
40
4.7981485
50
142.323318
51
144.7075621
0
ARC
8
back_labelLayer
10
38.3565609
20
75.2460848
40
8.0254857
50
140.4331205
51
142.3365422
0
ARC
8
back_labelLayer
10
41.6863473
20
72.5050818
40
12.3383192
50
139.2798925
51
140.470333
0
ARC
8
back_labelLayer
10
45.5361222
20
69.1945411
40
17.4157638
50
138.3417265
51
139.2877204
0
ARC
8
back_labelLayer
10
26.4828931
20
80.8295073
40
5.401882
50
358.2739962
51
359.8927009
0
ARC
8
back_labelLayer
10
22.2803974
20
80.9466361
40
9.6060036
50
357.5041884
51
358.3306779
0
ARC
8
back_labelLayer
10
15.9938413
20
81.2242941
40
15.8986878
50
356.6324712
51
357.4910779
0
ARC
8
back_labelLayer
10
5.5349181
20
81.8343052
40
26.3753842
50
356.0329322
51
356.6442148
0
ARC
8
back_labelLayer
10
-1.8331844
20
82.3318723
40
33.7602586
50
356.021159
51
356.0556283
0
LINE
8
right_outsideCutPath
10
56
20
106
11
56
21
96.75
0
LINE
8
right_outsideCutPath
10
56
20
96.75
11
53
21
96.75
0
LINE
8
right_outsideCutPath
10
53
20
96.75
11
53
21
86.25
0
LINE
8
right_outsideCutPath
10
53
20
86.25
11
56
21
86.25
0
LINE
8
right_outsideCutPath
10
56
20
86.25
11
56
21
75.75
0
LINE
8
right_outsideCutPath
10
56
20
75.75
11
53
21
75.75
0
LINE
8
right_outsideCutPath
10
53
20
75.75
11
53
21
65.25
0
LINE
8
right_outsideCutPath
10
53
20
65.25
11
56
21
65.25
0
LINE
8
right_outsideCutPath
10
56
20
65.25
11
56
21
56
0
LINE
8
right_outsideCutPath
10
56
20
56
11
62.25
21
56
0
LINE
8
right_outsideCutPath
10
62.25
20
56
11
62.25
21
59
0
LINE
8
right_outsideCutPath
10
62.25
20
59
11
72.75
21
59
0
LINE
8
right_outsideCutPath
10
72.75
20
59
11
72.75
21
56
0
LINE
8
right_outsideCutPath
10
72.75
20
56
11
83.25
21
56
0
LINE
8
right_outsideCutPath
10
83.25
20
56
11
83.25
21
59
0
LINE
8
right_outsideCutPath
10
83.25
20
59
11
93.75
21
59
0
LINE
8
right_outsideCutPath
10
93.75
20
59
11
93.75
21
56
0
LINE
8
right_outsideCutPath
10
93.75
20
56
11
100
21
56
0
LINE
8
right_outsideCutPath
10
100
20
56
11
100
21
65.25
0
LINE
8
right_outsideCutPath
10
100
20
65.25
11
103
21
65.25
0
LINE
8
right_outsideCutPath
10
103
20
65.25
11
103
21
75.75
0
LINE
8
right_outsideCutPath
10
103
20
75.75
11
100
21
75.75
0
LINE
8
right_outsideCutPath
10
100
20
75.75
11
100
21
86.25
0
LINE
8
right_outsideCutPath
10
100
20
86.25
11
103
21
86.25
0
LINE
8
right_outsideCutPath
10
103
20
86.25
11
103
21
96.75
0
LINE
8
right_outsideCutPath
10
103
20
96.75
11
100
21
96.75
0
LINE
8
right_outsideCutPath
10
100
20
96.75
11
100
21
106
0
LINE
8
right_outsideCutPath
10
100
20
106
11
93.75
21
106
0
LINE
8
right_outsideCutPath
10
93.75
20
106
11
93.75
21
103
0
LINE
8
right_outsideCutPath
10
93.75
20
103
11
83.25
21
103
0
LINE
8
right_outsideCutPath
10
83.25
20
103
11
83.25
21
106
0
LINE
8
right_outsideCutPath
10
83.25
20
106
11
72.75
21
106
0
LINE
8
right_outsideCutPath
10
72.75
20
106
11
72.75
21
103
0
LINE
8
right_outsideCutPath
10
72.75
20
103
11
62.25
21
103
0
LINE
8
right_outsideCutPath
10
62.25
20
103
11
62.25
21
106
0
LINE
8
right_outsideCutPath
10
62.25
20
106
11
56
21
106
0
LINE
8
right_labelLayer
10
70.7368164
20
83.7929982
11
70.6245117
21
83.0410451
0
LINE
8
right_labelLayer
10
68.4663086
20
81.2734669
11
68.4663086
21
78.4023732
0
LINE
8
right_labelLayer
10
68.4663086
20
78.4023732
11
67.6557617
21
78.4023732
0
LINE
8
right_labelLayer
10
67.6557617
20
78.4023732
11
67.6557617
21
83.7539357
0
LINE
8
right_labelLayer
10
67.6557617
20
83.7539357
11
68.324707
21
83.7539357
0
LINE
8
right_labelLayer
10
68.324707
20
83.7539357
11
68.4174805
21
82.7627248
0
LINE
8
right_labelLayer
10
68.4174805
20
82.7627248
11
68.456543
21
82.7627248
0
ARC
8
right_labelLayer
10
70.1054855
20
80.1304447
40
3.7211565
50
84.9923433
51
90.1280672
0
ARC
8
right_labelLayer
10
70.1948469
20
81.1317025
40
2.7159207
50
78.4891938
51
85.0265557
0
ARC
8
right_labelLayer
10
69.8479866
20
79.5540851
40
3.5723775
50
77.4454351
51
81.6359953
0
ARC
8
right_labelLayer
10
70.0036379
20
80.6269397
40
2.4882934
50
81.5884875
51
87.1916305
0
ARC
8
right_labelLayer
10
70.0374454
20
81.2131038
40
1.9011837
50
87.3437419
51
89.965981
0
ARC
8
right_labelLayer
10
70.0295914
20
81.7098785
40
1.4044375
50
89.633532
51
137.0880858
0
ARC
8
right_labelLayer
10
70.3744018
20
81.3221558
40
1.9215969
50
135.6210457
51
138.8375526
0
ARC
8
right_labelLayer
10
70.3237605
20
81.3715801
40
1.850945
50
138.957565
51
174.5422151
0
ARC
8
right_labelLayer
10
70.9265588
20
81.2772576
40
2.4602532
50
173.6907228
51
180.0882791
0
ARC
8
right_labelLayer
10
70.8413403
20
81.4191418
40
2.7372383
50
139.4139286
51
150.6033063
0
ARC
8
right_labelLayer
10
70.350549
20
81.8397004
40
2.0909058
50
124.2321186
51
139.4161439
0
ARC
8
right_labelLayer
10
70.0881341
20
82.2358171
40
1.6158002
50
89.6796607
51
124.4405755
0
LINE
8
right_labelLayer
10
72.5483398
20
83.7539357
11
72.5483398
21
78.4023732
0
LINE
8
right_labelLayer
10
72.5483398
20
78.4023732
11
71.737793
21
78.4023732
0
LINE
8
right_labelLayer
10
71.737793
20
78.4023732
11
71.737793
21
83.7539357
0
LINE
8
right_labelLayer
10
71.737793
20
83.7539357
11
72.5483398
21
83.7539357
0
ARC
8
right_labelLayer
10
72.5676169
20
85.2096867
40
0.8982005
50
170.8452915
51
180.3543968
0
ARC
8
right_labelLayer
10
72.2313569
20
85.2659092
40
0.5572822
50
155.9679251
51
171.0516526
0
ARC
8
right_labelLayer
10
72.0684987
20
85.3381599
40
0.379117
50
133.7881081
51
155.9171684
0
ARC
8
right_labelLayer
10
72.1286246
20
85.2716869
40
0.4687179
50
92.6445859
51
133.47105
0
ARC
8
right_labelLayer
10
72.1476142
20
85.1225699
40
0.6186705
50
89.968971
51
93.7642314
0
ARC
8
right_labelLayer
10
72.1553498
20
85.2637341
40
0.4775636
50
46.3708039
51
90.8879225
0
ARC
8
right_labelLayer
10
72.2028783
20
85.312801
40
0.4092544
50
17.7252113
51
46.447314
0
ARC
8
right_labelLayer
10
71.9812306
20
85.2364752
40
0.6436386
50
4.9428885
51
18.190003
0
ARC
8
right_labelLayer
10
71.6992569
20
85.2059936
40
0.92721
50
359.8849053
51
5.3181458
0
ARC
8
right_labelLayer
10
71.7878581
20
85.1984361
40
0.838626
50
349.8344067
51
0.3890841
0
ARC
8
right_labelLayer
10
72.0931604
20
85.1414816
40
0.5280689
50
332.6322604
51
350.0705611
0
ARC
8
right_labelLayer
10
72.2119981
20
85.0828001
40
0.3955643
50
313.6152556
51
332.2678078
0
ARC
8
right_labelLayer
10
72.1547259
20
85.1349479
40
0.4728577
50
269.1788491
51
314.2807599
0
ARC
8
right_labelLayer
10
72.1425764
20
85.176982
40
0.5148712
50
250.4999921
51
270.5979039
0
ARC
8
right_labelLayer
10
72.1269965
20
85.1187211
40
0.4547762
50
225.1301323
51
249.9000798
0
ARC
8
right_labelLayer
10
72.1025993
20
85.0917707
40
0.4184676
50
197.793406
51
224.8942353
0
ARC
8
right_labelLayer
10
72.3309224
20
85.170016
40
0.6597962
50
184.992504
51
198.2041619
0
ARC
8
right_labelLayer
10
72.6264006
20
85.2021359
40
0.9569691
50
179.8805492
51
185.3687424
0
LINE
8
right_labelLayer
10
76.7963867
20
83.7539357
11
78.6469726
21
83.7539357
0
LINE
8
right_labelLayer
10
78.6469726
20
83.7539357
11
78.6469726
21
83.2412404
0
LINE
8
right_labelLayer
10
78.6469726
20
83.2412404
11
77.6557617
21
83.1240529
0
LINE
8
right_labelLayer
10
75.8295898
20
79.2519826
11
76.7768555
21
79.2519826
0
LINE
8
right_labelLayer
10
76.5180664
20
78.5244435
11
75.5463867
21
78.5244435
0
ARC
8
right_labelLayer
10
76.6228444
20
82.3066141
40
1.3172412
50
29.4584355
51
38.357683
0
ARC
8
right_labelLayer
10
76.084581
20
81.9993401
40
1.937031
50
23.1845571
51
29.5422536
0
ARC
8
right_labelLayer
10
75.5710634
20
81.7716087
40
2.4987444
50
21.2506606
51
23.348994
0
ARC
8
right_labelLayer
10
76.4439702
20
82.1187695
40
1.5593805
50
6.8504756
51
20.9871732
0
ARC
8
right_labelLayer
10
76.0047646
20
82.0592215
40
2.0025647
50
359.8711188
51
7.0431717
0
ARC
8
right_labelLayer
10
76.1492873
20
82.0353956
40
1.8581373
50
342.5649641
51
0.5957842
0
ARC
8
right_labelLayer
10
76.491982
20
81.9407645
40
1.5028843
50
310.6097633
51
342.0923725
0
ARC
8
right_labelLayer
10
76.2998098
20
82.164295
40
1.7976656
50
284.9315704
51
310.6222782
0
ARC
8
right_labelLayer
10
76.0593291
20
83.0069742
40
2.673898
50
272.533477
51
285.2579517
0
ARC
8
right_labelLayer
10
75.9974946
20
83.8517434
40
3.5206597
50
269.9692554
51
272.9310998
0
ARC
8
right_labelLayer
10
75.9898267
20
82.9360526
40
2.6049749
50
263.4836517
51
270.1271018
0
ARC
8
right_labelLayer
10
75.9473803
20
82.5329406
40
2.1996532
50
259.4963263
51
263.390514
0
ARC
8
right_labelLayer
10
76.2100018
20
79.0895484
40
1.4423304
50
117.3935117
51
128.4095782
0
ARC
8
right_labelLayer
10
75.838693
20
79.5501833
40
0.8507089
50
128.0882461
51
147.1400085
0
ARC
8
right_labelLayer
10
75.6386476
20
79.6844295
40
0.6098452
50
147.5369052
51
180.2592566
0
ARC
8
right_labelLayer
10
75.4488733
20
79.6764784
40
0.4200968
50
179.2919003
51
198.3580747
0
ARC
8
right_labelLayer
10
75.3702173
20
79.6558064
40
0.3389724
50
199.2291455
51
239.569174
0
ARC
8
right_labelLayer
10
75.4357522
20
79.7464476
40
0.450445
50
238.2210909
51
239.8446227
0
ARC
8
right_labelLayer
10
75.4874629
20
79.8529492
40
0.5685779
50
240.7302515
51
254.5026882
0
ARC
8
right_labelLayer
10
75.6426432
20
80.3876988
40
1.1253684
50
254.163759
51
262.2123805
0
ARC
8
right_labelLayer
10
75.7655661
20
81.2462764
40
1.9926914
50
262.0556566
51
267.2083251
0
ARC
8
right_labelLayer
10
75.8249445
20
82.335395
40
3.0834159
50
267.0919511
51
270.0863196
0
ARC
8
right_labelLayer
10
76.7945749
20
75.9341151
40
3.3179148
50
81.5744542
51
90.305991
0
ARC
8
right_labelLayer
10
76.9765667
20
77.1210468
40
2.117136
50
68.3671719
51
81.7399035
0
ARC
8
right_labelLayer
10
77.2142679
20
77.7285303
40
1.4648131
50
52.187998
51
68.2500504
0
ARC
8
right_labelLayer
10
77.3805976
20
77.9526499
40
1.1857956
50
8.6201441
51
51.8982427
0
ARC
8
right_labelLayer
10
76.7976651
20
77.8293052
40
1.7809662
50
359.7430585
51
9.7326863
0
ARC
8
right_labelLayer
10
76.8237594
20
77.799261
40
1.7549925
50
340.5269055
51
0.7201363
0
ARC
8
right_labelLayer
10
77.0816137
20
77.7350587
40
1.4907021
50
302.9903687
51
339.5494632
0
ARC
8
right_labelLayer
10
76.8111444
20
78.0787088
40
1.9266227
50
303.186871
51
304.1723557
0
ARC
8
right_labelLayer
10
76.5586727
20
78.5157857
40
2.4307644
50
286.2542499
51
302.5279861
0
ARC
8
right_labelLayer
10
76.0996034
20
80.0300159
40
4.0129985
50
276.4939799
51
286.4953491
0
ARC
8
right_labelLayer
10
75.8131723
20
82.4244118
40
6.4244412
50
269.7544952
51
276.6169638
0
ARC
8
right_labelLayer
10
75.7642542
20
80.5412804
40
4.5413013
50
262.5634905
51
270.269874
0
ARC
8
right_labelLayer
10
75.5418319
20
78.8926737
40
2.8777827
50
251.2102119
51
262.7063732
0
ARC
8
right_labelLayer
10
75.2212458
20
77.9517007
40
1.8836975
50
235.9668488
51
251.2228769
0
ARC
8
right_labelLayer
10
74.8814489
20
77.4669405
40
1.2918359
50
208.9036077
51
236.4231289
0
ARC
8
right_labelLayer
10
74.9126442
20
77.453865
40
1.3130936
50
182.2080073
51
207.7461473
0
ARC
8
right_labelLayer
10
75.309583
20
77.4935224
40
1.7114385
50
179.9783168
51
183.0227221
0
ARC
8
right_labelLayer
10
74.8373188
20
77.5159139
40
1.2393651
50
138.3916057
51
181.005266
0
ARC
8
right_labelLayer
10
74.9682008
20
77.3982889
40
1.4153332
50
113.8121851
51
138.3495872
0
ARC
8
right_labelLayer
10
75.2164604
20
76.8621887
40
2.006058
50
102.2870884
51
114.1172558
0
ARC
8
right_labelLayer
10
75.1384495
20
79.5877732
40
0.8412414
50
216.5861457
51
245.4968844
0
ARC
8
right_labelLayer
10
75.2587591
20
79.6898557
40
0.9987424
50
215.4649169
51
217.1747566
0
ARC
8
right_labelLayer
10
75.0582874
20
79.5450591
40
0.7514541
50
182.1767188
51
215.3415444
0
ARC
8
right_labelLayer
10
75.2367913
20
79.5642175
40
0.9306391
50
179.9836838
51
182.93799
0
ARC
8
right_labelLayer
10
75.2330263
20
79.5723173
40
0.9269071
50
161.7225736
51
180.4843014
0
ARC
8
right_labelLayer
10
75.131116
20
79.6001249
40
0.8214362
50
144.4963572
51
161.3350175
0
ARC
8
right_labelLayer
10
75.402767
20
79.3976683
40
1.1601805
50
132.7258382
51
144.1480415
0
ARC
8
right_labelLayer
10
75.838176
20
78.9327058
40
1.7971725
50
125.2212527
51
132.8655526
0
ARC
8
right_labelLayer
10
76.2758453
20
78.3249575
40
2.54609
50
121.2351404
51
125.3795791
0
ARC
8
right_labelLayer
10
75.49992
20
81.814534
40
1.4209547
50
215.1640878
51
247.4747802
0
ARC
8
right_labelLayer
10
75.7652124
20
82.0286275
40
1.7612738
50
212.4714007
51
215.8874468
0
ARC
8
right_labelLayer
10
75.6954129
20
81.9786952
40
1.6755858
50
183.0160742
51
212.3123286
0
ARC
8
right_labelLayer
10
76.063178
20
82.0196786
40
2.0451117
50
179.9759439
51
183.6205654
0
ARC
8
right_labelLayer
10
76.3597983
20
82.0403156
40
2.3418154
50
166.8196024
51
180.4839117
0
ARC
8
right_labelLayer
10
75.5829203
20
82.2364591
40
1.5407407
50
132.3287854
51
167.334073
0
ARC
8
right_labelLayer
10
75.686853
20
82.087064
40
1.721338
50
106.2188756
51
131.5377751
0
ARC
8
right_labelLayer
10
75.9498286
20
81.2355722
40
2.6124343
50
93.6329726
51
106.5408745
0
ARC
8
right_labelLayer
10
76.0356761
20
80.2718479
40
3.5797462
50
89.9379832
51
94.0268513
0
ARC
8
right_labelLayer
10
76.0495784
20
80.7447163
40
3.1068919
50
82.5852419
51
90.1849251
0
ARC
8
right_labelLayer
10
76.1445112
20
81.4792393
40
2.3662599
50
74.0089194
51
82.5694553
0
ARC
8
right_labelLayer
10
75.193381
20
77.4928644
40
0.8140618
50
179.2207509
51
200.9354958
0
ARC
8
right_labelLayer
10
75.096572
20
77.4704491
40
0.7157645
50
202.028696
51
236.1457382
0
ARC
8
right_labelLayer
10
75.242458
20
77.6556787
40
0.9510301
50
235.0634158
51
238.5041866
0
ARC
8
right_labelLayer
10
75.4120896
20
77.9586629
40
1.2980715
50
239.1066419
51
254.486283
0
ARC
8
right_labelLayer
10
75.6382398
20
78.7384234
40
2.1099316
50
254.2324099
51
263.4937053
0
ARC
8
right_labelLayer
10
75.7802935
20
79.9416002
40
3.321459
50
263.4108364
51
270.1457389
0
ARC
8
right_labelLayer
10
75.7955343
20
80.890536
40
4.2703894
50
269.9088677
51
269.9983343
0
ARC
8
right_labelLayer
10
75.8148357
20
82.0689851
40
5.4488731
50
269.7957363
51
275.399144
0
ARC
8
right_labelLayer
10
76.0187736
20
79.9754137
40
3.3454064
50
275.2956682
51
283.3516052
0
ARC
8
right_labelLayer
10
76.3510292
20
78.6069246
40
1.9371928
50
283.1370193
51
295.857327
0
ARC
8
right_labelLayer
10
76.5971879
20
78.0695176
40
1.3462933
50
296.4048994
51
301.8007822
0
ARC
8
right_labelLayer
10
76.6937403
20
77.9364222
40
1.1823577
50
301.2230681
51
318.6238223
0
ARC
8
right_labelLayer
10
76.9114463
20
77.7353191
40
0.8860926
50
319.0765405
51
1.1407031
0
ARC
8
right_labelLayer
10
76.7007433
20
77.7616467
40
1.0966543
50
359.5461056
51
10.9904102
0
ARC
8
right_labelLayer
10
77.1243486
20
77.8478066
40
0.6644034
50
10.6608465
51
30.9361923
0
ARC
8
right_labelLayer
10
77.2586575
20
77.9223444
40
0.510908
50
31.5094741
51
58.0778472
0
ARC
8
right_labelLayer
10
77.1327771
20
77.6969516
40
0.7688744
50
58.9972302
51
73.8586689
0
ARC
8
right_labelLayer
10
76.8783443
20
76.864018
40
1.6397575
50
73.4099835
51
81.5906975
0
ARC
8
right_labelLayer
10
76.6627656
20
75.4689091
40
3.0514079
50
81.4172901
51
86.5756718
0
ARC
8
right_labelLayer
10
76.530661
20
73.3669954
40
5.1574635
50
86.5054509
51
90.1399173
0
ARC
8
right_labelLayer
10
75.534795
20
76.6612654
40
1.8632142
50
89.6435407
51
100.02092
0
ARC
8
right_labelLayer
10
75.4176908
20
77.2983083
40
1.2155211
50
99.8103442
51
116.8229
0
ARC
8
right_labelLayer
10
75.3036075
20
77.538892
40
0.9493686
50
117.2303408
51
130.5024018
0
ARC
8
right_labelLayer
10
75.2450444
20
77.6141583
40
0.8541131
50
130.7944641
51
169.0413514
0
ARC
8
right_labelLayer
10
75.6763601
20
77.5125827
40
1.2969945
50
168.2580908
51
180.3819917
0
ARC
8
right_labelLayer
10
76.4009655
20
82.0279663
40
1.5821641
50
179.5617305
51
191.6528976
0
ARC
8
right_labelLayer
10
75.8508691
20
81.909116
40
1.0194137
50
191.3555176
51
213.3660008
0
ARC
8
right_labelLayer
10
75.718764
20
81.832839
40
0.8671778
50
213.9574379
51
227.7971109
0
ARC
8
right_labelLayer
10
75.8336969
20
81.9722361
40
1.0476806
50
228.262088
51
254.734114
0
ARC
8
right_labelLayer
10
75.9805346
20
82.4756015
40
1.571973
50
254.4016655
51
267.4348567
0
ARC
8
right_labelLayer
10
76.0188429
20
82.9893801
40
2.0870072
50
267.0154826
51
270.0323027
0
ARC
8
right_labelLayer
10
76.0438822
20
82.668035
40
1.7658231
50
269.225704
51
284.37729
0
ARC
8
right_labelLayer
10
76.2845605
20
81.8295041
40
0.8941392
50
282.7796821
51
346.4828474
0
ARC
8
right_labelLayer
10
75.564999
20
82.0333247
40
1.6416832
50
345.436225
51
0.7466245
0
ARC
8
right_labelLayer
10
75.4638538
20
82.079641
40
1.7428674
50
359.180607
51
15.0431853
0
ARC
8
right_labelLayer
10
76.2535755
20
82.3100115
40
0.9205835
50
13.953577
51
77.6673685
0
ARC
8
right_labelLayer
10
76.0269954
20
81.4980473
40
1.7628571
50
76.1094799
51
90.7028433
0
ARC
8
right_labelLayer
10
75.9930802
20
81.5600641
40
1.700752
50
89.5859338
51
101.3334363
0
ARC
8
right_labelLayer
10
75.871539
20
82.1397596
40
1.1084879
50
101.0620546
51
121.973896
0
ARC
8
right_labelLayer
10
75.7861226
20
82.2934204
40
0.9329508
50
122.5211363
51
134.9966864
0
ARC
8
right_labelLayer
10
75.8212892
20
82.2723514
40
0.972766
50
135.5839798
51
163.001602
0
ARC
8
right_labelLayer
10
76.3349901
20
82.1039788
40
1.5132865
50
162.5912121
51
175.734276
0
ARC
8
right_labelLayer
10
76.951166
20
82.0432838
40
2.1323206
50
175.3394328
51
180.0863953
0
LINE
8
right_labelLayer
10
84.2182617
20
78.4023732
11
83.4077148
21
78.4023732
0
LINE
8
right_labelLayer
10
83.4077148
20
78.4023732
11
83.4077148
21
81.8642873
0
LINE
8
right_labelLayer
10
80.5561523
20
81.2002248
11
80.5561523
21
78.4023732
0
LINE
8
right_labelLayer
10
80.5561523
20
78.4023732
11
79.7456055
21
78.4023732
0
LINE
8
right_labelLayer
10
79.7456055
20
78.4023732
11
79.7456055
21
86.0000294
0
LINE
8
right_labelLayer
10
79.7456055
20
86.0000294
11
80.5561523
21
86.0000294
0
LINE
8
right_labelLayer
10
80.5561523
20
86.0000294
11
80.5561523
21
83.7002248
0
LINE
8
right_labelLayer
10
80.5170898
20
83.0117482
11
80.565918
21
83.0117482
0
LINE
8
right_labelLayer
10
84.2182617
20
81.8935841
11
84.2182617
21
78.4023732
0
ARC
8
right_labelLayer
10
81.1165522
20
81.8774272
40
2.2912003
50
359.6714086
51
8.6877673
0
ARC
8
right_labelLayer
10
81.9657244
20
82.0121021
40
1.4314371
50
8.4931437
51
22.6579514
0
ARC
8
right_labelLayer
10
82.3971708
20
82.1913959
40
0.9642203
50
22.7024886
51
42.3419129
0
ARC
8
right_labelLayer
10
82.4456724
20
82.213215
40
0.9138243
50
43.3790738
51
71.5386345
0
ARC
8
right_labelLayer
10
82.2643189
20
81.7064663
40
1.4519687
50
71.0828229
51
84.3691283
0
ARC
8
right_labelLayer
10
82.1829115
20
81.014303
40
2.1488197
50
84.0198256
51
90.1510621
0
ARC
8
right_labelLayer
10
82.1597766
20
80.7103445
40
2.4528331
50
89.5919261
51
100.359493
0
ARC
8
right_labelLayer
10
81.9860951
20
81.6230712
40
1.5237675
50
100.1067964
51
118.0847299
0
ARC
8
right_labelLayer
10
81.8094454
20
81.9697019
40
1.1348129
50
118.4551276
51
139.6706242
0
ARC
8
right_labelLayer
10
81.9867925
20
81.848482
40
1.3486478
50
140.6208301
51
160.5048649
0
ARC
8
right_labelLayer
10
82.9216017
20
81.5024201
40
2.3453975
50
160.1567186
51
171.5312476
0
ARC
8
right_labelLayer
10
84.4341071
20
81.2627819
40
3.8767288
50
171.3202178
51
178.3406869
0
ARC
8
right_labelLayer
10
85.7874161
20
81.202327
40
5.231264
50
178.1080256
51
180.0230246
0
ARC
8
right_labelLayer
10
73.2650565
20
83.6915284
40
7.291101
50
357.867349
51
0.0683384
0
ARC
8
right_labelLayer
10
75.7417185
20
83.5970318
40
4.8126385
50
354.98283
51
357.8943347
0
ARC
8
right_labelLayer
10
77.3775293
20
83.4545862
40
3.1706382
50
351.9713413
51
354.96189
0
ARC
8
right_labelLayer
10
81.9388479
20
82.1529324
40
1.6194139
50
119.8316015
51
147.9725761
0
ARC
8
right_labelLayer
10
82.1349541
20
81.8516682
40
1.9784151
50
116.6657806
51
120.4182286
0
ARC
8
right_labelLayer
10
82.1715558
20
81.7555187
40
2.0807908
50
96.6652694
51
116.3782601
0
ARC
8
right_labelLayer
10
82.2504459
20
81.2112317
40
2.6305993
50
89.8927272
51
96.9959475
0
ARC
8
right_labelLayer
10
82.2756728
20
80.5533923
40
3.2884967
50
80.6862831
51
90.3537204
0
ARC
8
right_labelLayer
10
82.4804393
20
81.7577844
40
2.0668551
50
65.6022422
51
80.8844399
0
ARC
8
right_labelLayer
10
82.7263192
20
82.3115579
40
1.4609763
50
46.7401062
51
65.4130663
0
ARC
8
right_labelLayer
10
82.7430325
20
82.3643261
40
1.4112978
50
19.2204194
51
45.7660738
0
ARC
8
right_labelLayer
10
81.929267
20
82.062656
40
2.2790772
50
6.4733876
51
19.6468091
0
ARC
8
right_labelLayer
10
80.7133306
20
81.9061556
40
3.5049537
50
359.7944931
51
6.7744354
0
LINE
8
right_labelLayer
10
88.3442383
20
79.0713185
11
88.3442383
21
78.4512013
0
LINE
8
right_labelLayer
10
85.9418945
20
79.9404591
11
85.9418945
21
83.1240529
0
LINE
8
right_labelLayer
10
85.9418945
20
83.1240529
11
85.175293
21
83.1240529
0
LINE
8
right_labelLayer
10
85.175293
20
83.1240529
11
85.175293
21
83.5146779
0
LINE
8
right_labelLayer
10
85.175293
20
83.5146779
11
85.9418945
21
83.8515919
0
LINE
8
right_labelLayer
10
85.9418945
20
83.8515919
11
86.2836914
21
84.9941701
0
LINE
8
right_labelLayer
10
86.2836914
20
84.9941701
11
86.7524414
21
84.9941701
0
LINE
8
right_labelLayer
10
86.7524414
20
84.9941701
11
86.7524414
21
83.7539357
0
LINE
8
right_labelLayer
10
86.7524414
20
83.7539357
11
88.3051758
21
83.7539357
0
LINE
8
right_labelLayer
10
88.3051758
20
83.7539357
11
88.3051758
21
83.1240529
0
LINE
8
right_labelLayer
10
88.3051758
20
83.1240529
11
86.7524414
21
83.1240529
0
LINE
8
right_labelLayer
10
86.7524414
20
83.1240529
11
86.7524414
21
79.9746388
0
ARC
8
right_labelLayer
10
87.6173738
20
81.6356198
40
2.6619633
50
269.8803835
51
278.3028088
0
ARC
8
right_labelLayer
10
87.6427687
20
81.4282919
40
2.4531461
50
278.4151604
51
279.0078082
0
ARC
8
right_labelLayer
10
87.3440088
20
83.3367861
40
4.3848809
50
278.9589926
51
280.5103845
0
ARC
8
right_labelLayer
10
87.628691
20
81.8092785
40
2.8310723
50
280.4847341
51
282.6268196
0
ARC
8
right_labelLayer
10
87.8782926
20
80.7003515
40
1.6944027
50
282.5878181
51
285.5794248
0
ARC
8
right_labelLayer
10
88.0038185
20
80.2387507
40
1.2160524
50
285.723602
51
286.256529
0
ARC
8
right_labelLayer
10
88.0034528
20
79.1719838
40
0.7972842
50
287.9889939
51
295.3047539
0
ARC
8
right_labelLayer
10
87.8111583
20
79.7537794
40
1.41003
50
283.3069857
51
288.1196685
0
ARC
8
right_labelLayer
10
87.6080278
20
80.6011073
40
2.2813636
50
280.0070297
51
283.3735028
0
ARC
8
right_labelLayer
10
87.4718356
20
81.3403123
40
3.0329939
50
279.1866132
51
280.1141291
0
ARC
8
right_labelLayer
10
87.3886696
20
81.8133591
40
3.5132568
50
275.5261107
51
279.2938742
0
ARC
8
right_labelLayer
10
87.482701
20
80.8312818
40
2.5266888
50
270.893275
51
275.5483136
0
ARC
8
right_labelLayer
10
87.4944994
20
80.3849359
40
2.080219
50
270.0035655
51
270.760006
0
ARC
8
right_labelLayer
10
87.4619203
20
80.4214949
40
2.1170306
50
253.7848147
51
270.8852671
0
ARC
8
right_labelLayer
10
87.211109
20
79.5661304
40
1.2256562
50
190.3817547
51
253.8772429
0
ARC
8
right_labelLayer
10
88.4894869
20
79.9117821
40
2.5477537
50
179.355076
51
192.8477713
0
ARC
8
right_labelLayer
10
88.3845765
20
79.9644297
40
1.6321671
50
179.6416142
51
189.7505826
0
ARC
8
right_labelLayer
10
87.8083862
20
79.8616583
40
1.0469013
50
189.5478993
51
205.7874295
0
ARC
8
right_labelLayer
10
87.571603
20
79.7524692
40
0.7862115
50
206.1294529
51
221.4084401
0
ARC
8
right_labelLayer
10
87.5450547
20
79.7323248
40
0.75298
50
221.5949468
51
262.3504817
0
ARC
8
right_labelLayer
10
87.6081978
20
80.0570283
40
1.083372
50
261.3266007
51
270.1913759
0
LINE
8
bottom_outsideCutPath
10
109
20
103
11
109
21
96.75
0
LINE
8
bottom_outsideCutPath
10
109
20
96.75
11
106
21
96.75
0
LINE
8
bottom_outsideCutPath
10
106
20
96.75
11
106
21
86.25
0
LINE
8
bottom_outsideCutPath
10
106
20
86.25
11
109
21
86.25
0
LINE
8
bottom_outsideCutPath
10
109
20
86.25
11
109
21
75.75
0
LINE
8
bottom_outsideCutPath
10
109
20
75.75
11
106
21
75.75
0
LINE
8
bottom_outsideCutPath
10
106
20
75.75
11
106
21
65.25
0
LINE
8
bottom_outsideCutPath
10
106
20
65.25
11
109
21
65.25
0
LINE
8
bottom_outsideCutPath
10
109
20
65.25
11
109
21
59
0
LINE
8
bottom_outsideCutPath
10
109
20
59
11
115.25
21
59
0
LINE
8
bottom_outsideCutPath
10
115.25
20
59
11
115.25
21
56
0
LINE
8
bottom_outsideCutPath
10
115.25
20
56
11
125.75
21
56
0
LINE
8
bottom_outsideCutPath
10
125.75
20
56
11
125.75
21
59
0
LINE
8
bottom_outsideCutPath
10
125.75
20
59
11
136.25
21
59
0
LINE
8
bottom_outsideCutPath
10
136.25
20
59
11
136.25
21
56
0
LINE
8
bottom_outsideCutPath
10
136.25
20
56
11
146.75
21
56
0
LINE
8
bottom_outsideCutPath
10
146.75
20
56
11
146.75
21
59
0
LINE
8
bottom_outsideCutPath
10
146.75
20
59
11
153
21
59
0
LINE
8
bottom_outsideCutPath
10
153
20
59
11
153
21
65.25
0
LINE
8
bottom_outsideCutPath
10
153
20
65.25
11
156
21
65.25
0
LINE
8
bottom_outsideCutPath
10
156
20
65.25
11
156
21
75.75
0
LINE
8
bottom_outsideCutPath
10
156
20
75.75
11
153
21
75.75
0
LINE
8
bottom_outsideCutPath
10
153
20
75.75
11
153
21
86.25
0
LINE
8
bottom_outsideCutPath
10
153
20
86.25
11
156
21
86.25
0
LINE
8
bottom_outsideCutPath
10
156
20
86.25
11
156
21
96.75
0
LINE
8
bottom_outsideCutPath
10
156
20
96.75
11
153
21
96.75
0
LINE
8
bottom_outsideCutPath
10
153
20
96.75
11
153
21
103
0
LINE
8
bottom_outsideCutPath
10
153
20
103
11
146.75
21
103
0
LINE
8
bottom_outsideCutPath
10
146.75
20
103
11
146.75
21
106
0
LINE
8
bottom_outsideCutPath
10
146.75
20
106
11
136.25
21
106
0
LINE
8
bottom_outsideCutPath
10
136.25
20
106
11
136.25
21
103
0
LINE
8
bottom_outsideCutPath
10
136.25
20
103
11
125.75
21
103
0
LINE
8
bottom_outsideCutPath
10
125.75
20
103
11
125.75
21
106
0
LINE
8
bottom_outsideCutPath
10
125.75
20
106
11
115.25
21
106
0
LINE
8
bottom_outsideCutPath
10
115.25
20
106
11
115.25
21
103
0
LINE
8
bottom_outsideCutPath
10
115.25
20
103
11
109
21
103
0
LINE
8
bottom_labelLayer
10
115.3603279
20
77.9386029
11
115.3017342
21
77.9386029
0
LINE
8
bottom_labelLayer
10
115.3017342
20
77.9386029
11
115.1308357
21
77.2501263
0
LINE
8
bottom_labelLayer
10
115.1308357
20
77.2501263
11
114.549781
21
77.2501263
0
LINE
8
bottom_labelLayer
10
114.549781
20
77.2501263
11
114.549781
21
84.8477826
0
LINE
8
bottom_labelLayer
10
114.549781
20
84.8477826
11
115.3603279
21
84.8477826
0
LINE
8
bottom_labelLayer
10
115.3603279
20
84.8477826
11
115.3603279
21
83.0020795
0
LINE
8
bottom_labelLayer
10
115.3212654
20
81.8887982
11
115.3603279
21
81.8887982
0
ARC
8
bottom_labelLayer
10
117.0643307
20
80.2123852
40
2.4773136
50
74.2393369
51
90.5623769
0
ARC
8
bottom_labelLayer
10
117.2281401
20
80.8133256
40
1.8544803
50
38.5631099
51
74.0670539
0
ARC
8
bottom_labelLayer
10
116.8065855
20
80.4855419
40
2.3884445
50
16.4709351
51
38.4075227
0
ARC
8
bottom_labelLayer
10
115.5921677
20
80.1047352
40
3.6610562
50
5.1338261
51
16.7973539
0
ARC
8
bottom_labelLayer
10
114.0590761
20
79.941877
40
5.2026308
50
359.8779055
51
5.4093721
0
ARC
8
bottom_labelLayer
10
114.5093621
20
79.9027523
40
4.7524157
50
350.6562637
51
0.3380338
0
ARC
8
bottom_labelLayer
10
116.1661282
20
79.6209531
40
3.0718929
50
335.8305818
51
350.8254823
0
ARC
8
bottom_labelLayer
10
116.8949063
20
79.3064015
40
2.2782403
50
321.3161731
51
335.5436156
0
ARC
8
bottom_labelLayer
10
117.1735296
20
79.0793676
40
1.9188461
50
274.0640057
51
321.4080958
0
ARC
8
bottom_labelLayer
10
117.0437322
20
79.9015357
40
2.749068
50
269.9225351
51
275.5481821
0
ARC
8
bottom_labelLayer
10
117.0263459
20
79.6109923
40
2.4585602
50
255.7755328
51
270.3185644
0
ARC
8
bottom_labelLayer
10
116.9561861
20
79.2992805
40
2.1391827
50
245.9801635
51
255.5455786
0
ARC
8
bottom_labelLayer
10
116.8202922
20
78.9832573
40
1.7952153
50
215.5850173
51
245.8361589
0
ARC
8
bottom_labelLayer
10
98.4610372
20
82.9877929
40
16.8992968
50
358.1123237
51
0.0484375
0
ARC
8
bottom_labelLayer
10
103.1640438
20
82.8299091
40
12.193642
50
355.7238931
51
358.1258568
0
ARC
8
bottom_labelLayer
10
105.2773835
20
82.6843776
40
10.0753416
50
355.4710374
51
355.6530914
0
ARC
8
bottom_labelLayer
10
116.8719624
20
80.8346952
40
1.8428706
50
95.1835114
51
145.1109093
0
ARC
8
bottom_labelLayer
10
117.0339438
20
79.9212807
40
2.7683056
50
89.8743348
51
96.8145689
0
ARC
8
bottom_labelLayer
10
116.9058578
20
79.7332364
40
2.2776953
50
89.5731104
51
100.7324481
0
ARC
8
bottom_labelLayer
10
116.7372447
20
80.5851223
40
1.409329
50
100.4469364
51
119.6700776
0
ARC
8
bottom_labelLayer
10
116.5808907
20
80.8774454
40
1.0779725
50
120.1403067
51
142.4248671
0
ARC
8
bottom_labelLayer
10
116.8395709
20
80.7063216
40
1.3875184
50
143.3382683
51
161.2559699
0
ARC
8
bottom_labelLayer
10
117.921323
20
80.3222654
40
2.5353622
50
160.8926676
51
171.2333994
0
ARC
8
bottom_labelLayer
10
119.7271813
20
80.0309405
40
4.3645426
50
171.0667954
51
177.8456541
0
ARC
8
bottom_labelLayer
10
121.6053657
20
79.9354219
40
6.2450395
50
177.6176903
51
180.0424917
0
ARC
8
bottom_labelLayer
10
120.7195661
20
79.9098652
40
5.359279
50
179.7762894
51
185.707537
0
ARC
8
bottom_labelLayer
10
118.6065952
20
79.6921529
40
3.2351383
50
185.5924778
51
194.2050433
0
ARC
8
bottom_labelLayer
10
117.25304
20
79.3408595
40
1.8367838
50
193.9430285
51
208.0218386
0
ARC
8
bottom_labelLayer
10
116.7053792
20
79.0622484
40
1.222485
50
208.5536292
51
217.5606204
0
ARC
8
bottom_labelLayer
10
116.6607729
20
79.0436972
40
1.1758828
50
218.1690397
51
253.8047404
0
ARC
8
bottom_labelLayer
10
116.878878
20
79.716136
40
1.8825966
50
253.1382412
51
266.848293
0
ARC
8
bottom_labelLayer
10
116.94004
20
80.4373966
40
2.6062167
50
266.3775019
51
270.0509848
0
ARC
8
bottom_labelLayer
10
116.9596494
20
79.4469032
40
1.6158147
50
269.3868884
51
285.8630892
0
ARC
8
bottom_labelLayer
10
117.0796951
20
79.0130456
40
1.1656704
50
286.0162669
51
326.8497557
0
ARC
8
bottom_labelLayer
10
116.5002995
20
79.3968756
40
1.860661
50
326.7104772
51
343.6661994
0
ARC
8
bottom_labelLayer
10
115.4157066
20
79.7282939
40
2.9947132
50
343.417116
51
353.6369418
0
ARC
8
bottom_labelLayer
10
113.7775401
20
79.9226772
40
4.6443457
50
353.4934558
51
0.2205656
0
ARC
8
bottom_labelLayer
10
113.6330679
20
79.9599381
40
4.7888227
50
359.7681031
51
6.3094901
0
ARC
8
bottom_labelLayer
10
115.4369468
20
80.1669421
40
2.9731302
50
6.1648447
51
16.039627
0
ARC
8
bottom_labelLayer
10
116.5989467
20
80.5093825
40
1.7617672
50
15.7779417
51
32.0151137
0
ARC
8
bottom_labelLayer
10
116.9613862
20
80.7169468
40
1.3445099
50
32.7033248
51
35.52437
0
ARC
8
bottom_labelLayer
10
117.0938284
20
80.811084
40
1.1820211
50
35.5408567
51
79.8010998
0
ARC
8
bottom_labelLayer
10
116.9350949
20
80.1362731
40
1.8746357
50
78.6781387
51
90.374928
0
ARC
8
bottom_labelLayer
10
121.1101486
20
79.9025649
40
4.1867979
50
349.1761703
51
0.3862653
0
ARC
8
bottom_labelLayer
10
122.5197411
20
79.6215577
40
2.7495362
50
330.2507007
51
349.4116588
0
ARC
8
bottom_labelLayer
10
122.9535431
20
79.3960832
40
2.2611094
50
318.1439898
51
329.7566466
0
ARC
8
bottom_labelLayer
10
123.0318377
20
79.3333381
40
2.1609332
50
278.8959126
51
317.9979246
0
ARC
8
bottom_labelLayer
10
122.8301011
20
80.2998659
40
3.1474257
50
269.7502681
51
279.8033505
0
ARC
8
bottom_labelLayer
10
122.7973816
20
79.7552913
40
2.6028906
50
253.5436891
51
270.4182599
0
ARC
8
bottom_labelLayer
10
122.7107347
20
79.420124
40
2.2569384
50
238.8115406
51
253.2428565
0
ARC
8
bottom_labelLayer
10
122.682774
20
79.3638951
40
2.1943629
50
207.7947077
51
238.6757957
0
ARC
8
bottom_labelLayer
10
123.0840876
20
79.6096715
40
2.6641534
50
205.6559998
51
208.4460407
0
ARC
8
bottom_labelLayer
10
123.3930964
20
79.7384213
40
2.998494
50
188.9102447
51
205.3171267
0
ARC
8
bottom_labelLayer
10
124.4346683
20
79.9148308
40
4.0548407
50
179.7744861
51
189.0932968
0
ARC
8
bottom_labelLayer
10
124.5883136
20
79.9592956
40
4.2085509
50
169.244298
51
180.388077
0
ARC
8
bottom_labelLayer
10
123.1591235
20
80.2417944
40
2.7517699
50
150.7111548
51
169.4695403
0
ARC
8
bottom_labelLayer
10
122.702877
20
80.4760938
40
2.2393051
50
138.1759271
51
150.2287439
0
ARC
8
bottom_labelLayer
10
122.6269874
20
80.5343308
40
2.1439295
50
99.1759269
51
137.9832757
0
ARC
8
bottom_labelLayer
10
122.8358732
20
79.5512837
40
3.1480957
50
89.7326552
51
100.075957
0
ARC
8
bottom_labelLayer
10
122.8776202
20
79.9758311
40
2.7236484
50
73.5222921
51
90.5692101
0
ARC
8
bottom_labelLayer
10
123.037346
20
80.5561614
40
2.121878
50
41.1445648
51
73.213376
0
ARC
8
bottom_labelLayer
10
122.7324419
20
80.2941012
40
2.5239143
50
13.5014371
51
41.0703286
0
ARC
8
bottom_labelLayer
10
121.5544642
20
79.9858388
40
3.7413892
50
1.1277007
51
13.8800198
0
ARC
8
bottom_labelLayer
10
120.5403544
20
79.9314702
40
4.756497
50
359.9918119
51
1.5420744
0
ARC
8
bottom_labelLayer
10
125.3242433
20
79.909726
40
4.1045945
50
179.7059623
51
187.9160759
0
ARC
8
bottom_labelLayer
10
123.8187962
20
79.6934692
40
2.5837186
50
187.7639004
51
200.0977067
0
ARC
8
bottom_labelLayer
10
122.9894616
20
79.3895981
40
1.700467
50
200.0845636
51
216.9131841
0
ARC
8
bottom_labelLayer
10
122.686621
20
79.1733557
40
1.3284862
50
217.3009787
51
261.7098938
0
ARC
8
bottom_labelLayer
10
122.8272128
20
79.8442493
40
2.0130872
50
260.5033228
51
270.2476468
0
ARC
8
bottom_labelLayer
10
122.8540458
20
79.7137855
40
1.8826918
50
269.4481854
51
284.725594
0
ARC
8
bottom_labelLayer
10
123.0030881
20
79.1610392
40
1.310221
50
284.5662271
51
322.6333666
0
ARC
8
bottom_labelLayer
10
122.6546184
20
79.4127916
40
1.7400027
50
323.0089514
51
342.639042
0
ARC
8
bottom_labelLayer
10
121.6579353
20
79.7385363
40
2.7885127
50
342.3615691
51
353.7537767
0
ARC
8
bottom_labelLayer
10
120.1874971
20
79.9157812
40
4.269537
50
353.5362835
51
0.2014196
0
ARC
8
bottom_labelLayer
10
120.4127654
20
79.9514322
40
4.0442949
50
359.7075649
51
7.8972524
0
ARC
8
bottom_labelLayer
10
121.8939003
20
80.1637647
40
2.5480422
50
7.7440038
51
20.069008
0
ARC
8
bottom_labelLayer
10
122.7192491
20
80.4666361
40
1.6688782
50
20.0257107
51
37.4350558
0
ARC
8
bottom_labelLayer
10
122.9930923
20
80.6609518
40
1.3333734
50
37.9577466
51
80.400635
0
ARC
8
bottom_labelLayer
10
122.8374748
20
79.966597
40
2.0443029
50
79.345373
51
90.3174511
0
ARC
8
bottom_labelLayer
10
122.8086614
20
80.0819373
40
1.9290105
50
89.4805959
51
103.8804818
0
ARC
8
bottom_labelLayer
10
122.646575
20
80.6991652
40
1.2909559
50
103.4685247
51
142.3118945
0
ARC
8
bottom_labelLayer
10
122.9616833
20
80.4775585
40
1.6758882
50
142.902573
51
162.374969
0
ARC
8
bottom_labelLayer
10
123.9545813
20
80.1466762
40
2.7224045
50
162.0652912
51
173.1675107
0
ARC
8
bottom_labelLayer
10
125.5028253
20
79.9492073
40
4.283162
50
173.0086384
51
180.2463635
0
LINE
8
bottom_labelLayer
10
129.1786873
20
77.9190717
11
129.1786873
21
77.2989545
0
LINE
8
bottom_labelLayer
10
126.7763435
20
78.7882123
11
126.7763435
21
81.971806
0
LINE
8
bottom_labelLayer
10
126.7763435
20
81.971806
11
126.009742
21
81.971806
0
LINE
8
bottom_labelLayer
10
126.009742
20
81.971806
11
126.009742
21
82.362431
0
LINE
8
bottom_labelLayer
10
126.009742
20
82.362431
11
126.7763435
21
82.6993451
0
LINE
8
bottom_labelLayer
10
126.7763435
20
82.6993451
11
127.1181404
21
83.8419232
0
LINE
8
bottom_labelLayer
10
127.1181404
20
83.8419232
11
127.5868904
21
83.8419232
0
LINE
8
bottom_labelLayer
10
127.5868904
20
83.8419232
11
127.5868904
21
82.6016888
0
LINE
8
bottom_labelLayer
10
127.5868904
20
82.6016888
11
129.1396248
21
82.6016888
0
LINE
8
bottom_labelLayer
10
129.1396248
20
82.6016888
11
129.1396248
21
81.971806
0
LINE
8
bottom_labelLayer
10
129.1396248
20
81.971806
11
127.5868904
21
81.971806
0
LINE
8
bottom_labelLayer
10
127.5868904
20
81.971806
11
127.5868904
21
78.822392
0
ARC
8
bottom_labelLayer
10
128.4518228
20
80.4833729
40
2.6619633
50
269.8803835
51
278.3028088
0
ARC
8
bottom_labelLayer
10
128.4772177
20
80.276045
40
2.4531461
50
278.4151604
51
279.0078082
0
ARC
8
bottom_labelLayer
10
128.1784578
20
82.1845393
40
4.3848809
50
278.9589926
51
280.5103845
0
ARC
8
bottom_labelLayer
10
128.4631401
20
80.6570316
40
2.8310723
50
280.4847341
51
282.6268196
0
ARC
8
bottom_labelLayer
10
128.7127417
20
79.5481047
40
1.6944027
50
282.5878181
51
285.5794248
0
ARC
8
bottom_labelLayer
10
128.8382675
20
79.0865038
40
1.2160524
50
285.723602
51
286.256529
0
ARC
8
bottom_labelLayer
10
128.8379018
20
78.019737
40
0.7972842
50
287.9889939
51
295.3047539
0
ARC
8
bottom_labelLayer
10
128.6456074
20
78.6015326
40
1.41003
50
283.3069857
51
288.1196685
0
ARC
8
bottom_labelLayer
10
128.4424769
20
79.4488604
40
2.2813636
50
280.0070297
51
283.3735028
0
ARC
8
bottom_labelLayer
10
128.3062846
20
80.1880654
40
3.0329939
50
279.1866132
51
280.1141291
0
ARC
8
bottom_labelLayer
10
128.2231187
20
80.6611122
40
3.5132568
50
275.5261107
51
279.2938742
0
ARC
8
bottom_labelLayer
10
128.31715
20
79.6790349
40
2.5266888
50
270.893275
51
275.5483136
0
ARC
8
bottom_labelLayer
10
128.3289485
20
79.2326891
40
2.080219
50
270.0035655
51
270.760006
0
ARC
8
bottom_labelLayer
10
128.2963694
20
79.2692481
40
2.1170306
50
253.7848147
51
270.8852671
0
ARC
8
bottom_labelLayer
10
128.045558
20
78.4138835
40
1.2256562
50
190.3817547
51
253.8772429
0
ARC
8
bottom_labelLayer
10
129.3239359
20
78.7595353
40
2.5477537
50
179.355076
51
192.8477713
0
ARC
8
bottom_labelLayer
10
129.2190256
20
78.8121828
40
1.6321671
50
179.6416142
51
189.7505826
0
ARC
8
bottom_labelLayer
10
128.6428352
20
78.7094115
40
1.0469013
50
189.5478993
51
205.7874295
0
ARC
8
bottom_labelLayer
10
128.406052
20
78.6002224
40
0.7862115
50
206.1294529
51
221.4084401
0
ARC
8
bottom_labelLayer
10
128.3795037
20
78.580078
40
0.75298
50
221.5949468
51
262.3504817
0
ARC
8
bottom_labelLayer
10
128.4426468
20
78.9047815
40
1.083372
50
261.3266007
51
270.1913759
0
LINE
8
bottom_labelLayer
10
132.7089607
20
77.9190717
11
132.7089607
21
77.2989545
0
LINE
8
bottom_labelLayer
10
130.306617
20
78.7882123
11
130.306617
21
81.971806
0
LINE
8
bottom_labelLayer
10
130.306617
20
81.971806
11
129.5400154
21
81.971806
0
LINE
8
bottom_labelLayer
10
129.5400154
20
81.971806
11
129.5400154
21
82.362431
0
LINE
8
bottom_labelLayer
10
129.5400154
20
82.362431
11
130.306617
21
82.6993451
0
LINE
8
bottom_labelLayer
10
130.306617
20
82.6993451
11
130.6484139
21
83.8419232
0
LINE
8
bottom_labelLayer
10
130.6484139
20
83.8419232
11
131.1171639
21
83.8419232
0
LINE
8
bottom_labelLayer
10
131.1171639
20
83.8419232
11
131.1171639
21
82.6016888
0
LINE
8
bottom_labelLayer
10
131.1171639
20
82.6016888
11
132.6698982
21
82.6016888
0
LINE
8
bottom_labelLayer
10
132.6698982
20
82.6016888
11
132.6698982
21
81.971806
0
LINE
8
bottom_labelLayer
10
132.6698982
20
81.971806
11
131.1171639
21
81.971806
0
LINE
8
bottom_labelLayer
10
131.1171639
20
81.971806
11
131.1171639
21
78.822392
0
ARC
8
bottom_labelLayer
10
131.9820962
20
80.4833729
40
2.6619633
50
269.8803835
51
278.3028088
0
ARC
8
bottom_labelLayer
10
132.0074912
20
80.276045
40
2.4531461
50
278.4151604
51
279.0078082
0
ARC
8
bottom_labelLayer
10
131.7087313
20
82.1845393
40
4.3848809
50
278.9589926
51
280.5103845
0
ARC
8
bottom_labelLayer
10
131.9934135
20
80.6570316
40
2.8310723
50
280.4847341
51
282.6268196
0
ARC
8
bottom_labelLayer
10
132.2430151
20
79.5481047
40
1.6944027
50
282.5878181
51
285.5794248
0
ARC
8
bottom_labelLayer
10
132.368541
20
79.0865038
40
1.2160524
50
285.723602
51
286.256529
0
ARC
8
bottom_labelLayer
10
132.3681752
20
78.019737
40
0.7972842
50
287.9889939
51
295.3047539
0
ARC
8
bottom_labelLayer
10
132.1758808
20
78.6015326
40
1.41003
50
283.3069857
51
288.1196685
0
ARC
8
bottom_labelLayer
10
131.9727503
20
79.4488604
40
2.2813636
50
280.0070297
51
283.3735028
0
ARC
8
bottom_labelLayer
10
131.836558
20
80.1880654
40
3.0329939
50
279.1866132
51
280.1141291
0
ARC
8
bottom_labelLayer
10
131.7533921
20
80.6611122
40
3.5132568
50
275.5261107
51
279.2938742
0
ARC
8
bottom_labelLayer
10
131.8474234
20
79.6790349
40
2.5266888
50
270.893275
51
275.5483136
0
ARC
8
bottom_labelLayer
10
131.8592219
20
79.2326891
40
2.080219
50
270.0035655
51
270.760006
0
ARC
8
bottom_labelLayer
10
131.8266428
20
79.2692481
40
2.1170306
50
253.7848147
51
270.8852671
0
ARC
8
bottom_labelLayer
10
131.5758315
20
78.4138835
40
1.2256562
50
190.3817547
51
253.8772429
0
ARC
8
bottom_labelLayer
10
132.8542093
20
78.7595353
40
2.5477537
50
179.355076
51
192.8477713
0
ARC
8
bottom_labelLayer
10
132.749299
20
78.8121828
40
1.6321671
50
179.6416142
51
189.7505826
0
ARC
8
bottom_labelLayer
10
132.1731087
20
78.7094115
40
1.0469013
50
189.5478993
51
205.7874295
0
ARC
8
bottom_labelLayer
10
131.9363255
20
78.6002224
40
0.7862115
50
206.1294529
51
221.4084401
0
ARC
8
bottom_labelLayer
10
131.9097771
20
78.580078
40
0.75298
50
221.5949468
51
262.3504817
0
ARC
8
bottom_labelLayer
10
131.9729203
20
78.9047815
40
1.083372
50
261.3266007
51
270.1913759
0
ARC
8
bottom_labelLayer
10
134.2107345
20
79.9025649
40
4.1867979
50
349.1761703
51
0.3862653
0
ARC
8
bottom_labelLayer
10
135.620327
20
79.6215577
40
2.7495362
50
330.2507007
51
349.4116588
0
ARC
8
bottom_labelLayer
10
136.054129
20
79.3960832
40
2.2611094
50
318.1439898
51
329.7566466
0
ARC
8
bottom_labelLayer
10
136.1324236
20
79.3333381
40
2.1609332
50
278.8959126
51
317.9979246
0
ARC
8
bottom_labelLayer
10
135.930687
20
80.2998659
40
3.1474257
50
269.7502681
51
279.8033505
0
ARC
8
bottom_labelLayer
10
135.8979676
20
79.7552913
40
2.6028906
50
253.5436891
51
270.4182599
0
ARC
8
bottom_labelLayer
10
135.8113206
20
79.420124
40
2.2569384
50
238.8115406
51
253.2428565
0
ARC
8
bottom_labelLayer
10
135.7833599
20
79.3638951
40
2.1943629
50
207.7947077
51
238.6757957
0
ARC
8
bottom_labelLayer
10
136.1846735
20
79.6096715
40
2.6641534
50
205.6559998
51
208.4460407
0
ARC
8
bottom_labelLayer
10
136.4936824
20
79.7384213
40
2.998494
50
188.9102447
51
205.3171267
0
ARC
8
bottom_labelLayer
10
137.5352542
20
79.9148308
40
4.0548407
50
179.7744861
51
189.0932968
0
ARC
8
bottom_labelLayer
10
137.6888995
20
79.9592956
40
4.2085509
50
169.244298
51
180.388077
0
ARC
8
bottom_labelLayer
10
136.2597095
20
80.2417944
40
2.7517699
50
150.7111548
51
169.4695403
0
ARC
8
bottom_labelLayer
10
135.803463
20
80.4760938
40
2.2393051
50
138.1759271
51
150.2287439
0
ARC
8
bottom_labelLayer
10
135.7275733
20
80.5343308
40
2.1439295
50
99.1759269
51
137.9832757
0
ARC
8
bottom_labelLayer
10
135.9364591
20
79.5512837
40
3.1480957
50
89.7326552
51
100.075957
0
ARC
8
bottom_labelLayer
10
135.9782061
20
79.9758311
40
2.7236484
50
73.5222921
51
90.5692101
0
ARC
8
bottom_labelLayer
10
136.137932
20
80.5561614
40
2.121878
50
41.1445648
51
73.213376
0
ARC
8
bottom_labelLayer
10
135.8330278
20
80.2941012
40
2.5239143
50
13.5014371
51
41.0703286
0
ARC
8
bottom_labelLayer
10
134.6550501
20
79.9858388
40
3.7413892
50
1.1277007
51
13.8800198
0
ARC
8
bottom_labelLayer
10
133.6409403
20
79.9314702
40
4.756497
50
359.9918119
51
1.5420744
0
ARC
8
bottom_labelLayer
10
138.4248293
20
79.909726
40
4.1045945
50
179.7059623
51
187.9160759
0
ARC
8
bottom_labelLayer
10
136.9193821
20
79.6934692
40
2.5837186
50
187.7639004
51
200.0977067
0
ARC
8
bottom_labelLayer
10
136.0900475
20
79.3895981
40
1.700467
50
200.0845636
51
216.9131841
0
ARC
8
bottom_labelLayer
10
135.7872069
20
79.1733557
40
1.3284862
50
217.3009787
51
261.7098938
0
ARC
8
bottom_labelLayer
10
135.9277988
20
79.8442493
40
2.0130872
50
260.5033228
51
270.2476468
0
ARC
8
bottom_labelLayer
10
135.9546317
20
79.7137855
40
1.8826918
50
269.4481854
51
284.725594
0
ARC
8
bottom_labelLayer
10
136.103674
20
79.1610392
40
1.310221
50
284.5662271
51
322.6333666
0
ARC
8
bottom_labelLayer
10
135.7552044
20
79.4127916
40
1.7400027
50
323.0089514
51
342.639042
0
ARC
8
bottom_labelLayer
10
134.7585213
20
79.7385363
40
2.7885127
50
342.3615691
51
353.7537767
0
ARC
8
bottom_labelLayer
10
133.2880831
20
79.9157812
40
4.269537
50
353.5362835
51
0.2014196
0
ARC
8
bottom_labelLayer
10
133.5133513
20
79.9514322
40
4.0442949
50
359.7075649
51
7.8972524
0
ARC
8
bottom_labelLayer
10
134.9944862
20
80.1637647
40
2.5480422
50
7.7440038
51
20.069008
0
ARC
8
bottom_labelLayer
10
135.819835
20
80.4666361
40
1.6688782
50
20.0257107
51
37.4350558
0
ARC
8
bottom_labelLayer
10
136.0936782
20
80.6609518
40
1.3333734
50
37.9577466
51
80.400635
0
ARC
8
bottom_labelLayer
10
135.9380607
20
79.966597
40
2.0443029
50
79.345373
51
90.3174511
0
ARC
8
bottom_labelLayer
10
135.9092473
20
80.0819373
40
1.9290105
50
89.4805959
51
103.8804818
0
ARC
8
bottom_labelLayer
10
135.7471609
20
80.6991652
40
1.2909559
50
103.4685247
51
142.3118945
0
ARC
8
bottom_labelLayer
10
136.0622692
20
80.4775585
40
1.6758882
50
142.902573
51
162.374969
0
ARC
8
bottom_labelLayer
10
137.0551673
20
80.1466762
40
2.7224045
50
162.0652912
51
173.1675107
0
ARC
8
bottom_labelLayer
10
138.6034113
20
79.9492073
40
4.283162
50
173.0086384
51
180.2463635
0
LINE
8
bottom_labelLayer
10
147.4501717
20
77.2501263
11
146.6396248
21
77.2501263
0
LINE
8
bottom_labelLayer
10
146.6396248
20
77.2501263
11
146.6396248
21
80.7315717
0
LINE
8
bottom_labelLayer
10
144.0370857
20
80.2384076
11
144.0370857
21
77.2501263
0
LINE
8
bottom_labelLayer
10
144.0370857
20
77.2501263
11
143.2265389
21
77.2501263
0
LINE
8
bottom_labelLayer
10
143.2265389
20
77.2501263
11
143.2265389
21
80.7315717
0
LINE
8
bottom_labelLayer
10
140.6288826
20
80.0577435
11
140.6288826
21
77.2501263
0
LINE
8
bottom_labelLayer
10
140.6288826
20
77.2501263
11
139.8183357
21
77.2501263
0
LINE
8
bottom_labelLayer
10
139.8183357
20
77.2501263
11
139.8183357
21
82.6016888
0
LINE
8
bottom_labelLayer
10
139.8183357
20
82.6016888
11
140.4775154
21
82.6016888
0
LINE
8
bottom_labelLayer
10
140.4775154
20
82.6016888
11
140.6093514
21
81.869267
0
LINE
8
bottom_labelLayer
10
140.6093514
20
81.869267
11
140.6484139
21
81.869267
0
LINE
8
bottom_labelLayer
10
143.8710701
20
81.791142
11
143.9101326
21
81.791142
0
LINE
8
bottom_labelLayer
10
147.4501717
20
80.7413373
11
147.4501717
21
77.2501263
0
ARC
8
bottom_labelLayer
10
144.2485042
20
80.7443087
40
2.3911545
50
359.6947982
51
8.1471968
0
ARC
8
bottom_labelLayer
10
145.1292371
20
80.8746505
40
1.5008449
50
7.9864117
51
20.7949991
0
ARC
8
bottom_labelLayer
10
145.6160772
20
81.0611423
40
0.9795111
50
20.7071115
51
40.0217292
0
ARC
8
bottom_labelLayer
10
145.7228836
20
81.1310242
40
0.852914
50
41.0407963
51
73.179301
0
ARC
8
bottom_labelLayer
10
145.5683385
20
80.6635999
40
1.3451212
50
72.6395792
51
86.2568341
0
ARC
8
bottom_labelLayer
10
145.5188283
20
80.1293595
40
1.8815104
50
85.81445
51
90.0685292
0
ARC
8
bottom_labelLayer
10
145.5006391
20
79.9252699
40
2.0856595
50
89.5621346
51
101.2961992
0
ARC
8
bottom_labelLayer
10
145.3435522
20
80.6772897
40
1.3174551
50
101.0031962
51
121.7840459
0
ARC
8
bottom_labelLayer
10
145.2241281
20
80.8904951
40
1.0733731
50
122.3597037
51
140.2884199
0
ARC
8
bottom_labelLayer
10
145.4389844
20
80.7329547
40
1.3394086
50
140.9765245
51
161.1699717
0
ARC
8
bottom_labelLayer
10
146.2484048
20
80.4449004
40
2.1985115
50
160.8731929
51
172.5272335
0
ARC
8
bottom_labelLayer
10
147.6009024
20
80.2581097
40
3.5638273
50
172.3776331
51
180.1829556
0
ARC
8
bottom_labelLayer
10
148.5879927
20
80.2383033
40
4.5509071
50
179.8939112
51
179.9986875
0
ARC
8
bottom_labelLayer
10
140.8354183
20
80.7443087
40
2.3911545
50
359.6947982
51
8.1471968
0
ARC
8
bottom_labelLayer
10
141.7161512
20
80.8746505
40
1.5008449
50
7.9864117
51
20.7949991
0
ARC
8
bottom_labelLayer
10
142.2029913
20
81.0611423
40
0.9795111
50
20.7071115
51
40.0217292
0
ARC
8
bottom_labelLayer
10
142.3120174
20
81.1325579
40
0.8502327
50
41.061066
51
72.8993523
0
ARC
8
bottom_labelLayer
10
142.1545445
20
80.6637456
40
1.3446833
50
72.360075
51
85.956162
0
ARC
8
bottom_labelLayer
10
142.1012402
20
80.1128328
40
1.8980374
50
85.5238379
51
90.0794212
0
ARC
8
bottom_labelLayer
10
142.0830561
20
79.9977585
40
2.0131701
50
89.5573491
51
101.4832146
0
ARC
8
bottom_labelLayer
10
141.9285385
20
80.7217091
40
1.2729703
50
101.1546446
51
123.0655399
0
ARC
8
bottom_labelLayer
10
141.8235029
20
80.9046756
40
1.062394
50
123.7020097
51
142.3022263
0
ARC
8
bottom_labelLayer
10
142.0695421
20
80.7377593
40
1.3592648
50
143.0770063
51
161.391348
0
ARC
8
bottom_labelLayer
10
143.0612733
20
80.3875019
40
2.4109662
50
161.0234164
51
171.4469049
0
ARC
8
bottom_labelLayer
10
144.7031027
20
80.1303159
40
4.0727986
50
171.3042106
51
178.3501478
0
ARC
8
bottom_labelLayer
10
146.2719328
20
80.0602432
40
5.6430507
50
178.0975837
51
180.0253796
0
ARC
8
bottom_labelLayer
10
142.0215897
20
81.0617721
40
1.5930034
50
117.1209551
51
149.5423789
0
ARC
8
bottom_labelLayer
10
142.1841699
20
80.7728053
40
1.9243564
50
93.8343366
51
117.5072006
0
ARC
8
bottom_labelLayer
10
142.2290765
20
80.3750189
40
2.3243267
50
89.9662638
51
94.2831128
0
ARC
8
bottom_labelLayer
10
142.255979
20
80.0457275
40
2.6537404
50
77.557247
51
90.5512988
0
ARC
8
bottom_labelLayer
10
142.5022172
20
81.1048476
40
1.5664895
50
52.7026847
51
78.0053883
0
ARC
8
bottom_labelLayer
10
142.5899467
20
81.26807
40
1.3837924
50
22.2097854
51
51.4970615
0
ARC
8
bottom_labelLayer
10
145.3784738
20
80.9496328
40
1.6923839
50
119.4041852
51
150.1828949
0
ARC
8
bottom_labelLayer
10
145.56604
20
80.6644287
40
2.0330707
50
118.2581805
51
120.0630269
0
ARC
8
bottom_labelLayer
10
145.5656322
20
80.6433422
40
2.0514772
50
95.8635044
51
117.9693215
0
ARC
8
bottom_labelLayer
10
145.635061
20
80.1413092
40
2.5580382
50
89.9196528
51
96.2617159
0
ARC
8
bottom_labelLayer
10
145.6573527
20
79.8819065
40
2.8175006
50
79.9360838
51
90.3803711
0
ARC
8
bottom_labelLayer
10
145.845087
20
80.8986506
40
1.7836094
50
62.9723223
51
80.1665079
0
ARC
8
bottom_labelLayer
10
146.0413389
20
81.3012839
40
1.3357927
50
44.2289944
51
62.6229036
0
ARC
8
bottom_labelLayer
10
145.9829677
20
81.2754973
40
1.3957831
50
19.5612177
51
43.3161081
0
ARC
8
bottom_labelLayer
10
145.1352548
20
80.9570947
40
2.3012323
50
7.5041803
51
19.9645585
0
ARC
8
bottom_labelLayer
10
143.7325142
20
80.7601078
40
3.7177047
50
359.7107152
51
7.6907221
0
ENDSEC
0
EOF